<?xml version="1.0" standalone="no"?>
<!DOCTYPE svg PUBLIC "-//W3C//DTD SVG 1.1//EN" "http://www.w3.org/Graphics/SVG/1.1/DTD/svg11.dtd" >
<svg xmlns="http://www.w3.org/2000/svg" xmlns:xlink="http://www.w3.org/1999/xlink" version="1.1">
<metadata>
Created by FontForge 20170731 at Wed Jun 29 19:47:39 2022
 By Aleksey,,,
Typeface (c) (Kong Font). 2020. All Rights Reserved (kongvector@gmail.com).
</metadata>
<defs>
<font id="DoubleSignature" horiz-adv-x="712" >
  <font-face 
    font-family="Double Signature"
    font-weight="400"
    font-stretch="normal"
    units-per-em="2048"
    panose-1="2 0 5 3 0 0 0 0 0 0"
    ascent="1798"
    descent="-250"
    x-height="655"
    cap-height="1110"
    bbox="-743.75 -84.25 16450 1368"
    underline-thickness="102"
    underline-position="-307"
    unicode-range="U+0020-E018"
  />
<missing-glyph horiz-adv-x="1024" 
d="M102 0v1024h820v-1024h-820zM205 102h614v820h-614v-820z" />
    <glyph glyph-name="ee" unicode="ee" horiz-adv-x="417" 
d="M305 662q16 -2 29 -12.5t14 -24.5q3 -23 -21.5 -46t-56.5 -26q-18 -36 -18 -88q0 -37 18 -41q12 -3 23.5 0t22 13t17 18t16.5 23t13 18q35 42 97 90q3 2 6 0t3.5 -5.5t-3.5 -5.5q-41 -25 -71.5 -59t-43 -58.5t-32.5 -43t-46 -19.5q-37 -1 -57 36.5t-18 82.5
q-56 -61 -84 -74q-52 -25 -85.5 -14t-43.5 49q-9 36 1 72.5t30 60.5t44.5 36t42.5 3q18 -13 16 -34.5t-24 -42.5t-49 -21q-8 -21 -7 -54t19 -40q21 -9 51.5 6.5t46 30t44.5 43.5q7 41 30.5 76t61.5 48q2 0 7 1.5t7 1.5zM322 627q-5 0 -11 -6q-10 -3 -35 -52q41 9 51 39
q5 18 -5 19zM94 621q-3 0 -8 -5q-26 -29 -37 -57q22 6 37 21q11 11 14.5 21t1 15t-7.5 5z" />
    <glyph glyph-name="ff" unicode="ff" horiz-adv-x="387" 
d="M106 764q20 0 31.5 -14t1.5 -37q-58 -127 -96 -228q31 7 65.5 33t54 47.5t48.5 57.5q9 24 17 42t14.5 30.5t10 20.5t9 15t7 9t7.5 7.5t7 6.5q15 15 32.5 3.5t12.5 -30.5q-3 -18 -39.5 -100t-59.5 -176q114 43 185 135q2 3 5.5 2.5t5 -3t-0.5 -5.5q-77 -103 -197 -142
q-4 -12 -4 -16q33 -46 47 -167q18 -147 -20 -199q-20 -27 -53 -17q-21 5 -38 36t-22 62q-11 53 -2 163.5t39 215.5q9 29 19 59q4 11 3.5 11t-5.5 -7q-14 -17 -27 -30q-66 -70 -127 -80q-1 -2 -3 -7t-3 -7q38 -61 38 -173.5t-26 -197.5q-15 -44 -45 -39q-35 5 -55 73
q-15 50 -15 122q0 64 12 129t36.5 135t45.5 119t56 125q8 16 28 16zM23 434q-13 -39 -24 -81t-20 -91.5t-7.5 -96t14.5 -77.5q1 -2 3.5 -6.5t4.5 -7.5t6 -4q12 -6 24 24q27 65 28 181q0 104 -29 159zM217 401q-36 -196 -27 -280q1 -8 2.5 -16t4.5 -18t8.5 -15t11.5 -4
q5 1 9 3.5t6.5 7t5 8.5t4 11t2.5 10.5t2.5 11t1.5 9.5q15 75 1 156t-32 116z" />
    <glyph glyph-name="gg" unicode="gg" horiz-adv-x="655" 
d="M74 690q24 0 37 -8q38 -20 32 -68q10 -48 -4 -137q22 17 55 47.5t37 42.5q22 53 68.5 89t85.5 12q19 -10 23 -33l4 4q6 14 22 12.5t19 -16.5q13 -48 8 -135q98 38 141 86q5 7 10 -1q4 -6 0 -10q-47 -47 -153 -90q-6 -106 -41 -219q-48 -157 -137 -193q-62 -25 -110 18
q-50 45 -40 121q15 111 152 201q47 32 108 58q3 40 6 83l2 28h-1q0 -3 -1 -4q-26 -39 -65.5 -76.5t-69.5 -36.5q-14 1 -25 13t-14 26q-3 17 1 34v2l-2 -3q-28 -31 -85 -76q-12 -69 -42.5 -157t-63.5 -130q-46 -61 -106.5 -54.5t-74.5 59.5t33 120q16 19 40 38t39 29
t51.5 30.5t45.5 25.5q6 33 11.5 62.5t8 43t3.5 19.5q-71 -102 -129 -94q-34 5 -43 43q-4 13 -2 28q6 60 59 113t107 53zM78 621h-4q-52 -10 -98 -63q-38 -46 -24 -65q5 -7 15 -8q44 -6 121 101q5 28 6 28q-3 1 -5 3t-4.5 3t-6.5 1zM356 612q-21 -6 -63 -57q-44 -65 -18 -61
q26 3 73 52q28 28 43 56q-9 -2 -13.5 -0.5t-12 5.5t-9.5 5zM389 455q-171 -74 -225 -193q-24 -55 -15 -95.5t41 -60.5t66 -6q49 18 81.5 88.5t39.5 139.5q1 4 12 127zM55 408q-7 -4 -26 -15t-28 -16.5t-25.5 -15.5t-26.5 -18t-22.5 -18.5t-22.5 -21.5q-39 -43 -39.5 -84.5
t26 -60.5t58.5 -4q35 17 61 88q33 110 45 166z" />
    <glyph glyph-name="oo" unicode="oo" horiz-adv-x="595" 
d="M432 750q33 0 56.5 -26t29.5 -77q3 -41 -10 -88q72 6 129 23q5 1 8 -2.5t2 -7.5t-6 -5q-72 -19 -137 -22q-24 -84 -88 -121q-40 -24 -77.5 -9.5t-51.5 55.5t0 101q-55 -20 -105 -20q-23 -66 -72.5 -117t-95.5 -26q-23 14 -31 55t6.5 94t51.5 92q0 42 46.5 67.5t80.5 -1.5
q51 -38 18 -152q46 2 107 27q16 36 45 65q6 41 33 67t61 28zM432 735q-24 0 -45 -15.5t-31 -41.5q0 -1 -1 -3q-3 -6 -2 -6l3 1q12 7 25 8q14 1 21.5 -9.5t5.5 -23.5q-3 -11 -17 -27t-22 -30q19 -25 48.5 -30t74.5 -1q16 57 8 107q-6 36 -24.5 53.5t-43.5 17.5zM129 717
q-25 0 -47.5 -16t-28.5 -39q41 32 80 22q22 -4 22 -29t-22 -30q-29 -5 -49 -31q39 -31 88 -31q12 37 12 78q0 39 -15.5 57.5t-39.5 18.5zM78 584q-42 -59 -39 -133q2 -34 41 -10q43 28 75 87l11 23q-51 3 -88 33zM362 578q-2 0 -8 -13q-36 -76 -10 -113q22 -30 65 -5
q13 7 25 18q33 31 53 78q-68 -4 -100 12q-7 4 -12 8.5t-7 7t-4 5.5z" />
    <glyph glyph-name="ov" unicode="ov" horiz-adv-x="532" 
d="M489 752h3q24 -3 32 -31q6 -21 -1 -64t-17 -71q48 -20 90 -8q6 2 6 -3q-1 -9 -8 -12q-47 -14 -92 6q-27 -68 -76 -129t-98 -53q-24 4 -39.5 28t-18.5 52q-8 66 29 149q-59 -36 -117 -43q-17 -54 -54 -99t-79 -34q-42 13 -31 95q5 38 26.5 72t33.5 38q12 30 47 44.5
t58 -10.5t3 -93q67 15 125 55q9 18 27 39q10 13 25 14.5t20 -12.5q4 -6 1 -18.5t-7 -19.5t-13.5 -27.5t-17.5 -43.5q-54 -152 -2 -159q29 -3 74 50t69 114q-23 16 -35.5 39t-13 45.5t5.5 43t18.5 33t26.5 13.5zM489 739q-1 0 -4 -1t-4 -1q-28 -14 -28.5 -61.5t41.5 -81.5
q18 62 18 104q2 12 -5 26.5t-18 14.5zM150 682q-16 0 -35 -12t-25 -25q10 -3 12 -10q4 -6 5.5 -10t2 -6t0 -8t-0.5 -9t-1 -5t-1.5 -2.5t0 -1.5t4.5 -3q27 -13 63 -6q18 62 4 86q-9 15 -28 12zM90 594q-24 -38 -34 -82.5t18 -54.5q29 -1 55.5 36.5t40.5 77.5q-56 -7 -80 23z
" />
    <glyph glyph-name="ou" unicode="ou" horiz-adv-x="657" 
d="M147 733q38 0 42.5 -55.5t-15.5 -114.5q78 6 143 51q2 2 4.5 8t10 14.5t22.5 20.5q9 9 22 2t9 -20q-5 -22 -8 -27q-1 -2 -8 -19t-10.5 -27.5t-9.5 -29t-8 -31t-2 -26.5t5 -22q10 -10 28.5 -1t44.5 41t48 74q4 18 15.5 48t21.5 38q12 9 25.5 4t13.5 -20q1 -7 -7 -33.5
t-17.5 -57t-16.5 -61t-4 -51t18 -20.5q25 1 52.5 25.5t48 54.5t47.5 57t49 31q4 2 4 -4q0 -3 -2 -4q-4 -3 -10.5 -7t-14.5 -10.5t-18 -17.5q-18 -18 -47.5 -60.5t-49.5 -60.5q-44 -39 -78 -31t-40 60q-3 30 0 65q-13 -20 -26 -37t-29.5 -32t-32 -22t-32 -4.5t-30.5 17.5
q-42 42 2 152q-68 -38 -139 -41q-21 -61 -54.5 -107.5t-72.5 -33.5q-49 18 -47 93t49 126q-3 33 19 60.5t57 39.5q15 6 28 6zM143 717q-26 0 -55 -23t-33 -57q16 12 30.5 7t18 -17t-1.5 -23q-6 -13 -20 -8q-1 -1 -4 -5t-4 -5q27 -27 80 -23q35 116 10 146q-5 8 -21 8z
M66 575q-36 -57 -29 -110q5 -34 27 -32q28 3 65 73q13 22 18 41q-57 4 -81 28z" />
    <glyph glyph-name="os" unicode="os" horiz-adv-x="448" 
d="M111 729q10 0 14 -2q38 -6 58 -41.5t7 -89.5q57 10 127 37q17 19 42.5 36t43.5 13q2 -1 4.5 -2t6.5 -6.5t2 -11.5q-2 -9 -16 -24t-29.5 -29.5t-27 -40t-9.5 -54.5q58 34 135 68q5 2 8.5 -4t-2.5 -9q-101 -43 -141 -67q0 -1 19.5 -69t11.5 -114q-15 -80 -80 -100
q-54 -17 -98 16q-50 37 -31 102q19 62 102 128q5 4 10.5 8t6.5 5l2.5 2.5t0.5 3t-1.5 4.5t-2 9.5t-2.5 14.5q-5 50 29 100q-10 -3 -30.5 -9t-30.5 -9q-17 -4 -30.5 -6.5t-16.5 -3t-6 -1.5t-3 -5.5t-3 -10.5t-10.5 -20.5t-20.5 -32.5q-21 -31 -47.5 -56t-47.5 -36
q-57 -31 -82 12q-25 41 -1 106q20 53 67 87q-15 39 8.5 69.5t63.5 32.5zM111 715q-7 2 -19 -2q-26 -8 -39 -30.5t-4 -47.5q39 24 80 24q22 1 24 -21t-18 -28q-5 -2 -18.5 -7.5t-20.5 -8.5q20 -5 76 0q20 54 -1.5 87.5t-59.5 33.5zM82 584q-3 0 -14 -11q-44 -38 -54 -86
q-8 -23 -4.5 -35.5t23.5 -9.5q35 5 74 49.5t61 90.5q-25 -3 -43 -3t-25 1t-12 2.5t-6 1.5zM283 469q-120 -84 -121 -164q0 -47 40 -66q27 -12 56 -1q38 13 55 55.5t-2 103.5q-4 12 -14 35.5t-14 36.5z" />
    <glyph glyph-name="oss" unicode="oss" horiz-adv-x="512" 
d="M90 684q13 0 19 -2q27 -9 42 -35.5t11 -62.5q23 5 80 22q10 16 20 19q3 1 7 3t14.5 4.5t17.5 0.5q8 -3 11 -10t-1 -15q-3 -4 -7.5 -8.5t-6.5 -7.5q-1 -4 -8 -13.5t-11 -23t-4 -35.5q57 31 95 64q2 61 41 74q22 8 30 -4q6 -8 -2 -17l-16 -16q-2 -12 -2.5 -21.5t0 -14.5
t3.5 -26l5 -35q47 29 121 58q8 3 10 -6q1 -8 -6 -11q-75 -28 -123 -61q18 -131 -30 -180q-30 -30 -64 -12q-33 19 -29 65q6 57 76 115q-1 5 -6 28.5t-6 36.5q-1 2 -1 6q0 5 -4 2q-2 -1 -8 -6q-38 -25 -84 -53q1 -8 4 -37.5t3 -46.5q0 -84 -60 -119q-44 -27 -81 -7
q-33 17 -29 60q5 60 110 131q-9 50 8 95q-56 -15 -71 -17q-10 -36 -47 -78.5t-62 -50.5q-52 -19 -67 28q-14 45 16 98q14 26 35 42q-13 30 5.5 56t51.5 24zM90 670q-15 0 -27 -6q-13 -9 -18.5 -24.5t0.5 -29.5q27 15 45 0l6 -8q8 -12 8 -22q28 0 46 2q6 38 -13.5 63
t-46.5 25zM76 565q-8 0 -18 -9t-27 -38q-27 -54 -2 -63q11 0 16.5 -0.5t15.5 6.5t14.5 10.5t13.5 12t11 10.5q35 35 45 69q-24 -3 -51 0q-5 -1 -10.5 0.5t-7.5 1.5zM223 473q-98 -68 -94 -121q3 -36 35 -37q35 -2 59 32q14 21 15 48q0 15 -15 78zM387 471q-70 -64 -61 -115
q5 -25 25 -27q25 -3 38 33q5 15 6 35q1 16 -8 74z" />
    <glyph glyph-name="rr" unicode="rr" horiz-adv-x="548" 
d="M557 717l4 -2q-9 -30 -14 -37q-19 -23 -49.5 -32.5t-59.5 3.5q-4 2 -12 8q-19 13 -31 4q-29 -22 -96 -212q-3 -9 -14.5 -9.5t-14.5 9.5q-23 108 13 202q-16 -7 -30.5 -9t-26 1.5t-18.5 7t-14 9.5t-8 6q-4 0 -9 -3t-10 -9.5t-9 -13t-9.5 -16.5t-9 -17t-9 -17.5t-7.5 -14.5
q-43 -86 -47 -106q-2 -9 -14 -9t-13 9q-10 63 2 140.5t41 84.5q26 6 37 -18.5t-12 -36.5q-3 -18 -6 -27q-4 -17 -9 -36l-2 -7l3 5q3 7 6 12q35 62 53 96q12 27 37 27q5 0 31 -12t49 -11q10 0 22 6q1 2 4 6.5t4 6.5q6 11 19 5t10 -18q-2 -7 -14 -33.5t-20.5 -62.5t-8.5 -82
q52 129 77 162q29 39 60 31q4 -1 16.5 -8t26 -12.5t25.5 -4.5q15 0 32 11t23 24h2z" />
    <glyph glyph-name="ss" unicode="ss" horiz-adv-x="313" 
d="M233 690q23 0 31 -14q13 -23 -18 -41q-15 -28 -6 -96q10 5 100 43q8 3 10 -6q1 -8 -6 -11q-60 -20 -102 -41l1 -8q1 -8 -1 -8v-29q0 -41 -15 -84q-17 -52 -48.5 -72t-57.5 -8q-23 12 -25.5 43.5t19.5 70.5t63 71q1 2 0.5 2.5t-2 5.5t-2.5 12q-6 34 -6 70
q-63 -23 -109 -53q1 -12 6 -46.5t4 -55.5t-10 -40q-13 -28 -36.5 -37.5t-44 -1.5t-27.5 27q-11 29 12.5 72.5t59.5 72.5q-35 97 9 139q28 27 63 10q9 -4 16 -11q12 -12 13 -28t-9 -30q-8 -9 -21 -6t-16 14l-2 2h-2v-2q-2 0 -5.5 -6.5t-7 -21.5t-2.5 -33q34 22 109 51
q4 52 29 72q16 12 36 12zM29 514q-36 -31 -54.5 -72.5t0.5 -60.5q17 -16 40.5 -4.5t29.5 43.5q7 35 -16 94zM182 487q-32 -27 -54 -64.5t-15 -68.5q4 -27 28 -26t41 30q17 28 13 91q-5 10 -13 38z" />
    <glyph glyph-name="t_t" unicode="tt" horiz-adv-x="415" 
d="M276 1106q14 2 25 -9t10 -24q0 -4 -14 -49q47 6 141 14q95 6 122.5 3.5t41.5 -17.5q5 -7 2 -14t-9.5 -8.5t-12.5 4.5q-5 7 -12.5 11t-19 5.5t-18 2t-21.5 0t-17 -0.5q-96 0 -203 -14q-50 -143 -86.5 -269.5t-53.5 -212.5t-28 -162.5t-10.5 -119t0 -83t2.5 -54.5t-2 -33
q-2 -8 -11 -9.5t-12 5.5q-11 23 -17 115.5t7.5 250.5t52.5 301q-5 -10 -31 -61t-59 -115q-4 -8 -12.5 -26t-14.5 -30t-15.5 -30t-17.5 -30t-17.5 -26t-18 -21t-18 -11.5t-18.5 -1.5t-17 12q-25 31 -25 131q3 67 41 199.5t76 235.5q-10 -1 -37 -5t-41 -5.5t-36.5 -3t-41 -1
t-35.5 3.5q-65 8 -88.5 40.5t-7.5 62.5q3 7 10 7t12 -4.5t3 -10.5q-8 -24 5 -42t38 -26q70 -24 223 -2q6 17 18.5 50t18.5 50q14 31 43 25q13 -3 21 -17t3 -26q-4 -12 -13 -35.5t-13 -34.5q17 2 151 23q4 11 12.5 33t12.5 34q11 25 32 25zM213 999q-24 -4 -74.5 -12
t-75.5 -12q-85 -227 -133 -453q-19 -95 -10 -104q9 -5 27 14q20 21 98.5 170t106.5 209q31 108 61 188z" />
    <glyph glyph-name="th" unicode="th" horiz-adv-x="567" 
d="M45 1094q9 0 18 -9q9 -7 11.5 -16t-2 -25t-10.5 -30t-20 -44.5t-24 -54.5q0 -1 -1 -2q-1 -3 2 -3q2 0 11 1q59 8 144 13q4 11 10 28.5t8.5 24t6.5 16t7.5 15t8.5 10.5q7 10 20.5 10.5t22.5 -6.5q10 -8 13.5 -21t-3.5 -24l-20 -49q78 3 155 0q7 0 7 -8.5t-7 -8.5
q-79 3 -161 0q-120 -312 -142 -384q-12 -40 -26 -97q-2 -8 -5 -19h2q51 99 158 228q19 23 33 27q23 8 43 -2q15 -8 22 -24t5.5 -42t-3.5 -41t-10 -46.5t-8 -33.5q-2 -5 -3 -16t-1 -23t5.5 -18.5t15.5 -3.5q3 1 6 2.5t6.5 4.5t6 6.5t7 10l9 13t12 18t14.5 21.5q14 22 24 39.5
t13.5 24t7.5 12.5t10 12q2 2 5 0t2 -5q-3 -10 -60 -100q-18 -31 -25 -42t-16 -21.5t-18 -14.5q-36 -18 -61.5 26.5t-14.5 102.5q2 10 7.5 39t8 46.5t0.5 23.5q-14 3 -36 -19q-105 -102 -179 -264q-10 -50 -16 -61q-3 -8 -14.5 -6.5t-12.5 10.5q-2 12 1.5 43t8 56.5t12 62.5
t7.5 39q-40 -85 -67 -143t-34.5 -75t-13.5 -30t-14 -29q-15 -30 -38.5 -23.5t-33.5 48.5q-20 77 2.5 275t87.5 364q-230 -39 -282 -74q-10 -7 -15 6q-3 9 5 14q11 7 35.5 15t51 14t64 14t60 12t55 9.5t33.5 5.5q8 21 26 63t23 54q1 3 4.5 11.5t5 12t5 11t6 11.5t6 10t7 9
t7 6.5t8 5t8.5 1.5zM168 909q-103 -8 -158 -14q-60 -153 -94 -270.5t-45 -239.5q-7 -97 -2 -133q0 -1 0.5 -3.5t1 -4.5t1.5 -5t2 -5t2 -5.5t2 -4.5t2 -3t2.5 -2h2.5q5 2 105 210q36 76 59 124q16 34 46.5 139.5t72.5 216.5z" />
    <glyph glyph-name="st" unicode="st" horiz-adv-x="452" 
d="M342 1079q15 0 23 -8q10 -6 12 -20t-6 -25q-1 -3 -10.5 -32t-10.5 -36q-1 -1 1 -1.5t6.5 -0.5t12 0.5t19.5 1t26.5 1t35 1t43.5 0t54 -2t64 -3.5q9 0 7 -9q-1 -6 -7 -5q-154 9 -268 4q-17 -50 -29 -90t-20 -71t-28 -102.5t-44 -154.5q-40 -128 -37 -282q0 -3 1 -13
t2 -15.5t3.5 -13t6.5 -12.5q11 -14 30.5 3.5t40 52.5t35.5 65.5t25 53.5q7 15 23.5 53t26 58t25.5 49.5t33 52.5q3 5 8.5 4t7.5 -5.5t-1 -9.5q-44 -57 -100.5 -185.5t-94.5 -180.5q-20 -32 -45 -37q-24 -3 -38.5 22.5t-18 71t-2 95.5t8 108t12 96.5t11.5 71.5q10 59 21 96v1
q-46 -105 -158 -191q-7 -6 -14 -11q-4 -9 -1.5 -32.5t1 -68t-11.5 -73.5q-8 -29 -30 -52t-50 -26q-29 -3 -50 18t-24 50q-7 77 117 168q-9 39 -12 56.5t-0.5 47.5t16.5 50q32 41 73 30q27 -7 28 -30q1 -6 -1 -11q-10 -26 -37 -26q-6 1 -11 -17.5t-7 -36.5t-2 -28
q55 41 90.5 81t69.5 103q15 28 24.5 52t14.5 40.5t15.5 53t20.5 67.5q-50 -4 -95.5 -10t-76 -11t-62 -12t-45 -11t-33.5 -10l-19 -5q-3 0 -3 -2q-10 -3 -20 0q-8 1 -8 10t8 12q193 39 360 51q31 100 45 117q7 10 23 10zM-10 492q-124 -95 -101 -164q9 -33 37.5 -37t53.5 26
q18 22 22 56.5t0.5 56.5t-12.5 62z" />
    <glyph glyph-name="az" unicode="az" horiz-adv-x="649" 
d="M242 666q10 1 17.5 -9.5t4.5 -21.5q-4 -17 -7.5 -24.5t-14 -21.5t-21.5 -32q-13 -19 -36.5 -69t-26.5 -72q-3 -21 17 -21q34 0 83 60q22 28 62 90.5t63 89.5q11 15 30 15.5t47 -3.5t79 10q12 3 16.5 -8.5t-6.5 -17.5q-9 -6 -21 -23q-65 -63 -118 -137q21 3 45.5 -2
t44 -8.5t44.5 1.5t57.5 33.5t72.5 82.5q4 7 10 -1q2 -4 0 -8q-40 -56 -73 -88.5t-59 -42t-44.5 -10t-45 3.5t-44.5 2q-8 -1 -43 -16q-13 -7 -21.5 4t0.5 22q2 2 11.5 20.5t21.5 38.5t36 50.5t54 58.5q1 1 2 1q2 0 -3 -0.5t-13 0t-19 1.5q-20 5 -24 7q-5 1 -9.5 3.5t-6.5 4.5
t-5 2t-4.5 -1t-6 -5.5t-9.5 -11t-14 -19.5q-8 -11 -38 -59t-54 -80t-50 -56q-44 -37 -72.5 -25.5t-31.5 58.5q-1 24 6 65q1 3 -3 0q-27 -29 -54 -51q-32 -26 -61 -24.5t-37 30t14 85.5q20 47 50 78t59 41t56 6t44 -23q17 20 43 27h6zM127 596q-15 0 -25 -4q-25 -8 -47 -24.5
t-35.5 -34t-22.5 -36t-8.5 -31.5t7.5 -20q19 -17 57 7q16 9 34.5 24.5t29.5 26.5t12 14q6 23 29 68q-17 10 -31 10z" />
    <glyph glyph-name="at.1" unicode="at" horiz-adv-x="616" 
d="M582 1065q8 0 16 -4q12 -7 15 -21t-3 -26q-13 -27 -28 -78q87 13 189.5 22t135.5 7q7 0 7 -7.5t-7 -7.5q-9 -1 -56.5 -2t-119.5 -6.5t-153 -17.5q-304 -953 54 -392q15 25 32 52q4 9 12 1q6 -5 2 -10q-228 -385 -262 -247q-24 94 45 428q-120 -245 -190 -305
q-41 -34 -68 -15q-24 17 -29.5 64t6.5 78q-83 -101 -120 -125q-16 -10 -27 -11q-14 -1 -25 8t-14 23q-7 32 19 87.5t55 84.5q30 28 70.5 36.5t64.5 -15.5q11 -15 6 -29q15 19 29.5 24t23 -3t8.5 -23q0 -12 -10 -25q-43 -75 -45 -118q-2 -11 3.5 -22.5t17.5 -8.5
q76 20 237 352q2 8 27 98q-71 -12 -164.5 -34t-138.5 -43q-1 -15 -18 -13q-17 4 -15 21q2 16 26 16q11 2 117 26t197 40q21 71 47 125q8 16 31 16zM203 627q-8 -9 -45 -13q-41 -7 -93 -64.5t-45 -78.5q3 -8 12 -8.5t17.5 3t13.5 7.5q16 11 31 24.5t31 32t25 29.5t27 35
t24 31z" />
    <glyph glyph-name="att" unicode="att" horiz-adv-x="819" 
d="M829 1128q11 0 19 -8q4 -4 6 -9t1.5 -12.5t-2 -15t-6.5 -21t-9.5 -25.5t-13 -33.5t-15.5 -40.5q189 0 221 -11q4 -1 6 -5t1 -7.5t-5 -3.5q-26 -3 -34.5 -2t-66.5 3.5t-130 2.5q-1 -3 -16.5 -40t-28.5 -73t-33 -95.5t-37 -124.5t-34 -141.5t-29 -166t-17 -180.5
q-1 -12 -1 -33.5t-1 -39.5t-4 -34q0 -6 -7 -6t-9 6q-10 75 8 244q26 230 111 527q13 47 12 48l-17 -34q-6 -14 -26 -57q-13 -30 -21 -48q-126 -296 -178 -373q-25 -36 -52.5 -31.5t-37.5 46.5q-12 60 37 235q21 81 49 171q10 32 9 33l-20 -35q-46 -84 -89 -158
q-22 -38 -37.5 -63t-44 -63.5t-55.5 -54t-50 -4.5q-27 13 -34 64t2 82q-1 -1 -10.5 -11.5t-12 -12.5t-11 -11t-12.5 -12l-12 -9t-13.5 -8.5t-13 -5.5t-14.5 -4q-31 -3 -39 37q-10 55 30 115q20 30 50 51q27 20 59 23t56 -21q4 4 16 4q10 -1 16.5 -4.5t8.5 -6.5l2 -3
q5 -8 5.5 -14t-3 -14.5t-8 -18t-13 -30t-16.5 -44.5q-36 -107 -11 -119t85 65q84 106 194 320q2 3 5 9q10 18 21 54l19 64q-152 -13 -254 -27q-8 -1 -18 -3l-8 -2h1l3 -1q6 -4 14 -12q3 -1 2 -4.5t-4 -3.5q-19 -4 -41 0q-29 4 -43 12q-8 3 -5 14.5t13 10.5q16 0 45 4
q186 25 285 31q18 1 18 5q1 2 1 3q16 52 34 79q14 25 40.5 14.5t19.5 -38.5q-3 -12 -23 -58q105 5 142 5q13 47 30 96q8 37 21 55q11 14 28 14zM741 940q-96 0 -143 -2q-84 -167 -149 -393q-15 -50 -20.5 -71t-13 -54.5t-6.5 -54t7 -37.5q19 -54 100 99q48 92 200 443
q7 15 13 29q2 6 12 41zM168 631q-2 0 -18 -4q-37 -11 -77.5 -60.5t-25.5 -68.5q10 -13 35 4q30 14 72 63q6 34 22 66h-8z" />
    <glyph glyph-name="et" unicode="ett" horiz-adv-x="419" 
d="M444 1067q11 0 19 -7.5t8 -19.5q1 -11 -2 -24.5t-6 -21.5t-10 -25.5l-9 -22.5q237 13 320 -4q4 -2 3.5 -7t-5.5 -5q-17 -1 -67 2t-102.5 3.5t-154.5 -5.5q-5 -12 -38.5 -94t-43.5 -111.5t-32.5 -97.5t-33.5 -127.5t-18 -126.5q-5 -51 -3.5 -102.5t-0.5 -65.5
q0 -5 -5.5 -5.5t-8.5 3.5q-5 20 -10 94q-5 169 45 375q-42 -83 -84 -146q-50 -77 -90 -96q-20 -14 -51.5 -13.5t-47.5 23.5q-16 20 -17 65t9 70q17 52 64.5 94t85.5 19q23 -14 17 -41.5t-25.5 -55.5t-46 -50t-44.5 -25q-13 -36 -8 -57q3 -11 11 -15.5t18.5 -3.5t20 4.5
t16.5 8.5q7 4 13.5 9t13 11.5t10.5 11t11 13.5t10 12t10.5 14t9.5 13q97 147 108 196q30 116 59 191q-104 -13 -186 -32t-121 -32.5t-41 -13.5q-20 -3 -23 14q-2 14 10 15q4 1 9 -1q189 48 359 66q38 100 57 121q9 6 18 6zM150 657q-1 0 -11 -10q-16 -16 -25 -26
t-20.5 -29.5t-23.5 -46.5q-1 -2 -2 -5l2 1q33 17 54.5 44.5t27.5 47.5t0 24h-2z" />
    <glyph glyph-name="ii" unicode="ii" horiz-adv-x="376" 
d="M330 758h8q3 -2 5 -3t5 -3q6 -6 6 -15q3 -11 -7 -21.5t-21 -10.5q-6 -1 -13 2.5t-10.5 12.5t4.5 25q9 13 23 13zM143 745q16 0 23 -18q4 -15 -8.5 -26t-28 -8t-18.5 22l1.5 4.5t0.5 2t0.5 2t1.5 3.5q12 18 28 18zM287 680q11 0 18 -7.5t4 -19.5q-5 -13 -47.5 -84.5
t-52.5 -113.5q-10 -51 0 -70q2 -4 5 -6t6 -2.5t6 -0.5t6.5 1.5t6 3t6 4t5.5 4t5.5 4.5t4.5 4q20 19 47 60t55 74t62 49q5 4 8 -3q1 -5 -4 -8q-32 -13 -56.5 -39.5t-53 -70.5t-46.5 -66q-28 -33 -43 -35q-30 -5 -43 33q-19 68 4 141q-44 -51 -90 -79q-20 -13 -45.5 -10.5
t-36.5 24.5q-20 29 -4 91.5t64 109.5q14 13 30.5 4.5t16.5 -27.5q0 -16 -16 -22q-24 -32 -49 -83t-13 -69q19 -28 67.5 7.5t84.5 80.5q11 29 32.5 64t40.5 53q8 4 15 4z" />
    <glyph glyph-name="pp" unicode="pp" horiz-adv-x="677" 
d="M16 709q9 0 17 -5.5t8 -11.5q-1 -11 0 -12.5t-3.5 -17.5t-8.5 -26.5t-14 -39.5t-19 -57q-7 -20 -16 -50l-14 -45q1 3 6 13q17 38 30 63q91 174 157 182q35 4 47 -42q4 -18 3 -39q-1 -15 -3 -28v-5l2 1l1 1q50 20 74 39q7 19 12 30.5t16.5 21t24.5 5.5q14 -5 18 -18.5
t-8 -24.5q-3 -14 -44 -131.5t-62 -214.5q51 149 131.5 268.5t122.5 126.5q19 3 35 -6.5t24 -26.5q20 -41 8 -112q53 7 88 33q3 3 5 -2l-1 -7q-33 -23 -94 -34q-14 -59 -49.5 -97.5t-71.5 -46.5q-45 -9 -71.5 23t0.5 67q31 41 125 54q18 64 8 98l-4 12q-8 11 -29.5 -1.5
t-36.5 -27.5q-69 -66 -137 -220.5t-84 -305.5q-1 -9 -11 -9t-10 9q-2 110 22 259.5t64 258.5q-22 -14 -49 -24q-4 -2 -8.5 -4t-6 -2.5t-3.5 -1.5t-2.5 -2t-1 -2.5t-0.5 -4t-1 -5.5t-2 -8t-3 -11q-14 -44 -33 -72t-49 -55q-25 -25 -63.5 -18t-39.5 46q-1 22 10 41t33.5 33.5
t39.5 22.5t46 20q23 88 13 105q-73 -2 -172 -217q-41 -92 -67 -187t-37.5 -152.5t-20.5 -72.5q-6 -9 -18 -8.5t-15 12.5q-7 50 66.5 324t105.5 329q5 13 20 13zM135 547q-102 -45 -102 -96q0 -21 14 -21q13 -3 33 22.5t33 49.5t22 45zM489 526q-62 -11 -88 -30
q-41 -29 -25 -58q12 -23 41 -19q36 6 52 54q15 38 20 53z" />
    <glyph glyph-name="ll" unicode="ll" horiz-adv-x="460" 
d="M403 1108q9 0 13 -2q17 -7 18.5 -24.5t-13.5 -63t-36 -101t-59 -168t-74 -233.5q-26 -87 -39.5 -155t-14.5 -99.5t-1.5 -62.5t-1.5 -43q0 -2 -2.5 -3t-5.5 -0.5t-5 3.5q-13 29 -14 81t8 112t18.5 105.5t20.5 88.5q12 49 27 106q7 29 6 30l-12 -22q-13 -26 -23 -45
q-70 -126 -102 -184q-16 -32 -31 -45q-27 -19 -49 -8q-41 28 -30.5 141.5t51 257t91.5 256.5l3 8q3 7 3.5 8.5t3.5 8.5t5 9t5.5 7t6.5 7.5t7 5t9 3.5q26 4 35 -16.5t-10 -34.5q-176 -395 -178 -575q0 -33 6 -49q4 -9 9.5 -12t12 0t12.5 8t12 13.5t9.5 13.5t7.5 11
q83 125 160 283q2 8 12 45t13 48.5t12 44t14 48t14 44t16 47.5t16.5 43t19.5 45q7 14 24 14z" />
    <glyph glyph-name="mm" unicode="mm" horiz-adv-x="1011" 
d="M883 801h2q17 -1 27.5 -10.5t14.5 -27.5t4.5 -38.5t-5 -49t-10.5 -52.5t-14.5 -56.5t-15.5 -53t-15.5 -49t-12.5 -38.5q-12 -46 -7 -80t17 -37q21 -5 50.5 38.5t65 112t54.5 93.5q27 36 42 24q6 -5 1 -9q-1 -1 -2 -1q-18 -3 -46.5 -51t-55 -102.5t-60.5 -94t-63 -28.5
q-22 7 -31 45q-22 68 8 194q1 7 14.5 64t22.5 105.5t6 62.5q-38 5 -99 -92.5t-73 -149.5q-11 -43 -22 -61q-9 -14 -27 -10t-18 22q0 20 21.5 103.5t21.5 84.5q-17 -6 -33.5 -23t-30.5 -39.5t-26 -48t-21.5 -50.5t-16.5 -45t-11 -33l-4 -14q-2 -7 -10 -6.5t-11 6.5
q-17 46 -12 118q-13 -21 -34 -69t-36 -72q-37 -58 -77 -35t-48 106q-7 69 17 148q30 96 26 96l-4 -2q-10 -4 -43 -45q-26 -32 -45.5 -65t-28 -52.5t-15.5 -39t-9 -23.5q-6 -9 -20 -7.5t-15 11.5q-5 37 7.5 109t23.5 102q-48 -41 -113 -201q-17 -43 -37 -108q-3 -9 -13 -9.5
t-13 9.5q-14 79 -8 153.5t30 131.5q7 20 11.5 30.5t16 19.5t25.5 3q15 -7 17 -19t-6.5 -34t-19.5 -49t-22.5 -73t-15.5 -96q3 7 18.5 44.5t33 75t36.5 69.5q47 75 68 82q16 7 25.5 -5t9.5 -28q3 -26 -13 -104q29 50 99 137q23 27 48 19t28 -38q2 -19 -9.5 -59.5t-25.5 -82
t-25 -82.5t-7 -72t28 -40q25 -10 47.5 21.5t48 90.5t41.5 81q7 41 16 63q1 2 6 13t8 16.5t9 13.5t13 11.5t15 3.5q12 0 17.5 -12t3.5 -25q0 -3 -10 -33.5t-22 -68.5t-15 -56q53 131 117 197q22 23 43 13t20 -44q0 -19 -3 -36t-5 -23q4 10 8 18q23 47 44.5 80t42 57.5
t22.5 26.5t10 10.5t11.5 11.5t11.5 7t16 4z" />
    <glyph glyph-name="nn" unicode="nn" horiz-adv-x="679" 
d="M213 725q17 0 30.5 -11t16.5 -34q4 -36 -22 -114.5t-46 -140t-6 -69.5q14 -9 41 27q4 5 17.5 26.5t26.5 43t14 22.5q25 45 35.5 64.5t13.5 27t2 10t4 19t18 47.5q1 2 4.5 10t6 12t6.5 9t8 6q13 6 25 -3.5t6 -21.5q0 -1 -6.5 -17.5t-13.5 -37t-15.5 -51.5t-13.5 -60
q5 9 19 34.5t20.5 37.5t19.5 33.5t23 35t23.5 30.5t27.5 30q4 3 12 11t15 13.5t14 8.5q15 6 29 -1.5t20 -23.5q11 -34 -23.5 -140.5t-38.5 -137.5q-5 -12 -0.5 -49.5t25.5 -28.5q21 10 48.5 54t60.5 99.5t63 82.5q3 3 6 1.5t4 -4.5t-2 -6q-29 -28 -58.5 -80t-55 -98.5
t-46.5 -64.5q-22 -22 -49.5 -5.5t-40.5 72.5q-5 36 -5.5 59.5t7.5 57.5t15.5 56.5t19 55.5t17.5 56q0 2 2 4q0 4 -3 3q-7 -1 -24 -11q-44 -30 -86.5 -103.5t-69.5 -142.5q-5 -10 -14.5 -9.5t-11.5 11.5q-5 43 2 100q-25 -41 -44.5 -74.5t-27 -46.5t-15.5 -25t-18 -24
q-9 -11 -20 -18.5t-24 -7t-21 13.5q-10 15 -10 41q-5 47 11.5 116.5t32.5 121.5t11 63q-8 0 -11.5 1.5t-10 -4t-9 -8t-8.5 -10t-8 -10.5q-34 -40 -71.5 -102t-61.5 -117q-2 -4 -8 -5t-11 3q-27 39 -6 131t59 133q14 15 34 4.5t13 -30.5q-3 -8 -18.5 -38.5t-30.5 -78.5
q-3 -9 -7 -22l-4 -13q1 1 5 9q34 61 76 114q47 61 61 70q8 8 25 8zM537 682v2q-2 -2 0 -2z" />
    <glyph glyph-name="zz" unicode="zz" horiz-adv-x="493" 
d="M135 696q10 0 15 -9t-3 -17q-66 -57 -114 -133q21 -26 35 -58q39 37 70.5 83.5t45 73.5t36 41.5t54.5 4.5q42 -21 58 -8q11 9 21.5 -2t0.5 -21t-30.5 -31.5t-30.5 -31.5q-29 -31 -30 -35q-1 -3 8 -25q9 -24 14 -59q98 60 143 109q5 7 11 -1q4 -6 -1 -10
q-17 -17 -38.5 -34.5t-34.5 -26.5t-41.5 -28t-36.5 -25q10 -86 -18 -174t-70 -127q-46 -43 -88 -18q-39 23 -35 82q6 96 122 190q24 20 52 38q-5 43 -17 85q-8 27 -2.5 38.5t47.5 52.5l19 19q-6 2 -26 9t-27 7.5t-25 -4.5q-11 -8 -60 -78t-89 -104q13 -37 5 -108.5
t-38 -131.5q-43 -83 -114 -92q-54 -7 -84 32q-35 48 5 116q14 25 38.5 49.5t44.5 39.5t54 38t48 34q-8 52 -29 76q-11 7 -2 21q32 53 88 112q-9 1 -30 5.5t-29 5t-29 -1.5q-30 -4 -44 -34t-3 -59q2 -5 -1.5 -9t-8 -3.5t-7.5 4.5q-11 33 -0.5 65.5t37.5 53.5q28 19 82 11.5
t74 0.5q2 2 8 2zM31 436q-15 -11 -45 -31.5t-47.5 -33t-38.5 -32.5t-35 -40q-23 -32 -28.5 -60t4 -45t26 -26.5t38 -7.5t40.5 14q48 31 71 113t15 149zM250 428q-92 -65 -129.5 -131t-27 -104t41.5 -41q40 -2 78 71q46 94 37 205z" />
    <glyph glyph-name=".notdef" horiz-adv-x="1024" 
d="M102 0v1024h820v-1024h-820zM205 102h614v820h-614v-820z" />
    <glyph glyph-name=".null" horiz-adv-x="0" 
 />
    <glyph glyph-name="nonmarkingreturn" horiz-adv-x="682" 
 />
    <glyph glyph-name="space" unicode=" " horiz-adv-x="471" 
 />
    <glyph glyph-name="space" horiz-adv-x="471" 
 />
    <glyph glyph-name="exclam" unicode="!" horiz-adv-x="243" 
d="M215 1110q26 0 29 -27q2 1 -20 -126.5t-54.5 -324.5t-50.5 -323q-1 -9 -10 -12t-17.5 2t-7.5 14q20 215 43.5 398t38 268.5t22.5 110.5q7 20 27 20zM82 233q14 0 22 -9t2 -25q0 -5 -8 -17q-11 -14 -24.5 -11t-18 17t1.5 31q8 11 25 14z" />
    <glyph glyph-name="quotedbl" unicode="&#x22;" horiz-adv-x="202" 
d="M123 1104q17 0 20 -21q4 -82 -37 -135q-22 -28 -31 -19q-2 2 -3 7q-1 8 7 27.5t16 51t7 68.5q0 9 6.5 15t14.5 6zM190 1096q9 0 14.5 -6t2.5 -17q-18 -122 -23.5 -143t-19.5 -21q-6 -2 -12.5 4t-6.5 13q0 11 4.5 38.5t12.5 67t10 51.5q3 13 18 13z" />
    <glyph glyph-name="numbersign" unicode="#" horiz-adv-x="704" 
d="M428 999q13 2 22.5 -8t6.5 -26q0 -32 -43 -224q35 2 106 2q28 162 29 172q5 26 12 33q7 14 25.5 13t21.5 -19q4 -21 -6 -84q-21 -101 -24 -115q156 -8 190 -18q4 -2 3.5 -6t-5.5 -6q-18 0 -64 4q-86 8 -127 8q-15 -63 -22 -100q98 6 133 -11q7 -3 5.5 -9.5t-7.5 -8.5
q-11 -3 -25 -3.5t-39 0.5t-75 -1q-17 -68 -48 -176t-42 -129q-1 -2 -4.5 -6.5t-10.5 -22.5q-3 -6 -9.5 -3t-4.5 9q8 56 14.5 87t20.5 90.5t31 148.5q-51 -5 -117 -17q-40 -160 -64 -229q-7 -14 -16 -18q-6 0 -8 2q-8 12 -3.5 44t35.5 191q-26 -5 -56.5 -12.5t-39.5 -9.5
q0 -5 -6 -11q-13 -9 -21.5 3.5t-2.5 25.5q3 6 9.5 10t12 6t15.5 4t12 3q32 9 86 20q13 78 20 107q-41 -6 -92 -15q-35 -8 -46.5 -7t-12.5 13q-1 10 10.5 16t47 11.5t99.5 9.5q38 201 47 242q6 20 27 20zM518 725q-69 -3 -110 -8q-3 -12 -11.5 -49t-13.5 -58q74 11 115 13
q5 26 20 102z" />
    <glyph glyph-name="dollar" unicode="$" horiz-adv-x="411" 
d="M252 1159h6q11 -3 15.5 -14t0.5 -21q-7 -11 -18 -8q-1 -2 -1 -3v-1.5t-1 -2t-1.5 -4t-2.5 -8t-4 -12.5q71 -23 82 -93q8 -51 -17 -79q-12 -15 -26 -10q-15 6 -6 29q13 36 -1.5 65.5t-46.5 40.5q-12 -41 -90 -340q51 -134 60 -192q20 -115 -35 -193q-54 -77 -139 -71
q-3 -11 -8.5 -32.5t-8.5 -33.5q-2 -7 -8 -8.5t-11 3t-3 11.5q5 26 16 62q-60 13 -88.5 60t-15 105t64.5 101q16 13 28.5 20.5t17.5 9.5t17.5 4t16.5 3q15 4 20 -8.5t-6 -20.5q-8 -6 -18 -16q-4 -4 -23 -17t-30 -24q-34 -30 -45.5 -69t6.5 -71t63 -42q43 155 105 395
q-33 76 -47 125q-33 130 16 214.5t131 78.5q2 14 6 38q2 11 10.5 20t18.5 9zM207 1042q-49 -2 -85.5 -63t-19.5 -156q3 -17 27 -96q63 243 78 315zM127 645q-16 -61 -46.5 -184t-45.5 -185q60 -1 99 49t42 117q2 86 -49 203z" />
    <glyph glyph-name="percent" unicode="%" horiz-adv-x="417" 
d="M373 1126q7 0 11 -7t1 -13q-5 -8 -8 -15t-5.5 -15t-16 -37t-36.5 -74q-81 -159 -169 -379.5t-101 -339.5q-12 -86 17 -101q4 -2 9 -2t9 1t9.5 4.5t8 5.5t8.5 7.5t7 6.5q66 63 114 158q7 31 21 51q6 7 14 6.5t13 -8.5q4 4 8 2q42 -14 47.5 -64.5t-25.5 -76.5
q-20 -19 -43.5 -10.5t-32.5 40.5q-1 3 -1 6q-1 3 -3 -2l-24 -39q-68 -86 -103 -104q-31 -16 -54 -4t-32 45q-19 72 32.5 255.5t129.5 364t139 271.5q7 11 16 22q4 5 4 5.5t-6 -1.5q-14 -5 -27 -9t-49 -10t-79 -7q6 -29 -12 -59t-49 -37q-23 -6 -43 4.5t-27 33.5
q-5 20 3 41.5t28 24.5q18 0 20 -12q4 -21 4 -43q0 -8 -8 -4l-14 14q0 -18 12 -25t27.5 0t25.5 25q13 22 4 35h-20q-8 0 -11.5 8t3.5 14q19 15 39 2q106 0 211 43zM276 358q-9 -25 -10 -52.5t10 -45.5q9 -9 17 4q18 23 11.5 50.5t-28.5 43.5z" />
    <glyph glyph-name="ampersand" unicode="&#x26;" horiz-adv-x="512" 
d="M350 1122q10 0 10 -8q7 -13 -6 -45q87 -4 109 -63q17 -43 -8 -78q-19 -25 -47 -23q-8 2 -10.5 10t5.5 13q21 11 25 36t-14 44q-22 22 -64.5 26.5t-90 -13t-77.5 -54.5q-30 -40 -28.5 -80.5t40 -71.5t97.5 -35q11 0 15 -13t-7 -19q-70 -32 -120.5 -85t-72 -108.5
t-20.5 -109t27 -89.5q30 -43 87 -53t116.5 18.5t95.5 88.5q47 76 22 121q-18 33 -59 20q-26 -8 -49 -35q-19 -24 -19 -55t27 -45q9 -6 3.5 -15.5t-15.5 -5.5q-31 16 -38 53.5t21 75.5q24 31 53.5 44t52.5 6.5t39 -25t14.5 -54.5t-22.5 -79q-24 -52 -70.5 -89.5t-105.5 -47.5
q4 -3 4 -23q0 -43 -8 -53q-7 -7 -16 2q-6 10 -2 35q2 30 6 36q-121 -14 -173.5 79t-6.5 217.5t174 189.5q-73 33 -97 84t-4 97.5t71 82.5t116 43q0 5 3 24t7 23q3 6 10 6z" />
    <glyph glyph-name="quotesingle" unicode="'" horiz-adv-x="149" 
d="M154 1094q18 0 22 -21q0 -60 -26 -90q-6 -6 -17 -6.5t-14 6.5q-6 6 -6 13.5t3.5 15.5t8.5 25t8 36q3 21 21 21z" />
    <glyph glyph-name="parenleft" unicode="(" horiz-adv-x="188" 
d="M303 1106q11 0 19 -10t4 -21q-1 -4 -3.5 -6.5t-4.5 -2.5l-3 -1q-2 -1 -4 -4.5t-4 -5.5q0 -3 -10.5 -33.5t-25.5 -81t-31 -113.5t-28.5 -148t-16.5 -169q-4 -87 2 -167t11.5 -112.5t20.5 -111.5q3 -14 -10.5 -17.5t-17.5 9.5q-22 72 -36 177.5t-16 235t19 252.5
q23 134 72 256q0 1 4 12t5.5 14.5t6 13.5t8.5 14t10 9.5t13.5 8t15.5 2.5z" />
    <glyph glyph-name="parenright" unicode=")" horiz-adv-x="202" 
d="M98 1114q5 0 9 -1.5t7.5 -5t5.5 -6.5t4 -9.5t3 -10t1.5 -11t1 -11t1 -11.5t0.5 -10q6 -138 -21 -307.5t-67.5 -301.5t-76.5 -225t-50 -108q-3 -5 -8.5 -2.5t-5.5 8.5q1 10 9.5 30.5t27.5 68.5t38 108q59 179 77 345.5t18 389.5q0 52 9 63q6 7 17 7z" />
    <glyph glyph-name="asterisk" unicode="*" horiz-adv-x="229" 
d="M221 1092q6 0 10 -2q8 -4 10 -15.5t-3 -17.5q-12 -24 -13 -25q-5 -9 -19.5 -29.5t-21.5 -31.5q0 -1 13.5 -17t13.5 -20q2 -9 -4 -19q-15 -15 -47 21l-4 -4q-3 -4 -4 -19q-1 -17 -2 -32q0 -6 -6.5 -6t-6.5 6v28q-13 -14 -23.5 -15t-15 5t-4.5 12q0 21 29 64q-7 7 -13.5 14
t-9.5 10l-5 5t-3 4t-1 3t-1 5q0 13 13 18t22 -4v3v30q0 8 8.5 8.5t11.5 -6.5q10 -34 11 -43q4 5 11 16t10.5 15.5t9 12.5t9 11t8.5 7.5t9 6t8 1.5z" />
    <glyph glyph-name="plus" unicode="+" horiz-adv-x="350" 
d="M317 733q12 1 14 -10.5t-7 -17.5q2 -4 2 -5q-2 -33 -4 -51q-3 -27 -6 -47q-1 -6 1 -6h2q13 2 41.5 1.5t38.5 -3.5q2 -1 5.5 -3t5.5 -3t7.5 -2t8.5 -2q6 -2 5 -8.5t-7 -6.5q-7 0 -27 -4q-5 -1 -18 -0.5t-29 1t-39 -0.5q-19 -104 -26 -131q-1 -6 -8 -5t-7 7q-5 52 2 125
q-6 -1 -16.5 -3t-19 -3t-15.5 0q-9 0 -11.5 9.5t5.5 13.5q13 7 51 12h3q4 0 5 8v8q3 36 9 78q2 13 3 18t4.5 14t9.5 12.5t15 4.5h2z" />
    <glyph glyph-name="comma" unicode="," horiz-adv-x="163" 
d="M199 563q16 0 16 -18q8 -64 -18 -111q-11 -18 -24 -13t-7 28q1 9 4.5 21t5.5 19q4 18 4 56q0 8 6 13t13 5z" />
    <glyph glyph-name="hyphenminus" unicode="-" horiz-adv-x="440" 
d="M227 598q45 0 141.5 -5t131.5 -11q7 -2 5.5 -9.5t-7.5 -7.5q-47 -2 -140 2h-104q2 -4 -2 -8q-13 -2 -41 12q-9 5 -6 15t14 12h8z" />
    <glyph glyph-name="period" unicode="." horiz-adv-x="161" 
d="M186 528q16 0 24.5 -12t0.5 -33l-10 -10q-25 -9 -38 7.5t-5 29.5q6 18 28 18z" />
    <glyph glyph-name="slash" unicode="/" horiz-adv-x="360" 
d="M334 1126q10 -2 17.5 -10t4.5 -18q-4 -13 -41 -101q-81 -195 -150 -440t-93 -395q-2 -14 -18 -9q-12 5 -11 17q8 35 23.5 105.5t23.5 105.5q53 220 128 456.5t97 276.5q6 12 19 12z" />
    <glyph glyph-name="zero" unicode="0" horiz-adv-x="407" 
d="M342 993q58 0 88 -53q36 -62 30 -150.5t-35 -174.5t-71 -152q-17 -25 -30.5 -41t-38.5 -28.5t-49 -4.5q-51 17 -60 117q-5 51 -2.5 87.5t5.5 58.5l3 22q-20 35 -18 82.5t17 93t47 83.5t73 54q18 6 41 6zM352 967q-41 0 -67 -29q-62 -72 -68 -150q17 37 27 54
q8 13 21.5 12t19.5 -11.5t0 -25.5q1 0 -2 -6t-9.5 -20t-13.5 -31.5t-16 -44t-15 -53.5q-7 -34 -11.5 -73t-5 -83.5t13 -72t40.5 -23.5q36 6 78.5 71.5t70.5 150t28.5 174.5t-40.5 138q-23 23 -51 23z" />
    <glyph glyph-name="one" unicode="1" horiz-adv-x="274" 
d="M270 985q8 0 14 -5t5 -13q-4 -33 -27 -107t-53.5 -197t-50.5 -268q-1 -6 -3 -19.5t-4 -23.5t-6 -18q-2 -6 -8 -6.5t-8 6.5q-8 37 8.5 173.5t34.5 223.5q19 89 43 157q5 14 4 15q-1 0 -8 -5q-48 -39 -113 -58q-6 -1 -9 3t-2.5 9t5.5 6q92 24 144 88q2 4 6.5 12t7.5 13.5
t4 5.5q5 8 16 8z" />
    <glyph glyph-name="two" unicode="2" horiz-adv-x="542" 
d="M305 991q49 0 78 -33q33 -36 37.5 -95t-14.5 -123.5t-48 -124.5t-63 -109q15 -6 38 -18.5t39.5 -21.5t41.5 -18.5t43 -9t43 5.5q4 2 7.5 -1t4 -7.5t-3.5 -7.5q-26 -24 -60.5 -24.5t-60.5 11t-63.5 32t-51.5 26.5q-83 -106 -163 -111q-50 -3 -66 34q-9 20 0 46
q17 51 81 72.5t138 1.5q104 151 117 281q10 84 -17 124.5t-71 29t-84 -65.5q-14 -14 -14 -31q0 -2 2 -2q3 0 4 -2q8 0 14 -6q7 0 6 -13q0 -16 -18 -20h-2q-32 -3 -47 25.5t12 70.5q60 84 141 84zM180 494q-76 0 -106 -52q-19 -32 6 -45q33 -17 89 20q37 25 71 68
q-40 9 -60 9z" />
    <glyph glyph-name="three" unicode="3" horiz-adv-x="446" 
d="M442 991q28 0 48 -17.5t20 -45.5q-1 -37 -37.5 -87t-75.5 -87q62 -13 90.5 -50.5t23 -81t-35.5 -86.5t-76 -69q-75 -38 -141.5 -6.5t-69.5 100.5q0 5 3 8.5t7 4.5t8 1t7 -2.5t4 -7.5q4 -26 26 -45.5t50 -25.5q39 -9 80 11t65 53t31.5 70t-20.5 62q-27 25 -97 29
q-13 2 -18.5 14t4.5 21q40 36 86 93t43 83q-6 23 -32 20t-56 -20t-31 -27q2 -2 3 -4.5t1 -3t2 -0.5q6 0 6 -6q-3 -11 -17 -12.5t-21 6.5q-29 30 16 67.5t96 40.5h8z" />
    <glyph glyph-name="four" unicode="4" horiz-adv-x="610" 
d="M545 1006q8 0 13.5 -6t2.5 -15q-11 -39 -53 -112.5t-74 -118.5q-20 -30 -38 -55q-8 -9 -6 -9h2h5q68 -7 123 -20q20 60 53 133q20 39 37 47q13 5 27 -0.5t18 -18.5q2 -6 -0.5 -14.5t-4.5 -13.5t1 -8q2 -3 -2 -4q-14 6 -14 20q0 1 -1 3t-1 3h-4q-9 -3 -33 -64t-35 -94
q25 -8 36 -13t19.5 -11.5t10.5 -7.5q8 -5 4 -13.5t-13 -7.5q-4 2 -9 3t-11.5 1.5t-9.5 1.5q-11 3 -16.5 5.5t-22.5 7.5q-28 -92 -45 -186.5t-21 -104.5q-2 -6 -8 -6.5t-8 6.5q-10 43 6.5 141t36.5 160q-72 19 -150 22q-43 -50 -100 -86t-80 -4q-22 33 22 74.5t126 48.5
q23 27 47 60t42.5 62.5t36.5 59.5t31 53.5t23 41.5t16 27t8 7q5 5 13 5zM297 653q-39 -5 -63.5 -24t-28.5 -35q0 -4 0.5 -5t5.5 1q28 5 86 63z" />
    <glyph glyph-name="five" unicode="5" horiz-adv-x="528" 
d="M295 967q3 0 6.5 -3t3.5 -6q0 -1 1 -4t1 -4q175 -8 207 -12q9 -2 7.5 -10t-9.5 -8q-54 -3 -209 4q-6 -19 -21 -70.5t-12 -56.5q4 -7 18.5 -8t30.5 0t35 -3q54 -12 89 -54.5t38 -96.5q2 -60 -32 -108.5t-83.5 -70.5t-107 -19.5t-98.5 36.5q-30 24 -34 62.5t11 74t41 62.5
q5 5 12 -0.5t3 -12.5q-52 -88 -25.5 -134t101 -45t124.5 50q37 38 43 85.5t-17 85t-65 49.5q-13 3 -51 2t-49 8q-8 5 -13.5 11t-7.5 13t-3 12.5t1 15.5l3 15t5 17.5t5 17.5q6 31 20 62q-16 2 -49 2q0 -4 -2 -4q-26 -4 -76 8q-7 2 -9 9t1.5 13t11.5 6q48 -2 99 -4q37 -2 40 3
l2 2t3 2.5t4 3.5q1 0 3 1t3 1z" />
    <glyph glyph-name="six" unicode="6" horiz-adv-x="292" 
d="M240 979q16 0 24 -8q11 -8 13 -22t-11 -21q-8 -4 -8 2q-4 4 -12 4q-11 -6 -35 -53t-37 -90q-42 -136 -24 -246q51 47 90 37q25 -8 43 -37q11 -29 7 -61.5t-16 -53.5q-14 -23 -40 -29.5t-54.5 10t-44.5 56.5q-2 -2 -10 -14q-3 -3 -8.5 -4t-9.5 1.5t-3 8.5q2 32 17 53
q-23 94 -20.5 171.5t24.5 139.5t44.5 98t39.5 48q13 10 31 10zM231 553q-32 0 -71 -53q9 -40 29 -59t39 -14.5t28 26.5q15 37 7.5 68t-32.5 32z" />
    <glyph glyph-name="seven" unicode="7" horiz-adv-x="454" 
d="M428 997q13 0 18 -10q2 -10 2.5 -13.5t-8 -15t-18.5 -21t-29 -31.5t-38.5 -47.5t-47 -68.5t-55.5 -94q37 3 67 -2q7 -2 7 -9.5t-7 -10.5q-18 -5 -86 -10q-50 -94 -80.5 -162t-46.5 -94q-7 -10 -17.5 -5.5t-8.5 15.5q9 50 86 239q-6 -1 -19 -2t-20 -2q-25 -6 -31 13
q-5 14 7 17q1 1 3 1q26 4 74 8q67 153 152 240q-39 -1 -103.5 11.5t-97.5 12.5t-45 -10q-3 -3 -4 -8t1.5 -9t8.5 -5q12 -1 6 -10q-9 -14 -25 -7q-5 3 -10 8t-8 11t-3 13t2.5 14t9 13t15.5 10.5t23.5 7.5t32.5 3q29 0 111 -14.5t125 -5.5q11 8 18.5 12.5t16 8.5t14.5 7
q2 2 8 2z" />
    <glyph glyph-name="eight" unicode="8" horiz-adv-x="428" 
d="M375 991q31 0 54 -15t32.5 -46t3.5 -73t-37 -101t-86 -125q63 -63 36.5 -127.5t-90 -75.5t-106.5 27q-35 48 -24 121t55 126q-39 50 -34.5 103.5t44.5 101.5q72 84 152 84zM371 965q-50 0 -107 -54q-47 -43 -58.5 -92t25.5 -98q9 9 17 12q10 8 21.5 0t16.5 -24t-1 -33
q6 -4 12.5 -8.5t7.5 -5.5q3 4 17.5 25t18.5 26.5t16.5 24.5t17 27t14.5 24.5t14 27t10 25t9.5 27.5t5.5 26q3 29 -12 49.5t-45 20.5zM248 674q-31 -40 -45 -94t1 -94t62 -35q36 4 64 28t31 60t-42 79q-15 4 -18 17q-27 18 -35 22q-4 -1 -6 1.5t-2 5.5z" />
    <glyph glyph-name="nine" unicode="9" horiz-adv-x="393" 
d="M281 1008q56 0 71 -50q8 1 12.5 -3.5t6 -14t2 -16t0.5 -19.5v-6q6 -281 -106 -404q-64 -70 -137 -62q-58 7 -79 56q-1 2 -2 5q-2 5 2.5 6.5t7.5 -2.5q14 -22 38.5 -31t54 -1.5t58.5 29.5t54.5 68t38.5 109q12 53 27 198q-32 -55 -80 -109.5t-90 -76.5q-39 -19 -74 -5
t-42.5 59t34.5 126q37 66 95 105t108 39zM276 956q-24 0 -77 -32q-71 -50 -106 -125q-33 -69 0 -90q11 -8 30 -7q40 0 96.5 56t87.5 108q4 8 11 20.5t10 18.5q-4 0 -8.5 4.5t-4.5 8.5q0 16 -10 26q-10 12 -29 12z" />
    <glyph glyph-name="colon" unicode=":" horiz-adv-x="219" 
d="M268 655q4 0 6 -2q7 -3 11 -6q10 -7 5.5 -22t-20.5 -19q-12 -4 -21.5 5.5t-6.5 23.5q8 20 26 20zM236 532q14 2 19 -10t-9 -24q0 -2 -3.5 -5t-9 -5.5t-12.5 1.5q-10 9 -7.5 22.5t13.5 18.5q2 2 9 2z" />
    <glyph glyph-name="semicolon" unicode=";" horiz-adv-x="176" 
d="M190 655q22 1 25.5 -22t-16.5 -29q-22 -3 -30 13.5t5 31.5q6 6 16 6zM193 537h4q8 -2 8.5 -12.5t-5 -23.5t-12 -25t-12.5 -21q-8 -10 -15 -15t-11 -6h-5q-1 0 -4.5 -2t-5.5 -2q-2 -2 -4.5 -0.5t-3.5 4t2 4.5q6 5 8 11.5t17 23.5q20 35 26 53q0 11 13 11z" />
    <glyph glyph-name="less" unicode="&#x3c;" horiz-adv-x="327" 
d="M383 717q11 0 16.5 -9t-0.5 -18q-14 -22 -39.5 -46.5t-44 -38.5t-57.5 -42q30 -19 49 -35q28 -24 47.5 -51t3.5 -39q-10 -7 -19 -0.5t-24.5 28.5t-29.5 36q-48 38 -66 47q-7 3 -8 11.5t4 12.5q30 27 63 59t54 51t43 32q2 2 8 2z" />
    <glyph glyph-name="equal" unicode="=" horiz-adv-x="446" 
d="M305 676h68q21 0 43.5 -0.5t33 -0.5t21.5 -0.5t16 -1.5t9.5 -2.5t9.5 -4.5q3 -2 3 -6t-3 -5q-14 -8 -64 -8q-64 -1 -119 -5t-87 -5q-17 0 -17 18.5t17 20.5h69zM223 588q37 0 197 -8q54 0 65 -9q5 -3 5.5 -9t-5.5 -9q-10 -6 -65 -6h-201q-20 0 -20 20.5t20 20.5h4z" />
    <glyph glyph-name="greater" unicode="&#x3e;" horiz-adv-x="282" 
d="M143 735q9 0 15 -6q52 -43 143 -104q9 -5 9 -16t-9 -15q-43 -24 -100 -78q-25 -22 -43.5 -41t-25 -26.5t-13.5 -12.5t-17 -6q-12 -1 -15 12t3 21q13 22 57.5 63.5t110.5 81.5q-33 20 -59 38.5t-35 26.5t-10 7q-4 -4 -11 0q-14 9 -18 31q-4 10 2 17t16 7z" />
    <glyph glyph-name="question" unicode="?" horiz-adv-x="354" 
d="M203 1110q37 0 66.5 -15.5t47 -51.5t16.5 -88.5t-29 -134t-85 -179.5q-7 -12 -30.5 -50t-43 -72t-28.5 -58q-4 -10 -8 -22l-5.5 -16.5t-4 -10t-5 -8.5t-6.5 -7q-3 -3 -9 -3.5t-9 3.5q-9 9 -11 15q-4 23 7 55q5 22 12.5 42.5t19.5 43t19.5 35t23.5 38.5t21 33
q142 245 135 345q-2 33 -21.5 54.5t-48 26.5t-59.5 -1t-61.5 -29t-49.5 -58q-18 -31 -15 -75t28 -68q9 -9 41 -25q11 -5 0 -17q-10 -10 -31 -9q-43 3 -64 37.5t-15.5 82t32.5 89.5q29 45 75 70.5t95 27.5zM80 371q15 2 22.5 -8.5t-0.5 -32.5q-6 -12 -18 -15q0 1 -2.5 0.5
t-8.5 0t-10 3.5l-8 7q-4 7 -4 12q-1 16 8 24.5t21 8.5z" />
    <glyph glyph-name="at" unicode="@" horiz-adv-x="575" 
d="M428 854q92 0 137 -88q30 -73 13.5 -154.5t-62.5 -134.5q-50 -56 -91.5 -35.5t-41.5 99.5q-38 -54 -68 -66q-30 -11 -43 12q-4 7 -5 15.5t0 22.5t1 16q2 27 13 53q20 47 57.5 79t71.5 13q20 -11 20.5 -35t-14.5 -26q6 -3 6 -11q-12 -60 -0.5 -113t53.5 -24
q46 33 69.5 97.5t12.5 130.5t-59 98q-31 18 -71 19.5t-86 -21t-86 -56t-72 -86.5t-44 -112q-20 -102 24.5 -176t121.5 -88q58 -10 118.5 24.5t96.5 89.5q8 13 18 31.5t23 40.5q3 6 9.5 4t6.5 -8q-8 -72 -80.5 -139.5t-154.5 -73.5q-66 -3 -126.5 41t-82.5 119
q-25 83 -1.5 162t73 141t116 100t127.5 39zM387 641q-13 2 -46 -38.5t-40 -76.5v-22q4 -13 36 16q24 22 42 51q6 11 8.5 17t3 7.5t2 7t6.5 15.5q0 7 7 7q-13 4 -13 14l-7 2h1z" />
    <glyph glyph-name="A" unicode="A" horiz-adv-x="831" 
d="M862 1092q10 0 18 -8.5t5 -18.5q-10 -31 -92 -208t-121 -298q133 5 209 -10q4 -2 3.5 -6t-5.5 -6q-20 -1 -81 3t-130 1q-87 -279 -45 -521q1 -5 -3 -8t-8.5 -2t-5.5 6q-50 231 25 525q-22 -1 -107 -11q-273 -403 -420 -434q-43 -9 -72.5 16.5t-35.5 69.5q-8 51 24 178
q31 101 83 185.5t90 113.5q9 8 18.5 1t3.5 -19q-19 -29 -25 -39q-2 -2 -6 -2q-133 -165 -161 -360q-10 -64 10.5 -95t56.5 -28q132 8 412 409q-88 -11 -150 -26q13 0 19 -2q4 -1 2 -4q-23 -5 -84 -9q-8 0 -8.5 8t6.5 11q127 34 229 45q61 89 115 172.5t91 145t61.5 103.5
t43 76t19.5 35q3 11 16 11zM735 848q-2 -1 -19 -28t-67 -103.5t-110 -165.5q34 4 98 8q20 75 45.5 148.5t39.5 107t13 33.5z" />
    <glyph glyph-name="B" unicode="B" horiz-adv-x="851" 
d="M563 1130q110 0 144 -57q25 -41 12 -90t-47.5 -96.5t-85.5 -93.5t-101.5 -81t-95.5 -59q95 -2 179 -37.5t118 -105.5q134 18 207 70q6 5 10 -5q4 -8 -2 -12q-68 -46 -207 -69q45 -121 -102 -256q-95 -88 -218.5 -125.5t-228.5 -18.5q-72 13 -110.5 59t-32.5 95t46.5 97
t92.5 79q45 25 78 35q4 25 29 153q-7 14 4 25q22 99 58.5 213.5t60.5 142.5q8 7 20 8t21.5 -12t5.5 -35q0 -4 -6 -10q-53 -123 -99 -282q117 51 215.5 130t143.5 148q15 23 22 48t2.5 52t-24.5 45q-33 28 -95.5 28.5t-119 -16t-107.5 -40.5q-114 -56 -199.5 -146
t-119.5 -172q-18 -51 -9.5 -83.5t35.5 -47.5q7 -4 3.5 -12.5t-11.5 -5.5q-44 11 -57 59q-23 69 55 180q52 74 120 133t137 95t135.5 54.5t123.5 18.5zM381 616q-56 -4 -84 -8q-21 -75 -31 -129q0 -1 -1 -3t0 -2.5t6 1.5q5 1 9 2t14 3l20 4t26.5 4t34.5 4q45 4 138.5 7
t139.5 7q-33 56 -108.5 83t-163.5 27zM662 489q-24 -3 -175.5 -9t-226.5 -27q-12 -60 -19 -104.5t-14 -96.5t-14 -98q-2 -7 -8 -5.5t-8 7.5v94q6 89 20 188q-101 -41 -151 -104q-44 -56 -39 -105q3 -50 55 -82q40 -24 102.5 -27t121 9t106.5 33q49 22 99 57t92.5 80.5
t59 93.5t-0.5 96z" />
    <glyph glyph-name="C" unicode="C" horiz-adv-x="653" 
d="M426 1087q71 -1 106 -51.5t7 -91.5q-11 -19 -32.5 -14t-21.5 28v7q-1 2 -2 11.5t-5.5 17.5t-14.5 14q-48 31 -149 -26.5t-181 -170.5q-71 -98 -111.5 -204.5t-46.5 -192.5t7.5 -152.5t44.5 -99.5q23 -24 56.5 -30.5t64 0t61.5 22.5q121 60 222.5 166t205.5 255
q7 10 17 2.5t1 -16.5q-100 -129 -171 -209.5t-156 -146.5q-82 -65 -149.5 -88.5t-114 -7t-75.5 62t-40 117.5q-21 133 1 258t71.5 216t116 163t134.5 111.5t127 47.5q5 0 14 1t13 1z" />
    <glyph glyph-name="D" unicode="D" horiz-adv-x="841" 
d="M217 1100q14 0 23 -13l8 -16q7 -14 1 -24.5t-20 -12.5q-84 -261 -108 -518q8 0 12 4q44 154 126 293t165 212t135 52q34 -13 50 -65.5t18 -106.5q0 -64 -17 -160t-49 -188q99 4 162 21q5 2 7.5 -1t1.5 -7t-5 -5q-66 -18 -170 -22q-29 -79 -69.5 -154t-94 -145
t-123 -119.5t-143.5 -65.5q-124 -27 -217 38q-79 55 -87 140q-11 105 94 186q60 46 151 77q7 232 63 432q17 67 29 97t39 63q5 8 18 8zM524 1057q-32 1 -83 -42.5t-105 -113.5t-105 -171.5t-79 -205.5q142 33 337 33q36 98 55.5 211.5t18.5 191t-20 91.5q-9 6 -19 6z
M483 543q-197 0 -336 -35q-30 -130 -36 -281q0 -12 -14 -14t-17 10q-16 91 -12 262q-86 -32 -154 -86t-72 -120q-5 -71 48.5 -126t146.5 -51q105 3 204 86t167 195q42 69 75 160zM129 504q-4 -2 -10 -2v-1l-4 -55q1 3 6 23q5 21 8 35z" />
    <glyph glyph-name="E" unicode="E" 
d="M399 1110q9 0 17 -4q3 -1 32 -1.5t75 -3.5t83 -11q7 -2 6.5 -9.5t-8.5 -7.5q-20 1 -75 4.5t-97 3.5q2 -12 -35.5 -75.5t-95.5 -168.5t-92 -194q12 1 33.5 3t33.5 3q86 5 95 -4q7 -3 0 -10q-4 -4 -9 -5t-16.5 -1.5t-26.5 -1t-47 -3t-71 -6.5q-61 -174 -53 -336
q8 -156 79 -186q55 -24 140 41q53 41 105.5 107t88 122t91.5 117t118 97q4 2 7 0t3 -5.5t-4 -5.5q-53 -30 -100.5 -79t-77.5 -94.5t-73.5 -107t-80.5 -102.5q-69 -75 -131 -103t-110.5 3.5t-69.5 126.5q-35 157 27 401q-36 -5 -142 -27q-20 -4 -20 3v2q2 16 78 31
q68 13 90 16q64 245 194 438q-245 -23 -299 -71q-13 -12 -15 -21t2 -11t-1 -5q-12 -4 -17 5.5t-3 20.5q6 28 50 50t105.5 33.5t110 17.5t88.5 8q9 6 18 6z" />
    <glyph glyph-name="F" unicode="F" horiz-adv-x="747" 
d="M686 1153q19 0 30 -14t1 -37q-15 -35 -21 -47q307 22 424 20q15 -1 15 -15t-15 -16q-45 -5 -163.5 -13.5t-280.5 -26.5q-42 -98 -59.5 -137.5t-42.5 -95t-66 -150.5q154 21 192 14q6 0 5.5 -6t-5.5 -8q-14 -5 -35 -8t-69 -9.5t-102 -15.5q-57 -130 -232 -547
q-6 -12 -20.5 -5.5t-10.5 19.5q59 174 195 523q-48 -9 -103 -22t-65 -15q3 -6 -2 -11q-39 -20 -78 -6q-10 4 -10 16t10 15q69 21 262 55q2 7 4.5 12.5t4 11.5t4.5 19q51 198 36 267q-10 37 -32 59q-111 -14 -216.5 -28.5t-149.5 -20t-79 -6.5q-17 0 -18.5 16t12.5 21
q177 57 253 69q94 16 153 -2q158 18 209 21q7 17 20 47t18 41q10 16 27 16zM317 1016q-6 0 -18 -2l-55 -8h4q58 10 69 10zM596 995q-37 -6 -115 -14q23 -29 28.5 -72.5t1 -75t-16.5 -83.5q42 105 102 245z" />
    <glyph glyph-name="G" unicode="G" horiz-adv-x="768" 
d="M512 1061q67 0 114.5 -39.5t47.5 -93.5l-2 -8q-6 -35 -27 -62q-23 -22 -33 -27q-9 -6 -17.5 5t1.5 18q18 16 22.5 38.5t-5 42.5t-28 37t-46.5 22t-60 -3q-77 -20 -186 -105.5t-176 -189.5q-16 -26 -32 -54.5t-32 -67t-25 -72t-8 -66t17 -53.5q38 -53 174 14
q210 97 420 344q5 6 13 23.5t16.5 26t21.5 4.5q18 -4 18 -23q-8 -95 -40 -197.5t-80.5 -194.5t-111 -172t-131.5 -129t-141 -67t-139 15q-42 18 -62.5 52t-15 65.5t30.5 45.5q5 4 9.5 1.5t4.5 -7.5t-4 -8q-19 -18 -20 -48.5t36 -60.5t97 -32q101 -2 217 106q35 33 65.5 71.5
t52.5 70.5t44.5 79t34.5 73t29 77t22 67.5t19.5 68.5t15.5 57q-67 -67 -100.5 -99.5t-92.5 -83.5t-112 -86q-218 -144 -295 -88q-32 22 -39 68q-13 66 33 180q83 201 235 338q108 96 191 119q27 8 59 8z" />
    <glyph glyph-name="H" unicode="H" horiz-adv-x="989" 
d="M578 1112h8q12 -3 18.5 -15t3.5 -24q-47 -174 -133 -440q129 6 311 2q62 279 111 430q5 18 23 18t24 -18q22 -75 -37 -168q-4 -2 -6 2q0 13 2 19q-45 -147 -80 -283q150 -3 232 -19q6 -1 7.5 -6.5t-1 -10t-8.5 -3.5q-12 1 -41.5 3.5t-49.5 4t-59.5 2.5t-85.5 0
q-33 -136 -55 -249t-31.5 -172t-15.5 -79q-2 -6 -7.5 -7.5t-10.5 2t-5 10.5q1 50 34.5 229t53.5 268q-107 2 -315 -2q-88 -271 -170 -508q-3 -9 -11.5 -11t-14.5 3t-3 14q56 181 56 336q0 59 -16 95.5t-62 58.5q-39 -3 -234 -23q-13 -1 -14 12.5t10 16.5q39 13 61 19.5
t55 12.5t62 3.5t58 -12.5q125 8 180 10q16 56 56.5 205t70.5 252q6 22 29 22zM414 602q-18 0 -38.5 -1t-45.5 -2.5t-39 -2.5q31 -24 45 -62t13 -78t-3 -85q40 126 68 231z" />
    <glyph glyph-name="I" unicode="I" 
d="M322 1110q69 -1 276 -33q19 10 35 -6q111 -18 195.5 -21.5t118.5 1.5t76 16.5t52 13.5q7 1 9.5 -4t-3.5 -10q-20 -16 -67 -27q-56 -14 -126.5 -14.5t-118.5 4.5t-128 17q-1 -11 -63 -205q-68 -217 -113.5 -386t-61.5 -236t-26 -89q-5 -7 -13 -4.5t-8 10.5q0 53 88.5 415
t137.5 505q-75 12 -130.5 17.5t-130 6.5t-138 -15.5t-111.5 -49.5q-58 -41 -42 -83q10 -25 34 -27q13 1 22 9q4 3 9 0.5t3 -6.5q-10 -28 -41 -32.5t-51 16.5q-27 29 -22.5 64.5t30.5 62.5q34 34 106.5 57.5t137.5 28.5q40 4 64 4z" />
    <glyph glyph-name="J" unicode="J" horiz-adv-x="595" 
d="M705 1092q1 -2 2 -5q-10 -12 -58 -31.5t-80 -29.5q-11 -93 -40.5 -201.5t-84.5 -279.5q80 23 152 37q5 0 5.5 -5t-3.5 -6q-18 -6 -69 -19.5t-91 -25.5q-81 -247 -198 -376q-90 -98 -170 -105q-33 -4 -62.5 10.5t-47 42.5t-22.5 64t11 80t53 86q34 40 78.5 71.5t106.5 57
t99.5 38t112.5 35.5q27 92 43 166.5t30 160t28 149.5q-27 -6 -91.5 -19t-100.5 -22t-86.5 -28.5t-88.5 -45.5q-38 -23 -53 -51q-22 -33 -2 -62q6 -10 31 -22q0 -2 20 -2q3 2 3 -2q0 -2 -1 -4q-6 -7 -9.5 -9.5t-7 -3.5t-5.5 -2q-1 0 -9 -4q-18 -3 -43 12q-41 28 -26 95
q9 35 40 63t70.5 44.5t93 30.5t97.5 21t95 15t75 14q4 12 4 18q3 12 14.5 19.5t22.5 5.5q10 -2 18.5 -9.5t9.5 -17.5q36 11 66 24t45 20t23 8zM393 512q-69 -21 -113 -36.5t-103 -42t-103.5 -61.5t-75.5 -79q-54 -75 -35 -149q15 -58 67 -72q77 -20 171 79q33 34 65 82
q74 112 127 279z" />
    <glyph glyph-name="K" unicode="K" horiz-adv-x="614" 
d="M373 1114q12 2 22.5 -7t10.5 -24q2 0 -3.5 -33t-29.5 -148t-64 -286q134 131 279 322q17 22 33.5 44t27.5 37t21 29.5t16.5 23t13 16t10.5 11t8.5 5.5t9 1.5t9.5 -3.5q9 -6 12.5 -17t-1.5 -18q-4 -8 -70.5 -89t-178 -203t-200.5 -202q-17 -70 -33 -137q95 -20 199 -68
t160 -104q6 -6 -1 -13t-14 -3q-13 7 -57.5 32.5t-75 41.5t-91 38t-128.5 37q-19 -80 -38 -164q-10 -46 -13 -54.5t-12 -12.5q-6 -3 -11.5 3.5t-5.5 14.5q0 1 5.5 31t15.5 85t18 106q-134 21 -168 18q-9 -1 -45 4q-6 0 -7.5 6t5.5 8q28 5 49.5 8t29.5 3t15.5 1.5t14.5 4.5
q55 28 131 96q2 11 25 146.5t44 247t31 143.5q8 22 31 22zM238 522q-54 -43 -99 -69q23 0 84 -9q2 11 7.5 37.5t7.5 40.5z" />
    <glyph glyph-name="L" unicode="L" horiz-adv-x="356" 
d="M170 1079q12 0 22.5 -10.5t8.5 -21.5q-6 -42 -30.5 -172t-64 -341t-71.5 -405q125 117 325 137q84 8 168 1.5t136 -21.5q4 -2 4 -7.5t-4 -5.5q-8 1 -67 8.5t-106 8.5t-115 -2.5t-135.5 -25t-127.5 -60.5q-20 -13 -36 -25.5t-25 -22.5t-14 -16.5t-8.5 -12.5t-4.5 -7
q-6 -6 -17 -1.5t-10 13.5q18 209 59.5 516t77.5 449q8 24 33 24h2z" />
    <glyph glyph-name="M" unicode="M" horiz-adv-x="1009" 
d="M915 1188q40 0 50 -46.5t-6 -129t-38.5 -171t-48 -199.5t-34.5 -187q-19 -211 45 -398q2 -5 -1 -8.5t-7.5 -3t-6.5 3.5q-132 292 -2 836q2 6 13.5 50t18 70.5t12.5 65t5 62.5q-2 20 -4.5 22.5t-21.5 -2.5q-44 -13 -93.5 -63t-90 -113.5t-81 -142.5t-66.5 -139.5
t-46 -114.5q-7 -37 -16.5 -71t-12.5 -50q-2 -12 -13 -15.5t-21 3t-9 18.5q0 6 3 64.5t10 113.5q39 322 36 336l-6 1.5t-6.5 -3t-7 -6t-7 -7.5t-5.5 -6q-48 -60 -85.5 -139t-63.5 -172t-41 -165.5t-31 -170.5q0 -121 -11 -153q-3 -9 -12 -9t-14 9q-3 11 -11 130t-18.5 262.5
t-19.5 201.5q-30 199 -119 247q1 -7 -8 -8q-17 -3 -22 14q-1 4 -1 9q0 19 16.5 27.5t46 -3.5t60.5 -47q28 -33 48.5 -80t31.5 -105t16 -101t10 -105q3 -47 6 -185q1 -8 2 2q12 62 13 68q59 286 194 494q4 7 17 25q29 29 63 12q13 -8 20 -21.5t8.5 -31t1.5 -30.5t-2.5 -31.5
t-2.5 -22.5q-26 -227 -27 -236q54 132 119 248q52 95 103.5 163t119.5 113q26 17 41 19q4 2 10 2z" />
    <glyph glyph-name="N" unicode="N" horiz-adv-x="778" 
d="M555 1126q10 0 14 -2q41 -10 54 -75q10 -52 0.5 -150t-24 -192t-16.5 -211.5t23 -208.5q16 -62 43 -94q36 -39 86 -51t96 18q5 3 10.5 0.5t7 -7t-2.5 -8.5q-60 -40 -122 -29t-106 60q-41 44 -65 103.5t-32.5 115t-6 132t8.5 129.5t17 133.5t15 119.5q8 88 12 115
q1 14 -1 26t-5.5 18t-7.5 12l-4 5q-13 12 -44 -10t-52 -45q-83 -86 -159 -235.5t-122 -294.5q-40 -125 -70.5 -268.5t-35.5 -208.5q0 -12 -11.5 -11.5t-13.5 11.5q-8 75 0.5 180t20.5 201t16.5 198t-15.5 206t-71 191q-12 22 9 36t36 -9q136 -193 78 -580q-15 -104 -28 -179
q-1 -9 -1 -8.5t1 6.5q34 154 85 296q50 145 130.5 292t168.5 226q47 47 84 47z" />
    <glyph glyph-name="O" unicode="O" horiz-adv-x="608" 
d="M451 1128q51 0 90 -26q29 -20 45 -51t18 -73.5t0.5 -69t-6.5 -72.5q-20 -181 -88 -343.5t-150 -259.5q-24 -28 -53.5 -50.5t-64 -38t-72 -15t-70.5 20.5q-12 9 -43 40q-21 26 -34 60t-15.5 62.5t-3.5 56t1 40t-1 15.5q-14 4 -14 18q-7 114 21.5 233.5t99 229t170.5 170.5
q90 56 170 53zM457 1106q-113 0 -218 -107.5t-151 -244.5q-25 -74 -37 -146q30 83 79 154.5t95 111.5q16 14 36.5 19.5t39.5 -4.5v2q9 -2 18 -18q6 -13 3 -27q-3 -10 -14.5 -14t-18.5 2q-7 -2 -17 -9l-10 -10t-22 -23t-28.5 -33t-34 -47.5t-34.5 -60.5q-62 -124 -70 -270
t52 -199q24 -20 57.5 -17t65.5 18t59 38q50 41 96 111t79.5 149t58 165.5t35.5 162.5t8.5 139t-19.5 96q-32 62 -102 62h-6z" />
    <glyph glyph-name="P" unicode="P" horiz-adv-x="673" 
d="M520 1176q44 0 81.5 -31.5t51.5 -79.5q14 -53 11 -119q-5 -83 -38 -161.5t-85 -137.5t-119.5 -100t-141 -48.5t-149.5 17.5q-28 -202 -104 -389q-4 -8 -11.5 -9.5t-13 3t-4.5 10.5q18 193 90 406q-35 20 -65 53q-9 12 0 20.5t20 -0.5q23 -16 49 -28q-1 53 1.5 75.5t-2 69
t-5 63.5t-7 59.5t-9 57.5l-9.5 57t-10 58q-4 21 9.5 32.5t30.5 7t22 -23.5q25 -83 32 -204q2 -32 1 -133q0 -11 2 -11q0 1 31 70q31 68 71 143q43 81 102.5 157.5t118.5 104.5q29 11 49 11zM496 1139q-73 -3 -162 -131q-96 -133 -191 -379q0 -34 -6 -64q102 -27 206.5 18.5
t175 146t77.5 222.5q4 98 -29 146q-33 41 -71 41zM74 412q-25 -108 -29 -129q18 65 29 129z" />
    <glyph glyph-name="Q" unicode="Q" horiz-adv-x="880" 
d="M598 1153q30 0 45 -1t35.5 -6.5t34.5 -17.5q61 -52 82 -155t6 -205q-11 -73 -41 -158q91 37 151 97q7 7 12 -1q4 -6 -1 -10q-35 -35 -62 -55q-53 -38 -112 -59q-42 -101 -115.5 -209t-143.5 -180q136 -35 216 -3q36 14 63 42t33 63q0 3 4 3t4 -3q-3 -79 -92 -121
q-98 -43 -246 2q-29 -27 -54.5 -45t-54 -29t-57 -6t-55.5 27q-46 39 -57 129q-80 6 -146 -23q6 0 8 2q4 0 4 -4q-11 -16 -30 -16.5t-29 18.5q-7 18 8 27q73 48 180 31q-20 186 50 366q4 9 7.5 17t5.5 13t4 9.5t3.5 6.5t2 3.5t1 2t0.5 1.5v1.5t-1 2t-1 3.5q-25 85 17 174.5
t122 169.5q93 93 199 96zM608 1133q-69 0 -141 -60q-66 -57 -116 -140t-46 -155q5 8 15 22t12 17q16 23 22.5 32t24 22t35.5 14q13 1 26 -7t19 -20q13 -28 -6 -46q-17 -16 -30 0q-2 2 -3 5q-46 -49 -88 -127q26 -40 82 -67q33 -18 75.5 -28t67.5 -12t70 -3q49 0 114 24
q56 151 51 268.5t-56 188.5t-128 72zM305 635q-85 -188 -82 -354q48 -11 132.5 -42t113.5 -40q67 59 141 163.5t119 212.5q-25 -10 -111 -28q-80 -16 -170 6.5t-143 81.5zM225 248q12 -109 82 -125q56 -12 142 59q-21 7 -68.5 24t-82 27t-73.5 15z" />
    <glyph glyph-name="R" unicode="R" horiz-adv-x="598" 
d="M477 1130q30 0 49 -19.5t23 -55.5q8 -62 -36 -142t-116 -153t-147 -133t-139 -97q-10 -39 -15 -63q21 -24 47.5 -62.5t46.5 -67t44 -56t50 -42.5t54 -14q71 2 143 94q90 113 168 259q2 3 5.5 2.5t5 -3.5t-0.5 -6q-71 -133 -118 -206q-2 -3 -13 -19t-14 -20.5t-13 -18.5
t-15 -19.5t-14.5 -16.5t-17 -17.5t-17 -14.5t-19.5 -14q-37 -24 -74 -26t-65 9.5t-62 43.5t-55 57t-55 69q-15 20 -23 30q-29 -142 -35 -240q-2 -12 -15 -14.5t-16 10.5q-10 65 -11.5 147.5t1 118.5t-1.5 53q-10 3 -12 14t8 19l12 6q14 180 55.5 337t77.5 218q32 54 76 33
q13 -7 9 -24t-19 -15q-6 0 -31 -63q-46 -128 -75 -231.5t-46 -223.5q10 8 29 21t25 18q73 257 177.5 396.5t184.5 141.5zM459 1100h-15q-52 -12 -104.5 -69.5t-93 -137.5t-69.5 -152.5t-48 -136.5q258 196 341 357q47 90 18 126q-10 13 -29 13zM96 522q-6 -3 -18.5 -10
t-18.5 -10q13 -8 27 -25q2 18 10 45zM49 449q-6 -99 -4 -160q4 22 13.5 66t13.5 67q-3 4 -11 13t-12 14z" />
    <glyph glyph-name="S" unicode="S" horiz-adv-x="493" 
d="M330 1069q48 -2 85 -26t54 -68q10 -27 1 -57t-34 -44q-10 -7 -19 0.5t-7 20.5v5q1 4 1.5 11t0.5 13q-4 58 -59 71q-59 14 -121 -30q-70 -48 -82 -134q-3 -18 -2.5 -37.5t1 -34.5t6.5 -37t8 -33t12.5 -35.5t13 -31.5t17 -34.5t16.5 -31t18.5 -33.5t17.5 -31q125 69 262 96
q9 2 11 -8q2 -8 -5 -9q-127 -30 -256 -100q33 -62 50.5 -111.5t15 -109t-38.5 -103.5q-27 -34 -69 -56t-86 -27t-83.5 3t-65 35t-26.5 68q-1 43 25.5 90.5t71 88.5t87 72.5t85.5 55.5q-7 13 -30 53.5t-33.5 60t-26.5 53t-24.5 62.5t-12.5 58q-11 71 5 130.5t50.5 96.5
t78 57.5t87.5 20.5zM248 457q-4 0 -6 -2q-65 -40 -116.5 -83t-82 -82.5t-44 -75.5t-6 -64t35.5 -44q26 -16 65.5 -18t80 11.5t74 38.5t50.5 69t8 98q-13 72 -59 152z" />
    <glyph glyph-name="T" unicode="T" horiz-adv-x="530" 
d="M543 1114q13 0 22.5 -10.5t5.5 -26.5l-6 -18q63 5 381 35q8 1 11.5 -5.5t0 -13.5t-11.5 -8q-244 -26 -389 -35q-16 -57 -53 -170q-46 -147 -63 -209t-16.5 -70.5t-26.5 -108t-89 -304.5q-5 -26 -22 -82q-1 -6 -8 -10t-13 -2q-8 2 -11 6.5t-1 22t7 41t17 74.5q4 19 7 30
t7.5 31t8.5 38q54 246 145 555q0 104 -63 144q-4 2 -8 2q-137 -8 -371 -12q-4 0 -5.5 2.5t-0.5 5.5t4 4q54 16 115.5 26.5t131.5 12.5t113 -17q22 2 69 5.5t71 5.5q2 7 7 20.5t7 20.5q6 20 27 20zM248 1047q-92 -3 -180 -23q93 5 256 16q-40 7 -76 7zM494 1026
q-31 -2 -66 -3l-25 -3l2 -1q3 -2 5 -3q38 -34 47 -96q1 -8 2 -7q1 0 6 18q13 47 29 95z" />
    <glyph glyph-name="U" unicode="U" horiz-adv-x="782" 
d="M618 1133h9q19 -1 24 -20t-4 -32q-1 -2 -5.5 -6.5t-10.5 -13.5q-18 -36 -65.5 -183t-93 -337.5t-42.5 -286.5q3 -67 25 -121q20 -58 69 -12q23 22 59 85.5t56 108.5q4 8 33 72.5t52.5 106.5t55.5 84q3 4 7.5 2.5t6 -5.5t-0.5 -8q-42 -52 -85 -139t-70.5 -157t-64.5 -127
t-75 -66q-61 -14 -84 83q-33 142 14 435q23 144 55 250q-44 -77 -102 -181.5t-84 -150.5t-62.5 -104.5t-72.5 -108.5q-27 -39 -43.5 -59.5t-41.5 -40.5t-48 -23q-20 -3 -38.5 7t-27.5 28q-19 32 -20 94t12.5 137.5t33.5 157t46 161t48 140.5t40 105q3 7 8 18t8 18t8 17
t8 15.5t8.5 13.5t9 11t9 7.5t10 3t11.5 -1.5q26 -9 23 -34q-3 -21 -53 -140q-60 -144 -110 -287q-6 -18 -16.5 -47.5t-16 -46t-15 -46t-14 -46t-11 -46t-7.5 -47.5t-4 -48.5t1 -49.5q4 -51 30.5 -61t61.5 22q58 49 167 222t190 324t93 184q40 116 57 143q7 10 15 18
q9 9 24 9z" />
    <glyph glyph-name="V" unicode="V" horiz-adv-x="598" 
d="M338 1235q23 0 39 -8q43 -18 64.5 -70t23 -113t-9.5 -140t-24 -135.5t-30 -115.5q75 -56 166 -75q5 -1 6 -5.5t-2 -8.5t-8 -3q-95 22 -168 74q-126 -412 -260 -506q-74 -53 -141 4q-49 40 -70 156t-12.5 254t30.5 269.5t58 218.5t70 85q16 0 24 -12t3.5 -24.5
t-17.5 -14.5q-37 -99 -64.5 -233.5t-39 -256.5t-9 -225.5t20.5 -148.5q13 -33 41.5 -51.5t60.5 -8.5q47 14 95.5 74t87.5 144t65 153t45 133q-74 57 -118 137t-52 156.5t3.5 144.5t45 109.5t76.5 42.5zM344 1221q-32 2 -59.5 -24t-44.5 -77q-37 -113 2.5 -243t146.5 -215
q104 376 35 503q-29 56 -80 56z" />
    <glyph glyph-name="W" unicode="W" horiz-adv-x="950" 
d="M774 1171v-16q0 -4 13 6q8 6 12 6q21 -6 36.5 -20t23 -36t12 -41t4.5 -50t-0.5 -47.5t-2.5 -48.5q-10 -167 -57 -308q60 -41 125 -38q7 1 7 -6q1 -9 -7 -11q-68 -3 -129 39q-27 -80 -70.5 -169.5t-109 -175.5t-125.5 -108q-40 -14 -81.5 -5.5t-78.5 39t-63.5 84
t-36.5 129t2 173.5q6 45 18 93q3 13 2.5 13.5t-10.5 -13.5q-63 -93 -160 -197q-71 -76 -120 -33q-51 45 -47 182q5 139 69 301q42 106 92 168q1 2 4 6l4.5 6t4 5.5t4.5 5.5l5 5t5.5 4t6 3t7 2.5t8 1t9.5 0.5q25 0 30.5 -25t-20.5 -36q-79 -95 -136 -292q-52 -182 -36 -273
q15 -83 88 -21q54 46 125 129q46 58 64 86.5t28 58.5t20 50q18 35 58 53q9 3 18 -1.5t14 -12.5q11 -18 -4 -33q-25 -23 -48 -89t-33 -150.5t-6 -166.5t38.5 -144.5t95.5 -76.5q50 -12 107 32.5t104.5 120.5t82.5 148.5t55 132.5q-82 62 -135 177t-31 219q11 57 72 130
q49 59 67 50q6 -2 6 -15zM778 1157q-30 0 -61.5 -26t-52 -74t-26 -106.5t19 -132t79.5 -142.5q8 -11 17.5 -18.5t24 -16t22.5 -14.5q54 168 57 336q3 30 1.5 69.5t-11.5 67.5q-23 57 -70 57z" />
    <glyph glyph-name="X" unicode="X" horiz-adv-x="778" 
d="M256 1118q16 0 27.5 -14.5t3.5 -30.5q0 -11 -2 -69.5t-0.5 -144t10.5 -181.5q121 163 246 293q92 100 170 133q6 2 8 -4.5t-4 -9.5q-36 -15 -73.5 -44t-59 -51t-58.5 -63q-113 -118 -227 -275q28 -243 49 -313q10 -33 26 -70t39 -76t52 -62t57 -17q31 6 67.5 61t68 123
t80.5 149.5t98 127.5q2 2 5 0.5t4 -4.5t-1 -5q-44 -43 -81 -103.5t-61 -116t-46.5 -108t-49.5 -91.5t-59 -54q-87 -41 -185 113q-85 131 -120 364q-120 -177 -214 -371q-10 -20 -12 -20q-3 -4 -8 -4.5t-8.5 2.5t-1.5 8q12 33 87.5 164t154.5 244q-19 124 -22.5 278.5
t5.5 190.5q3 27 15 41q7 10 20 10zM201 356v2v-2z" />
    <glyph glyph-name="Y" unicode="Y" horiz-adv-x="788" 
d="M215 1114q11 0 17.5 -6t4.5 -20t-16 -31q-90 -117 -127 -199q-57 -127 -67 -253q-14 -157 72 -168q18 -2 40 3q35 8 81.5 39t98 79.5t100 98.5t100.5 112.5t85 102.5t69 86t38 48q7 50 16 79q4 13 15.5 16.5t22 -3t11.5 -19.5q3 -72 -34.5 -247.5t-71.5 -276.5
q129 27 157 31q4 1 4 -3q1 -6 -4 -8q-22 -5 -42 -9.5t-54 -11t-67 -13.5q-2 -6 -6.5 -17.5t-6.5 -17.5q-35 -94 -79 -174t-89 -135.5t-93 -97.5t-91.5 -60t-85 -22.5t-72.5 14.5q-46 22 -57.5 65t20.5 115q41 84 128.5 152.5t178.5 107.5t197 68q8 28 15.5 54t13.5 46t12 45
t9.5 39t8.5 41t7.5 37.5t8 41.5t7 40t7.5 47t8 49q-280 -365 -465 -516q-48 -38 -91 -52t-74.5 -5.5t-54.5 35t-34 67.5q-30 117 12 277t141 270q40 46 66 57q2 0 5.5 1t4.5 1zM606 526q-320 -82 -452 -262q-23 -29 -39 -61t-16.5 -71t26.5 -64q26 -24 62.5 -26t67.5 9
t62 31q110 68 175.5 179.5t113.5 264.5z" />
    <glyph glyph-name="Z" unicode="Z" horiz-adv-x="645" 
d="M313 1067q40 0 60 -2t138.5 -21.5t172.5 -17.5q2 0 7.5 4.5t16.5 12t23 12.5q25 12 53 4q6 -2 7.5 -10t-5.5 -11q-4 -2 -11 -8t-11 -8l-21 -14q-61 -51 -305.5 -367.5t-361.5 -482.5q73 47 145.5 62.5t127 9.5t151 -16.5t178.5 -8.5q5 1 7 -2.5t0.5 -7.5t-5.5 -5
q-45 -20 -203.5 -2t-224.5 9q-111 -18 -234 -117q-9 -9 -20 -1.5t-4 19.5q143 232 346.5 517t333.5 399q-48 -2 -137 10.5t-149 19.5t-140 -4q-116 -23 -176 -100q-9 -13 -14 -21.5t-6 -12t-1.5 -6.5t-1.5 -5l2 -2q7 7 14 2t5 -12q-1 -14 -14.5 -20t-28.5 1.5t-19 26.5
q-5 21 12 50.5t51.5 58t98.5 48.5t143 19z" />
    <glyph glyph-name="bracketleft" unicode="[" horiz-adv-x="208" 
d="M252 1100q58 -2 77 -31q8 -13 -1 -14q-13 -2 -40 2t-46 2q-22 -110 -41 -180q-13 -50 -96 -328.5t-95 -314.5l74 2q6 1 8.5 -3.5t1 -9.5t-7.5 -6q-86 -18 -98 -20q-11 -2 -17.5 5t-5.5 17q5 23 55 191q39 134 58.5 206.5t38.5 149.5t37 147q19 71 33.5 114t17.5 54
q4 13 14 15t33 2z" />
    <glyph glyph-name="backslash" unicode="\" horiz-adv-x="239" 
d="M-61 1114q13 0 20 -14q68 -187 177 -538t112 -400q0 -9 -9 -11.5t-14 5.5q-11 22 -35 100q-87 280 -151 470.5t-88 257t-33 103.5q-1 12 5.5 19.5t15.5 7.5z" />
    <glyph glyph-name="bracketright" unicode="]" horiz-adv-x="167" 
d="M23 1081h2q24 -1 71 -4t70 -4q9 0 14 -8t0 -16q-2 -3 -37 -95q-33 -82 -58 -155.5t-47 -156t-34 -135t-36 -164t-38 -171.5q-4 -14 -18 -14q-54 1 -98.5 -6t-59.5 -7q-7 0 -9.5 8t3.5 11q45 28 146 33q19 146 46.5 285t79.5 300t115 260q-18 1 -54.5 4.5t-55.5 4.5
q-9 1 -12.5 8.5t-1 14.5t11.5 7z" />
    <glyph glyph-name="asciicircum" unicode="^" horiz-adv-x="286" 
d="M195 1100q13 2 45 -25q4 -3 10.5 -7.5t10 -7t9 -6t8 -6t6 -5.5t5.5 -5.5t3.5 -5.5t2 -6t0.5 -6q0 -13 -10 -16q-14 -5 -30.5 5t-68.5 54q-4 -1 -36.5 -21t-49.5 -26q-8 -3 -12 5.5t2 14.5q8 7 26.5 20t20.5 15q6 3 22.5 14.5t26.5 14.5h9z" />
    <glyph glyph-name="underscore" unicode="_" horiz-adv-x="376" 
d="M154 494h2q71 -7 133 -6t77 4t37 -3q6 -3 7.5 -10t-2.5 -12q-12 -9 -62 -12q-94 -8 -190 4q-13 1 -16.5 9.5t1 17t13.5 8.5z" />
    <glyph glyph-name="grave" unicode="`" horiz-adv-x="176" 
d="M113 1100q11 0 14 -13q14 -33 27 -55.5t18.5 -32t7.5 -18.5q0 -6 -7 -11t-13 -3q-20 7 -40.5 44.5t-25.5 65.5q-1 10 5 16.5t14 6.5z" />
    <glyph glyph-name="a" unicode="a" horiz-adv-x="434" 
d="M168 676q31 0 57 -23q8 -9 8.5 -21t-6 -21.5t-18.5 -12.5q10 -27 37 -42t59 -17q26 -1 52.5 6.5t56.5 20.5t37 16q4 2 7 -1t3 -8t-4 -8q-43 -26 -91 -37.5t-95 -1t-72 48.5q-25 -42 -72.5 -100t-73.5 -72q-30 -14 -56.5 0t-32.5 50.5t22 93.5q30 56 82.5 92.5t99.5 36.5z
M172 606q-41 0 -80 -36.5t-57 -86.5q-4 -9 -8 -23t-2 -16q2 -4 4 -6t6 -2q5 1 35 19q67 57 120 145q-16 6 -18 6z" />
    <glyph glyph-name="b" unicode="b" horiz-adv-x="374" 
d="M209 1118q6 0 10 -2q13 -2 14.5 -16.5t-14.5 -20.5q1 0 -2 -5v-1q-5 -14 -27 -73.5t-28.5 -78t-25 -73t-26 -82.5t-21.5 -80.5t-21.5 -93.5t-16 -95.5t-14.5 -109.5q54 138 110 213q14 19 25 32.5t26.5 31.5t29 27t28 15t27 1t22.5 -21q20 -34 4 -121q52 3 111 15
q5 1 4 -3q0 -16 -96 -23l-21 -1q-8 -40 -35 -82q-53 -75 -112 -67q-37 5 -49 36q-4 12 -2 25q4 38 47 64.5t92 31.5q19 59 14 94q0 18 -5 21.5t-15 -2.5q-13 -5 -27 -19q-65 -57 -107.5 -143t-76.5 -199q0 -3 -3 -26t-5.5 -43t-4.5 -25q-3 -12 -15 -12t-15 12q-23 80 23 363
t143 487q24 49 55 49zM244 547q-75 -12 -100 -58q-15 -29 2 -40q7 -5 18 -3q20 3 45 37t35 64z" />
    <glyph glyph-name="c" unicode="c" horiz-adv-x="292" 
d="M111 686q35 -2 57 -24t16 -52q-4 -13 -17.5 -16t-25.5 6q-14 9 -18 11.5t-17 4t-22.5 -7t-26.5 -28t-37 -52.5q-39 -67 -23 -111q17 -48 92 -15q86 38 218 176q3 5 8 -1q3 -4 0 -8q-119 -138 -219 -194q-81 -44 -120 16q-34 52 -15 139q21 91 86 136q29 20 64 20z" />
    <glyph glyph-name="d" unicode="d" horiz-adv-x="327" 
d="M451 1102q18 0 21.5 -19t-17.5 -28q1 0 0 -1t-6.5 -9.5t-12.5 -20.5q-91 -161 -146.5 -317.5t-68.5 -246t-19 -171.5t-7 -88q-3 -7 -11.5 -7t-11.5 7q-1 23 -2.5 68.5t9.5 146t32 194.5q-4 1 -7 3q0 1 -1 -1q-1 -4 -2.5 -7.5t-7.5 -14.5t-15 -25q-19 -31 -48.5 -65
t-55.5 -43q-39 -15 -64 10q-19 21 -10 78q6 36 33.5 73.5t62 60.5t70.5 27.5t59 -26.5q3 -3 3 0q15 51 32 98q46 127 119 256q2 3 11.5 19t14 22.5t15 15t22.5 11.5h9zM176 639q-6 0 -10.5 -0.5t-9 -3t-7.5 -4t-10 -6t-12 -7.5q-57 -53 -72 -92q-12 -35 2 -39q16 -6 43 21
q31 29 53.5 60.5t30.5 47.5t9 15q-9 8 -17 8z" />
    <glyph glyph-name="e" unicode="e" horiz-adv-x="270" 
d="M106 682q15 0 23 -4q37 -14 17 -65.5t-68 -73.5q-28 -14 -49 -11q-31 -96 14 -133q20 -15 50 2.5t58.5 50t69.5 72.5t74 58q7 5 10 -4q3 -7 -2 -11q-31 -17 -59 -43.5t-61.5 -66t-47.5 -54.5q-52 -48 -93.5 -36t-64.5 69q-19 61 -2 116.5t55.5 94t75.5 39.5zM121 645
q-15 -4 -25 -14q-38 -23 -63 -90q26 0 54.5 20.5t37.5 48.5q4 7 5 17t-3 16q-2 2 -6 2z" />
    <glyph glyph-name="f" unicode="f" horiz-adv-x="307" 
d="M227 963q15 -5 17 -7q12 -6 16 -20.5t-2 -26.5q-110 -171 -188 -391q155 -10 262 62q5 5 9 -3q2 -6 -3 -10q-109 -72 -268 -59q25 -29 41 -117.5t10 -163.5q-9 -142 -63 -170q-33 -16 -59 19q-2 2 -3 4q-17 28 -25.5 82t-2.5 139t28 181.5t73.5 219t127.5 242.5
q13 19 30 19zM61 498q-73 -211 -55 -347q9 -69 35 -71q21 -2 39 45q31 96 20.5 215t-39.5 158z" />
    <glyph glyph-name="g" unicode="g" horiz-adv-x="407" 
d="M29 694q45 0 53 -35q15 8 28 1.5t15 -19.5q3 -5 0.5 -12t-2.5 -8q4 -40 -10 -127q132 67 174 90q6 3 9.5 -3.5t-1.5 -9.5q-23 -12 -87.5 -44.5t-98.5 -51.5q-2 -14 -11 -51q-13 -67 -36 -136.5t-57 -138.5t-82 -119t-101 -63q-81 -19 -124.5 40t-6.5 157q16 41 47.5 79
t62.5 65.5t81.5 59.5t82 49t86.5 46q4 32 8 92l1 4q0 -1 -1 -2q-14 -22 -32.5 -44t-42.5 -45t-51 -34.5t-50 -5.5q-37 9 -42 52.5t22.5 96.5t75.5 85t90 32zM37 631q-25 0 -71.5 -32t-69.5 -85q-11 -28 -9 -41q1 -12 14.5 -15t22.5 1q39 8 88 66t51 79q0 11 3 23
q-7 -2 -11 -1t-8.5 3t-5.5 2h-4zM49 444q-53 -28 -85 -45.5t-81 -49t-79.5 -59t-59.5 -66t-43 -79.5q-18 -53 -7.5 -88.5t35 -53t60.5 -14t68 28.5q141 108 192 426z" />
    <glyph glyph-name="h" unicode="h" horiz-adv-x="380" 
d="M240 1079q4 0 16 -4q18 -10 10 -41q-2 -7 -11 -22.5t-28 -52.5t-41 -87q-42 -94 -82.5 -222.5t-56.5 -237.5q26 65 68.5 133.5t71 103.5t38.5 43q13 9 18 10.5t25 -2.5q16 -7 20.5 -16.5t4.5 -30.5q1 -39 -7.5 -76.5t-16 -57.5t-7 -37.5t16.5 -26.5q28 -18 74.5 27.5
t72.5 92.5q4 7 10.5 3.5t3.5 -11.5q-24 -44 -68.5 -91t-78.5 -52q-24 -4 -43 9.5t-27 37.5q-10 36 -6 67.5t13.5 74.5t9.5 53q-25 -6 -78.5 -80t-89.5 -160q-24 -56 -31.5 -86t-9 -56.5t-6.5 -50.5q-3 -9 -13 -9t-12 9q-11 48 0 199q16 161 56 299.5t124 288.5q1 1 8.5 14.5
t11 17.5t10.5 13t14.5 12t15.5 2z" />
    <glyph glyph-name="i" unicode="i" horiz-adv-x="219" 
d="M49 733q5 0 17 -4q12 -8 12 -22q-3 -21 -14.5 -30t-23 -4.5t-15.5 17.5q-4 15 3 28t21 15zM39 649q9 0 15 -8t5 -18q0 -7 -17 -68.5t-17 -116.5q0 -41 8 -43q13 -4 40 18t44 42q7 7 22 24t22 25t19.5 21t20.5 20t18.5 15.5t20 13.5t18.5 8q3 1 5 -1.5t2 -5.5t-3 -4
q-5 -3 -17.5 -10t-18.5 -10.5t-17 -11.5t-22 -18.5t-23 -24.5q-13 -15 -33 -38.5t-28.5 -32.5t-20.5 -22t-20.5 -18.5t-16.5 -9.5q-44 -20 -60 51q-17 72 4 154q14 55 38 67q4 2 12 2z" />
    <glyph glyph-name="j" unicode="j" horiz-adv-x="208" 
d="M-367 756q24 0 26 -24t-19 -30q-23 -7 -33 19q-4 13 4.5 24t21.5 11zM-383 662q13 0 22.5 -9t8.5 -22q-6 -79 -21 -156q61 37 183 107q4 2 7.5 -1t3.5 -7.5t-3 -6.5q-125 -66 -193 -112q-13 -66 -31 -132t-48 -151t-72.5 -144t-89.5 -73q-44 -13 -85 21q-57 46 -38 129
q35 149 297 325q20 160 30 209q1 10 9.5 16.5t19.5 6.5zM-444 410q-256 -176 -280 -312q-12 -69 37 -102q22 -15 46 -14q29 0 55 30q57 58 92 170.5t50 227.5z" />
    <glyph glyph-name="k" unicode="k" horiz-adv-x="325" 
d="M207 1096q1 0 3.5 -1t4.5 -1q26 -7 22 -37q-2 -20 -49 -147q-66 -182 -120 -373q47 47 87 100.5t57.5 75t33.5 18.5q6 -1 9 -9t1 -13q-5 -30 -109 -146q-28 -30 -52.5 -50t-33.5 -26.5t-10 -11.5q15 -3 45.5 -11.5t46.5 -11.5t46.5 -5.5t46.5 6.5q26 8 52.5 31.5t40 41.5
t36.5 52q2 3 5.5 2.5t6 -4t0.5 -7.5q-20 -36 -42 -62t-41 -42t-44 -24t-41 -11.5t-43.5 0t-40.5 6.5t-41.5 11t-38.5 10q-32 -135 -49 -230q-2 -8 -9.5 -10t-14 3t-5.5 16q4 35 35 213q-3 -2 -8 -5.5t-8 -5.5q-7 -3 -14 2t-5 13q9 23 35 26q4 4 8 6q59 319 150 551
q1 2 4.5 11t5 13.5t6 12t8.5 11.5t10 8t13 4z" />
    <glyph glyph-name="l" unicode="l" horiz-adv-x="311" 
d="M217 1106q9 0 15 -6t6 -15q1 -16 -1.5 -27.5t-7 -21l-18 -38t-27.5 -60.5q-70 -169 -110 -410q-10 -55 -13.5 -132t7.5 -132q13 -47 29 -56.5t53 17.5q40 32 103.5 147t106.5 208q5 7 11.5 7t11 -6.5t0.5 -13.5q-80 -174 -168 -299q-20 -30 -44.5 -52t-52.5 -31t-48 16
q-31 38 -41.5 83.5t-12.5 110.5q-5 175 28.5 331.5t113.5 315.5q2 3 4 9q16 33 32 45q6 4 13 8q4 2 10 2z" />
    <glyph glyph-name="m" unicode="m" horiz-adv-x="550" 
d="M408 784q6 0 10 -2q23 -9 29 -35.5t-2.5 -64.5t-19.5 -73t-25.5 -74.5t-18.5 -55.5q-24 -93 12 -122q26 -22 62 10l2 2q9 8 25.5 32.5t34 53.5t33.5 56.5t27 46.5l11 20q4 8 10 0q4 -4 2 -9q-6 -13 -38 -69t-34 -56q-6 -11 -16.5 -28t-15.5 -25.5t-12.5 -19.5
t-13.5 -17.5t-13 -11.5q-38 -32 -76.5 -5.5t-42.5 99.5q-3 55 13 121t32 118t14 75q-12 -1 -25.5 -10.5t-24 -20.5t-24.5 -31t-21.5 -31t-20.5 -32.5t-15 -24.5q-17 -30 -25.5 -46t-11 -21.5t-6.5 -17t-8 -21.5q-11 -28 -37 -21.5t-22 39.5q6 48 24 105l17 57
q-69 -39 -123 -170q-27 -67 -27 -76h1v-1q-1 -7 -1 -19q-2 -18 -19 -24t-26 11q-26 62 -18.5 126.5t39.5 125.5t68 51q21 -6 23 -27q1 -13 -8 -22q-10 -10 -16 -20q-34 -64 -39 -137q29 75 74 141q11 15 33.5 42t34.5 36q14 10 30.5 6t24.5 -19q13 -19 4 -73q-2 -10 -4 -21
q-2 -6 1 -1q6 11 11 20q1 2 5 8q97 155 143 153z" />
    <glyph glyph-name="n" unicode="n" horiz-adv-x="401" 
d="M111 725q14 2 21.5 -10t-1.5 -25q-18 -48 -35 -108q-1 -3 -2 -8v-6q0 1 3 6q19 31 42 63q44 57 65 70q17 11 32 12q23 3 36 -31q9 -25 0.5 -85.5t-14.5 -103t14 -77.5q10 -12 22 -14t26.5 6t28.5 20t31.5 32t31 37t31.5 40t30 37q4 4 9.5 0t2.5 -9q-26 -38 -96 -129
q-21 -30 -42 -47t-50 -20q-61 -5 -84 69q-15 53 -10.5 100.5t12 89.5t4.5 46q-18 -2 -62 -49.5t-75 -116.5q-8 -52 -10 -55q-8 -8 -17 -2q-9 0 -6 8q0 1 -1.5 7t-4 20.5t-4.5 35.5q-4 30 -2 71.5t20 78.5q21 47 54 47z" />
    <glyph glyph-name="o" unicode="o" horiz-adv-x="264" 
d="M131 733q26 -1 41.5 -21t12.5 -65.5t-33 -109.5q15 0 28.5 2.5t28.5 8t23.5 9t25 12.5t21.5 11q8 5 12 -4q2 -7 -6 -11q-2 -1 -17.5 -8t-21 -9t-19.5 -7.5t-22 -8t-20 -5.5t-22 -3.5t-20 0.5q-26 -50 -65 -91.5t-76 -37.5q-41 6 -44.5 65t24.5 124t67 88q30 61 82 61z
M127 717q-31 0 -57 -37q15 2 27 -8t12 -25q0 -10 -7.5 -17.5t-17.5 -6.5q-2 0 -3.5 0.5t-2 0.5t-3.5 -2.5t-7 -7t-13 -14.5q14 -50 80 -61q13 26 22 54t12.5 56t-5.5 47t-31 21h-6zM43 588q-47 -52 -55 -116q-7 -52 23 -54q15 -1 38 14q46 28 78 94q-62 11 -84 62z" />
    <glyph glyph-name="p" unicode="p" horiz-adv-x="311" 
d="M23 715q12 0 21 -9t9 -22q4 1 -3 -20.5t-20.5 -60t-19.5 -56.5q22 31 80 106q38 41 67.5 34t45 -48.5t4.5 -87.5q53 7 86 29q5 5 8 -3q1 -5 -2 -8q-33 -25 -94 -32q-11 -46 -39 -87.5t-66 -60.5q-50 -24 -75 10q-24 31 -3 74q28 57 113 70q7 29 9 62.5t-1 37.5q-4 3 -4 4
q-17 -3 -22 -6q-57 -37 -131 -168q-50 -149 -78.5 -260.5t-40.5 -138.5q-3 -9 -14 -8.5t-11 12.5q2 66 65.5 324t90.5 298q9 15 25 15zM129 528q-71 -14 -90 -62q-12 -30 5 -43q9 -7 22 -1q6 2 10.5 6.5t10.5 15t7 11.5q6 11 12 21.5t8.5 15t6.5 13.5t8 23z" />
    <glyph glyph-name="q" unicode="q" horiz-adv-x="339" 
d="M223 709q12 0 21 -9t9.5 -18t-7 -29t-19 -44t-31.5 -76.5t-40 -112.5q47 4 90 28t67 50t45.5 52.5t24.5 29.5q3 1 6.5 -1.5t3.5 -5.5q-3 -8 -26 -36q-103 -131 -215 -134q-10 -23 -15 -41q29 -98 26 -224.5t-32 -192.5q-10 -21 -25 -27t-28.5 4t-20.5 33
q-18 54 -12.5 145t17.5 166t30 148q-8 4 0 8l-2 2q-3 4 0 8t8 2q5 21 21 76q-30 -36 -63 -55t-58 2q-13 12 -13.5 33.5t5.5 39t16 41.5q3 6 4 9q30 68 88 98q20 11 36 13.5t25 -1t14.5 -8.5t8 -9t2.5 -3q9 22 17 30q18 9 22 9zM145 639q-41 -13 -92 -78q-48 -61 -37 -81
q4 -8 19 -5q38 7 84 64q21 26 22 30q7 19 15 37q3 8 2 9t-2 3q0 4 -11 21zM129 328q-34 -126 -42.5 -220.5t-2.5 -128.5t12 -32q14 5 27.5 61t18 139.5t-12.5 180.5z" />
    <glyph glyph-name="r" unicode="r" horiz-adv-x="348" 
d="M72 719q12 0 21.5 -9.5t8.5 -19.5q-1 -13 -8.5 -33t-22 -58.5t-26.5 -86.5q17 35 34.5 64t33 51.5t20.5 31.5q16 32 41 35q16 4 29.5 -3t24.5 -18.5t16 -13.5q41 -23 84 3q5 3 10 -2t2 -9q-15 -51 -80 -55q-13 -1 -24 1.5t-22 9.5t-15.5 11t-15 15t-11.5 12
q-16 9 -50 -36.5t-62.5 -104.5t-34.5 -90q-4 -24 -13 -35q-3 -6 -10.5 -6.5t-11.5 4.5q-29 29 -4.5 162.5t67.5 171.5q8 8 19 8z" />
    <glyph glyph-name="s" unicode="s" horiz-adv-x="231" 
d="M8 709q36 3 53 -31q11 -22 11 -29q-3 -47 -45 -59q-4 0 -4 2q0 48 -9 48l-2 -1q-23 -33 -24 -78t10 -84q57 39 186 103q8 5 14 -5q2 -7 -3 -10q-134 -63 -195 -106q20 -92 -8 -142q-28 -57 -74 -55q-35 1 -48 35q-17 49 34 104q40 40 63 56q-2 7 -10 34.5t-11 38t-7.5 34
t-4 37.5t4.5 33.5t12 35.5q20 39 57 39zM-27 440q-98 -77 -90 -123q5 -34 33 -36q30 -2 51 35q26 48 6 124z" />
    <glyph glyph-name="t" unicode="t" horiz-adv-x="286" 
d="M-141 1094q2 -2 6 -2q13 -3 21 -16t3 -25q-8 -36 -14 -52q73 6 269.5 13t240.5 2q6 0 6 -6t-6 -7q-55 -4 -74.5 -2t-141.5 -0.5t-298 -13.5q-34 -122 -68 -237t-50 -171.5t-29 -111.5q-42 -215 -21 -268q9 -22 38 0t44 43q35 42 211 335q3 6 8.5 5.5t8 -5t-0.5 -10.5
q-127 -218 -162 -282q-72 -120 -131 -127q-22 -3 -35.5 13t-17 34.5t-6.5 48.5q-8 100 42 329.5t97 397.5q-221 -14 -383 -37q42 0 82 -6q10 0 9.5 -9.5t-9.5 -11.5q-79 -12 -170 5q-8 2 -8 10t8 10q14 3 28 7t30.5 7t48.5 7q166 20 368 34q9 37 21 72q7 27 35 27z" />
    <glyph glyph-name="u" unicode="u" horiz-adv-x="471" 
d="M322 684q13 -2 19.5 -14t0.5 -33q-4 -16 -14.5 -50.5t-17 -57.5t-14.5 -59t-7.5 -56t4.5 -49q6 -20 16 -21.5t23 10.5q34 24 67 72.5t67.5 91.5t76.5 62q7 3 10 -4.5t-4 -10.5q-41 -16 -73 -55t-63.5 -89.5t-58.5 -76.5q-62 -59 -91 12q-24 62 -11 172q3 23 9 45
q1 5 0.5 4.5t-2.5 -4.5q-10 -16 -21 -32q-57 -80 -76 -103q-14 -14 -29 -21.5t-33 -6.5t-32 16q-27 27 -27 107t33 135q10 18 29.5 9t13.5 -28q1 1 -3 -10.5t-9 -27t-7 -21.5q-37 -126 -3 -155q19 -17 46 9q22 19 63.5 78t71.5 109q6 16 10 24t12 16.5t17 10.5q1 0 3.5 1
t3.5 1z" />
    <glyph glyph-name="v" unicode="v" horiz-adv-x="325" 
d="M266 715q12 0 20 -11.5t7 -29.5q-5 -44 -27 -101q18 -13 40 -15t39 3.5t36 12t27 6.5q3 0 4.5 -4t-0.5 -5q-17 -19 -64.5 -27.5t-89.5 13.5q-18 -43 -53 -90t-68 -59q-26 -10 -48.5 1.5t-31.5 36.5q-16 36 -11 109.5t32 118.5q6 10 19 13t22 -3q12 -6 15 -18.5t-3 -22.5
q-6 -15 -18 -47q-23 -56 -20 -116.5t50 -39.5q27 11 57 50.5t46 74.5q-28 28 -29.5 67t23.5 68q12 15 26 15zM266 700q-6 0 -12.5 -7.5t-11.5 -20.5t-6.5 -27.5t3 -31t15.5 -29.5q17 48 20 67q7 41 -4 49h-4z" />
    <glyph glyph-name="w" unicode="w" horiz-adv-x="491" 
d="M367 727q41 0 62 -46.5t-1 -123.5q47 -3 96 21q6 3 11 -0.5t5 -8.5t-5 -8q-58 -30 -115 -24q-27 -62 -84.5 -99t-112.5 -12q-30 12 -50 39t-21 61q-18 -18 -33 -28q-49 -43 -82 -45q-32 -1 -47 30.5t-6.5 73.5t36.5 70q20 18 42 4t16 -39q-3 -12 -17 -19q-30 -49 -24 -77
q3 -21 58 14q35 23 59 49q1 5 14 31v-2q6 13 21 8.5t12 -21.5v-14q1 -7 1 -16t5 -25q11 -44 36.5 -60.5t54.5 -8t56.5 33t44.5 56.5q-43 11 -70 41.5t-27.5 62t17.5 57.5q19 21 48 25zM367 709q-22 0 -37.5 -18t-12.5 -46.5t31 -54.5q24 -24 62 -31q15 32 12 78.5t-31 64.5
q-14 7 -24 7z" />
    <glyph glyph-name="x" unicode="x" horiz-adv-x="294" 
d="M221 723q4 1 7 -2t3 -6q-1 -10 -20 -37q-68 -102 -102 -154q15 -51 44 -75.5t70 -6.5q44 20 109 111q15 22 22 27q4 4 6 -2v-3q-2 -24 -67 -98q-46 -54 -86 -63q-70 -18 -127 65q-28 -42 -68 -110q-3 -6 -9.5 -3t-4.5 9q2 10 5 19.5t11 24t12.5 22t18.5 30t21 33.5
q-37 79 -31 139q-3 21 17.5 27t29.5 -17q4 -12 8 -40.5t10 -55.5q9 15 29 43t29 43q9 13 17.5 25.5t13 19.5t9.5 13.5t7 9.5t4.5 6t4.5 4t5 2h2z" />
    <glyph glyph-name="y" unicode="y" horiz-adv-x="372" 
d="M92 655q11 0 19 -8q22 -25 28 -123q12 5 54.5 26.5t62.5 29.5q3 1 5 -2t2 -6.5t-3 -4.5q-46 -17 -119 -55q11 -274 -145 -387q-77 -55 -139 -30q-52 21 -54 83q-3 92 108 197q69 65 175 123q-4 102 -4 106l2 25q-6 -3 -14 -15.5t-35 -44t-70 -71.5t-76.5 -22t-27.5 79
q6 53 41 88q13 15 29.5 1.5t7.5 -30.5q-29 -47 -29 -82q-2 -23 5.5 -27.5t35.5 11.5q35 21 64 52.5t45.5 55.5t17.5 25q6 6 14 6zM86 483q-102 -55 -170 -123q-86 -86 -98 -147q-12 -64 33 -88t103 13q87 56 118 202q14 65 14 143z" />
    <glyph glyph-name="z" unicode="z" horiz-adv-x="284" 
d="M47 686q6 0 12 -6q16 -19 3 -44t-44 -26q-8 -10 -25 -29.5t-22 -25.5t-16.5 -20t-17 -21.5t-16 -21.5t-20 -27.5t-22.5 -32.5q35 22 74 26.5t66.5 -0.5t64.5 3q113 27 139 114q1 4 4 4.5t5 -1.5t1 -5q-25 -86 -137 -127q-28 -10 -61.5 -12t-59 -2.5t-54 -8t-59.5 -34.5
t-63 -76q-8 -11 -21 -5.5t-7 18.5q31 83 84.5 161.5t113.5 135.5q-61 28 -96 12q-3 0 -10.5 -6.5t-3.5 -10.5q4 -2 5 -7t-1.5 -9t-7.5 -4q-20 3 -26.5 19.5t9.5 35.5q25 31 74 27q25 -2 82 -27q1 0 2 -1q3 0 7 3l11 11q4 3 13.5 8t13.5 8q0 1 3 2q2 1 3 2z" />
    <glyph glyph-name="braceleft" unicode="{" horiz-adv-x="229" 
d="M367 1145q38 -3 57 -31q6 -10 6 -29q0 -9 -6.5 -13.5t-15 -3t-13.5 8.5q-13 13 -28 13l-7 -3q-14 -9 -20 -26q-8 -23 -21.5 -107t-35 -167t-54.5 -128q-5 -7 -10 -13t-10.5 -11.5l-8 -8t-9.5 -7.5t-8 -5.5t-10 -5.5l-9 -6q19 -13 28.5 -37.5t7.5 -64.5t-3.5 -57t-8.5 -60
q-7 -45 -19 -94t-17 -70.5t-3 -42.5t15 -35q13 -15 33 -19.5t36 7.5q6 6 13 -1q3 -4 0 -7q-14 -23 -42 -25t-50 13q-24 15 -37 36t-13.5 52t2 51t11 59t10.5 49q40 198 4 236q-7 6 -3.5 13t11.5 9q48 5 78 97q17 47 25 120q26 185 39.5 236t50.5 70q20 8 35 8z" />
    <glyph glyph-name="bar" unicode="|" horiz-adv-x="176" 
d="M238 1071q12 0 21 -7.5t9 -21.5q0 -17 -4.5 -49.5t-5.5 -44.5q-36 -316 -51.5 -532t-16.5 -228q-1 -9 -7.5 -12t-12.5 0t-6 12q-14 134 5 454t42 407q1 10 9 16t18 6z" />
    <glyph glyph-name="braceright" unicode="}" horiz-adv-x="225" 
d="M35 1116q31 0 54.5 -25.5t23.5 -74.5q1 -19 -6.5 -89.5t-15 -135.5t-7.5 -68q-5 -82 41 -84q11 -1 15 -9.5t0.5 -16.5t-11.5 -9q-23 -3 -39 -35q-21 -36 -26.5 -98.5t-9 -137t-19.5 -124.5q-21 -68 -62.5 -114t-101.5 -52q-12 -1 -13.5 11.5t9.5 15.5q58 14 98 75
q29 44 39 104.5t6 110.5t0 109.5t23 99.5q16 37 43 52q-10 9 -18 20t-13 20.5t-7.5 24.5t-3.5 24t-0.5 27.5t1 26t2.5 29t2 26.5q3 33 7 67.5t6 52.5t4 38t2.5 29.5t0 20t-1.5 16.5t-4 12q-8 15 -28 18q-14 0 -17 -10q-3 -9 -12 -11.5t-16.5 2t-6.5 13.5q1 22 19.5 35.5
t42.5 13.5z" />
    <glyph glyph-name="asciitilde" unicode="~" horiz-adv-x="499" 
d="M254 684q38 -1 104.5 -38.5t94.5 -41.5q27 -5 55.5 4.5t36.5 9.5q11 0 9 -12q-3 -22 -50 -33q-45 -11 -89 5t-86 40t-71 27q-21 3 -39.5 -7t-21.5 -30q-2 -10 -11 -9t-12 9q-10 21 4 40t37 28q16 8 39 8z" />
    <glyph glyph-name="exclamdown" unicode="&#xa1;" horiz-adv-x="1290" 
d="M1188 940q19 0 22 -22q-1 -15 -9.5 -24t-16.5 -9q-10 -3 -19.5 8t-5.5 27q7 20 29 20zM1169 817q13 0 23 -8.5t10 -24.5q4 1 -13 -86.5t-47 -238t-44 -228.5q-20 -110 -27 -129q-5 -9 -12.5 -8t-9.5 10q-4 51 35 346t55 343q9 24 30 24z" />
    <glyph glyph-name="cent" unicode="&#xa2;" horiz-adv-x="1316" 
d="M1167 825q11 0 11 -8q0 -27 -7 -30l-2 1q-4 -11 -34 -102q35 -11 40.5 -57.5t-16.5 -73.5q-6 -7 -14 -5t-8 11q-1 6 -2 17.5t-2 20t-3 18t-4.5 15t-5.5 7.5q-30 -96 -51 -203q8 -6 16.5 -7.5t17.5 2.5t17.5 9.5t19.5 16t18.5 18.5t19 21t18.5 20q3 3 7 0.5t3 -6.5
q-12 -28 -43 -59q-13 -14 -22.5 -22t-24 -17.5t-25.5 -8t-28 6.5q-6 -32 -13 -72t-11 -62t-7 -28q-2 -6 -7 -5t-5 7q-2 12 3 47.5t13 79.5t8 47q-25 27 -28 72t10 86t37 72t49 34q39 114 49 133q4 4 6 4zM1094 629q-28 -28 -41.5 -76.5t-3.5 -87.5q0 -1 1 -2q2 -7 3 -3
q0 2 3 13q14 68 38 156z" />
    <glyph glyph-name="sterling" unicode="&#xa3;" horiz-adv-x="1644" 
d="M1407 1040q59 0 80.5 -59t-19.5 -160q-19 -46 -69 -80q-10 -7 -16.5 3t-0.5 18q35 45 51 99.5t8.5 92.5t-32.5 43q-25 6 -56.5 -18.5t-52.5 -58.5q-63 -107 -55 -285q75 -5 113 -33q2 -2 0.5 -5t-4.5 -3q-10 1 -28.5 4t-31.5 4t-47 0q1 -15 4.5 -63t3.5 -74q1 -28 0 -53
q-1 -12 4 -13q3 -1 5 -2q15 -6 36.5 -16t35 -16t33.5 -14t32.5 -10.5t32 -5t30.5 2.5q45 10 49.5 62t-32.5 98q-2 3 2 4q46 -45 44 -106t-59 -83q-62 -26 -219 43q-11 -56 -37.5 -95.5t-57 -55t-62 -13.5t-54.5 23q-24 21 -27.5 54.5t8 64.5t32.5 55q35 42 83.5 44t98.5 -23
q4 38 -6 190q-23 -3 -41 -7.5t-36 -10.5t-28 -9q-14 -4 -19.5 9.5t5.5 21.5q42 29 117 33q-4 102 12 183t44.5 127t60.5 69.5t65 23.5zM1133 395q-50 0 -76 -43q-42 -62 -11 -107q25 -35 71 -28q60 10 93 88q12 28 19 62q-61 28 -96 28z" />
    <glyph glyph-name="currency" unicode="&#xa4;" horiz-adv-x="1323" 
d="M1243 760q2 0 6 -4q7 -5 -2 -19q-3 -7 -24 -24q-11 -7 -19 -2q28 -23 34 -63.5t-4.5 -77.5t-29.5 -60q10 -23 10 -27q6 -14 -7 -17q-16 -5 -26 21q-1 1 -1 2q-36 -17 -68 15q-1 -1 -1 -1.5t-0.5 -1t-4 -6t-8.5 -14.5q-1 0 -4 -3.5t-7.5 -7.5t-7.5 -5q-8 -5 -10 8
q-5 25 26 45l3 2q2 0 2 2q-21 39 -21 90.5t25 94.5q-7 8 13 18q38 19 81 -8l2 -2q-4 4 -4 8q0 10 16 20q10 8 23 15q2 0 4.5 1t3.5 1zM1065 748h2q6 -3 16 -13q6 -10 9.5 -16.5t4 -8.5t1.5 -3q4 -10 -5.5 -16t-15.5 3q-9 14 -16 27q-4 4 -4 18q0 9 8 9zM1143 717
q9 -5 7 -19.5t-8 -26t-10.5 -38.5t-1.5 -58q2 -28 13.5 -49.5t34.5 -5.5q16 11 27.5 41t13.5 55q4 45 -19 73t-57 28z" />
    <glyph glyph-name="yen" unicode="&#xa5;" horiz-adv-x="1640" 
d="M1120 1040q11 0 18 -9t1 -19q-76 -132 -97 -246q-24 -137 2 -223q8 -22 23.5 -35t36.5 -15t50 12.5t60 45.5q64 67 117 141q12 46 49 139q6 13 10.5 23.5t10 20.5t8.5 16t9 15t8 12.5t9 13.5t9 13t11.5 15.5t12.5 16.5q9 10 21 0t6 -21q-3 -7 -8 -22.5t-8 -22.5
q-1 -3 -16.5 -36.5t-31.5 -74.5t-35.5 -95.5t-36 -121t-24.5 -130.5q65 3 78 -4q3 -1 3 -6t-3 -7q-5 -4 -11 -4.5t-26 -1.5t-45 -4q-1 -10 -2 -29.5t-2 -29.5q42 1 69.5 -2t42.5 -8t17 -5q4 -2 3.5 -8t-5.5 -6t-15.5 -1t-15.5 -1q-4 0 -41.5 1t-54.5 1q-3 -107 8 -195
q2 -9 -8.5 -11t-13.5 7q-18 94 -21 191v3q-1 3 -5 3h-2q-23 -3 -56 -2q-9 0 -10.5 8.5t6.5 11.5q34 10 65 13q0 37 2 53q-9 -1 -27.5 -3t-27.5 -3q-15 -3 -16.5 10t10.5 16q49 10 61 11q5 86 29 202q-83 -112 -135 -151q-98 -75 -156 -2q-53 65 -46 205q7 160 87 281
q17 26 37 48q6 6 12 6z" />
    <glyph glyph-name="brokenbar" unicode="&#xa6;" horiz-adv-x="1187" 
d="M1075 950q17 0 23 -16q1 0 3 -24t3.5 -64.5t1.5 -77.5q4 -35 -6 -55q-2 -4 -8 -3.5t-9 3.5q-12 18 -22 103t-8 112q3 22 22 22zM1092 604q15 0 18 -16q6 -24 -2.5 -113.5t-20.5 -116.5q-3 -6 -9.5 -4.5t-8.5 6.5q-9 30 -8.5 119.5t8.5 108.5q6 16 23 16z" />
    <glyph glyph-name="section" unicode="&#xa7;" horiz-adv-x="1482" 
d="M1315 971q57 0 80.5 -45.5t-11.5 -79.5q-10 -10 -21.5 -3t-8.5 19q4 22 -15 41q-18 13 -34 6q-43 -10 -58 -75q-8 -42 6 -91t33 -84t28 -79t-9 -76q-20 -40 -69.5 -49.5t-84.5 20.5q15 -43 64 -118.5t59 -114.5q12 -47 -5.5 -93t-60.5 -67q-38 -20 -86 -9t-71 48
q-6 9 2 14.5t14 -0.5q47 -36 89.5 -29.5t66.5 46.5q16 35 12 62t-26.5 63.5t-47 66.5t-49 71t-33.5 77q-16 62 4 116.5t59.5 79t80.5 12.5q-37 79 -31.5 137.5t34 93t68.5 40.5h21zM1245 657q-2 -2 -14 -2q-41 1 -65.5 -29t-26.5 -75q6 -42 37 -60t63.5 -7t42.5 42
q3 10 4 21t-2.5 24t-5.5 20.5t-10 23.5t-10.5 20.5t-12.5 21.5z" />
    <glyph glyph-name="dieresis" unicode="&#xa8;" horiz-adv-x="1296" 
d="M1188 1024q14 0 24 -10q15 -20 5.5 -40t-29 -24t-35.5 8q-8 12 -8 21q-4 15 6 25q2 3 14 12q11 8 23 8zM1087 1010q22 0 29 -17q7 -22 5.5 -28.5t-9.5 -18.5q-17 -17 -39.5 -6.5t-19.5 35.5q5 19 8 22q10 13 26 13z" />
    <glyph glyph-name="copyright" unicode="&#xa9;" horiz-adv-x="1509" 
d="M1194 815q44 0 70 -29q8 -11 10 -26q49 -11 88 -60q44 -57 45.5 -137.5t-36 -149.5t-99.5 -96q-61 -29 -124 -1t-97 106q-21 49 -23.5 112.5t11 121.5t48 102.5t82.5 54.5q4 0 12.5 1t12.5 1zM1208 760q-3 0 -8.5 -1t-7.5 -1q-61 -10 -96 -99q-19 -48 -25 -94t0.5 -83
t21 -68t37.5 -50t49 -28t56 -3.5t59 25.5q43 31 68.5 92t19.5 130.5t-49 115.5q-43 43 -92 54q-4 2 -4 6q-24 4 -29 4zM1217 702q19 0 30.5 -17.5t7.5 -43.5q-7 -31 -36 -43q-12 -3 -17.5 8t2.5 19q11 12 11.5 25.5t-5.5 15.5l-2 -2q-8 -6 -16 -17q-45 -54 -33 -132
q7 -49 28 -56q6 -1 11 2q39 33 39 92q0 6 5 5q3 -1 3 -3q7 -31 -3.5 -61.5t-35.5 -49.5q-24 -16 -42.5 10.5t-22.5 55.5q-9 58 10 117q11 39 29 58t37 17z" />
    <glyph glyph-name="ordfeminine" unicode="&#xaa;" horiz-adv-x="1439" 
d="M1135 1092q17 0 30.5 -11t16.5 -26q0 1 1 3t1 3q2 6 9 6.5t9 -6.5q14 -81 60 -88q11 1 16.5 -0.5t15 3.5t14 6.5t13 9t12 10.5t11.5 11t12 11q2 2 4.5 0.5t1.5 -4.5q-10 -33 -35.5 -54t-53 -24t-53 16t-34.5 58q-19 -30 -33 -49q-7 -8 -9.5 -10.5t-10 -9.5t-12 -9.5
t-11.5 -5.5t-14.5 -2t-14.5 4q-22 8 -28.5 33.5t2.5 46.5q27 74 80 78zM1137 1040q-6 0 -17 -16q-30 -40 -24 -55q6 -17 20 -2q30 18 55 63q-6 -3 -10.5 -3t-7 1t-6 4.5t-4.5 3.5q-1 1 -3 2t-3 2z" />
    <glyph glyph-name="guillemotleft" unicode="&#xab;" horiz-adv-x="1441" 
d="M1212 713q5 0 17 -4q11 -7 11 -20t-11 -21q-3 -2 -23.5 -23.5t-51 -52t-54.5 -51.5q31 -5 75.5 -31.5t65.5 -54.5q3 -4 -1 -7.5t-7 -1.5q-17 8 -52 31.5t-62 34t-50 2.5q-10 -4 -14.5 5.5t0.5 15.5q3 4 5.5 7t4.5 6t9.5 14t19.5 26q55 74 77.5 99.5t40.5 25.5zM1288 686
q13 0 19 -12q6 -9 -0.5 -18t-16.5 -9q-1 0 -3.5 -2.5t-4.5 -3.5q-46 -40 -65 -63q134 -74 149 -115q2 -3 -2 -6t-8 -2q-12 3 -71.5 45.5t-96.5 58.5q-8 3 -11 10t1 13q22 35 55 69.5t55 34.5z" />
    <glyph glyph-name="logicalnot" unicode="&#xac;" horiz-adv-x="1458" 
d="M1362 610q6 2 12.5 -4.5t5.5 -13.5q-3 -70 -14 -125q-5 -26 -14 -33q-7 -4 -13 2q-10 10 -6 37q1 49 8 89q1 11 0.5 12t-7.5 0q-8 -1 -13 -1q-50 -4 -99 -7.5t-71 -5.5t-46.5 -3.5t-25.5 -1.5h-8q-13 0 -18 10t-1.5 20t13.5 11q17 2 87.5 4t134 4.5t71.5 5.5h4z" />
    <glyph glyph-name="softhyphen" unicode="&#xad;" horiz-adv-x="600" 
 />
    <glyph glyph-name="registered" unicode="&#xae;" horiz-adv-x="1521" 
d="M1262 924q33 0 59 -14.5t37 -37.5q2 -5 -1 -10t-9 -2q-40 14 -63 17t-64 -7q-48 -17 -86 -76t-50 -136.5t15 -161.5q22 -63 64 -92.5t85.5 -23.5t85.5 41.5t64 94.5q-30 5 -70 16.5t-65 17t-35 1.5q-15 -73 -15 -113q2 -14 0 -14q0 -10 -8 -14t-16 4q-23 27 -31 88.5
t-6 113.5t8 101q8 65 37 88q13 12 27 2t6 -25q-14 -28 -20 -64t-9 -106v-32h6q2 1 7 24t20.5 63.5t38.5 77.5q9 13 15.5 20t18 12.5t25.5 2.5q19 -3 26.5 -19.5t4.5 -35.5q-13 -88 -94 -150q70 -12 110 -32q14 -7 23 -13q28 86 -4 167.5t-105 133.5q-9 6 -3.5 15t14.5 4
q68 -41 103.5 -112.5t28 -154.5t-60.5 -151q-56 -71 -123 -83t-121.5 33t-76.5 132q-22 76 -8.5 168.5t59.5 155.5q63 82 156 86zM1321 752q-1 0 -4 -1t-4 -1q-12 -5 -27.5 -31t-21.5 -43q-19 -39 -27 -76q42 33 69 83.5t23 64.5q-4 4 -8 4z" />
    <glyph glyph-name="macron" unicode="&#xaf;" horiz-adv-x="1312" 
d="M1065 924q12 0 26 -1t31 -2.5t27 -2.5q66 -5 80 -11q3 -1 3 -5t-3 -5q-16 -9 -58.5 -12t-77 -1t-32.5 5q-11 3 -13.5 11.5t2.5 16t15 7.5z" />
    <glyph glyph-name="degree" unicode="&#xb0;" horiz-adv-x="1222" 
d="M1077 1079q19 0 37.5 -16.5t24.5 -38.5q11 -42 -6 -76t-50 -24q-30 12 -36 56t14 71q-9 5 -8.5 11t8.5 11q9 6 16 6zM1098 1028q-2 -2 -3.5 -2h-2.5t-2.5 -4t-2.5 -14v-21q3 -11 5.5 -17t3.5 -6l2 -1v0v0q7 7 7.5 28t-7.5 37zM1098 963z" />
    <glyph glyph-name="plusminus" unicode="&#xb1;" horiz-adv-x="1372" 
d="M1198 809q8 0 14 -7t5 -14q0 -10 0.5 -10.5t-1 -12t-3 -20t-5.5 -35t-8 -57.5q74 3 94 -8q10 -7 0 -14q-20 -12 -98 -15q-2 -13 -3 -30t-2 -23t-4 -16t-9 -21q-5 -9 -14 -7.5t-11 9.5q-4 11 -5 23.5t-0.5 21t3.5 39.5q-18 -1 -40.5 -2.5t-25 -1.5t-18.5 2q-10 3 -9.5 15
t11.5 14q10 4 86 10q14 126 27 150q5 10 16 10zM1139 446h41q20 0 30 -4q11 0 15 -2q7 -2 7 -9t-7 -9q-8 -4 -13 -4q-1 -1 -30 -8q-69 -12 -96.5 -11.5t-30.5 19.5q-1 7 4 15t12 9q18 4 68 4z" />
    <glyph glyph-name="twosuperior" unicode="&#xb2;" horiz-adv-x="1351" 
d="M1114 1075q40 0 66 -33q45 -62 -19 -165q-1 -2 2 -2.5l12 -2t20.5 -4t30 -11t38.5 -21.5q6 -4 2.5 -10.5t-9.5 -4.5q-27 5 -58.5 15.5t-53.5 11.5q-21 -29 -37 -43q-13 -12 -33 -11t-28 19q-12 24 15.5 41.5t61.5 19.5q32 58 37 91q2 25 -9.5 48t-35.5 19q-34 -8 -8 -41
q12 -5 10.5 -15.5t-12.5 -12.5q-25 -3 -40 13t-15 40q0 25 18.5 41t44.5 18zM1104 844q-11 -2 -23.5 -8.5t-9.5 -10.5q5 -9 16.5 0.5t16.5 18.5z" />
    <glyph glyph-name="threesuperior" unicode="&#xb3;" horiz-adv-x="1275" 
d="M1149 1071q21 0 32 -14t5 -39q-2 -4 -29 -43q41 -8 45 -45.5t-30 -60.5q-27 -18 -66 -11q-36 4 -51 25q-6 13 8 20q9 2 17.5 1t19.5 -3t14 -2q23 -3 38 4.5t16.5 17.5t-3.5 19q-3 3 -13 4.5t-13 3.5q-9 5 -13 14.5t0 18.5q3 11 17.5 29.5t11.5 27.5q-3 7 -22 -0.5
t-31 -19.5q-8 -8 -17.5 -1.5t-3.5 15.5q26 39 68 39z" />
    <glyph glyph-name="acute" unicode="&#xb4;" horiz-adv-x="1200" 
d="M1108 1122q16 0 16 -16q-2 -33 -14 -70q-20 -59 -43 -61q-6 0 -12 6q-5 12 6 39q20 44 31 90q3 12 16 12z" />
    <glyph glyph-name="mu" unicode="&#xb5;" horiz-adv-x="1566" 
d="M1235 987q18 0 22 -22q2 -27 -30 -172q-9 -45 -18 -85t-13 -58t-7.5 -33.5t-4 -22.5t-0.5 -12.5t2 -14.5q7 -36 31.5 -51t46.5 -4q18 9 54.5 68.5t53.5 95.5q4 9 19 68t34.5 117t38.5 79q6 7 14 4.5t11 -10.5q9 2 -4 -58.5t-48 -220.5t-63 -319q-4 -25 -10 -59
q-8 -55 -17 -75q-1 -1 -2 -4l-2 -5q-5 -9 -14.5 -7t-11.5 11q-8 32 6 168q15 138 40 245q3 15 2.5 15t-6.5 -11q-16 -30 -32 -55q-31 -46 -41 -55q-28 -27 -66 -15t-53 50q-36 -142 -69 -260q-16 -57 -27 -68q-5 -4 -9.5 -2.5t-6.5 6.5q-3 10 1 35t27 131q30 141 71 332
q41 196 52 234t27 40h2z" />
    <glyph glyph-name="paragraph" unicode="&#xb6;" horiz-adv-x="1687" 
d="M1421 1079q62 0 110 -38t66 -109q7 -37 8.5 -77.5t-12 -81t-41.5 -58.5q-12 -8 -23 10q-13 27 7 47q2 2 4 0.5t2 -4.5q-3 -10 2 -18q20 29 23.5 79t-8.5 99t-51.5 83.5t-98.5 30.5q-71 -4 -129.5 -54t-84.5 -115t-16 -132.5t64 -101.5q42 252 48 270q2 7 5 13
q9 18 29.5 10t17.5 -27q2 -27 -53 -284q12 -5 35 -5q6 1 8.5 -3t1 -9.5t-7.5 -7.5q-14 -4 -43 -4q-33 -161 -53 -254q28 4 76 8q14 95 51.5 291t56.5 256q3 9 12 11.5t16.5 -2t6.5 -13.5q-3 -28 -13.5 -79t-13.5 -69q-42 -212 -75 -354q-7 -37 -4 -37h2q78 7 94 2
q5 -2 6.5 -7.5t-4.5 -8.5q-24 -10 -109 -19q-8 -33 -12.5 -50.5t-5.5 -19l-2 -3t-2 -6.5q-3 -6 -10 -5t-7 7v8t-0.5 4t1 16t5.5 43l1 1q1 2 -2 2q-8 0 -74 -9q-3 -14 -9.5 -41.5t-9.5 -40.5q-2 -8 -10 -10.5t-14.5 2.5t-5.5 16q8 47 10 70q-33 -6 -103 -14q-5 -5 -12 -2h-6
q-8 -3 -13.5 3.5t-4 14.5t9.5 10q67 15 135 21q25 145 45 272q-53 27 -77.5 88t-9 141t76.5 148q83 99 194 96z" />
    <glyph glyph-name="periodcentered" unicode="&#xb7;" horiz-adv-x="1204" 
d="M1090 727q12 0 18 -6q8 -5 11 -16.5t-1 -20.5q-6 -18 -32 -26t-35 8q-13 15 2.5 38t36.5 23z" />
    <glyph glyph-name="cedilla" unicode="&#xb8;" horiz-adv-x="1275" 
d="M1128 477q6 0 11.5 -4t5.5 -10q0 -10 -3 -31t-3 -45q28 -4 45.5 -30.5t19 -57.5t-17.5 -58.5t-56 -31.5q-22 -3 -45 6.5t-30 28.5q-3 17 14 26q6 1 21.5 -0.5t29 -1t19.5 7.5q3 3 14 31q6 21 -3.5 34t-23.5 7q-9 -3 -16.5 4t-7.5 15q-4 66 16 102q3 8 10 8z" />
    <glyph glyph-name="onesuperior" unicode="&#xb9;" horiz-adv-x="1177" 
d="M1087 1071q12 0 15 -10q8 -35 2 -68q-2 -14 -16 -19.5t-25 5.5q-6 6 -6 20q4 36 18 64q3 8 12 8z" />
    <glyph glyph-name="ordmasculine" unicode="&#xba;" horiz-adv-x="1218" 
d="M1073 1092q34 -4 45 -43q4 -17 2 -38.5t-10 -33.5q-18 -30 -48 -24q-28 5 -32 37q-2 19 8 42q12 29 29 31q-4 2 -6 2q-15 6 -10 16q7 11 22 11zM1083 1047q0 -4 -1.5 -6t-3.5 -1.5t-3 2.5q-17 -20 -10 -55l4 -2q10 0 15 14q2 7 3 17q0 23 -4 31z" />
    <glyph glyph-name="guillemotright" unicode="&#xbb;" horiz-adv-x="1409" 
d="M1153 739q4 0 8 -4q8 -9 27 -36t46.5 -59.5t63.5 -64.5q3 -2 10 -7.5t11 -8.5t8 -8.5t4 -11.5q0 -7 -3.5 -15t-9 -18t-7.5 -14q-41 -77 -94 -140q-10 -13 -16 -18t-13 -8t-14 -9q-3 -1 -6.5 2.5t-2.5 6.5q1 4 3.5 13.5t6 18t14.5 28t35 55.5t62 89l2 2q2 2 -5 8
q-16 13 -34 29q-34 31 -67.5 74t-44.5 78q-3 7 2.5 12.5t13.5 5.5zM1079 715q10 0 13 -8q2 -3 14.5 -20.5t22 -30t25 -31.5t32.5 -36.5t35 -33.5q5 -3 4 -9t-6 -9q-11 -7 -60 -63t-74 -93q-10 -17 -26 -8t-8 28q21 51 63 93q10 11 19 19t17.5 14t13 8.5t14 7.5t10.5 6
q-89 71 -125 139q-6 10 0 18.5t16 8.5z" />
    <glyph glyph-name="onequarter" unicode="&#xbc;" horiz-adv-x="1570" 
d="M1280 1067q11 0 19 -9t4 -20q-5 -22 -11 -37t-12.5 -26.5t-22.5 -42.5t-34 -72q-15 -32 -28 -63.5t-19 -47t-12.5 -29t-12 -20t-12.5 -10.5q-6 -4 -15 -2t-12 8q-15 33 18.5 122.5t67.5 150.5q-32 -18 -61 -23q-7 -1 -11.5 4t-3.5 11t8 8q50 11 95 47q7 12 17 23t16 17
l6 5q6 6 16 6zM1401 1059q15 0 18 -12q2 -15 -28.5 -89.5t-87.5 -209.5t-97 -242q-39 -106 -65.5 -184t-38.5 -113.5t-19 -54.5q-5 -14 -19 -10.5t-11 18.5q21 81 163.5 476t176.5 419q2 2 8 2zM1452 639q6 0 10 -5t4 -11q6 1 -9 -29.5t-49 -82t-73 -97.5q52 4 88 -2
q1 5 7 26.5t10.5 37t11 32.5t12.5 24q7 9 20 4t11 -16q1 -8 -0.5 -15.5t-6 -26.5t-11 -45t-19 -84t-26.5 -130q-18 -82 -23 -90l-6 -6q-4 -5 -11 -4.5t-10 6.5q-7 14 1 74.5t17.5 106t16.5 75.5q-63 7 -112 0q-11 -1 -16 7.5t1 17.5q42 53 76.5 107.5t52 84.5t23.5 35
q6 6 10 6z" />
    <glyph glyph-name="onehalf" unicode="&#xbd;" horiz-adv-x="1609" 
d="M1395 1073q6 0 10 -2q15 -8 10.5 -27t-43.5 -115q-85 -210 -164 -419q-42 -114 -76.5 -212t-48.5 -134q-6 -15 -22 -11t-12 21q33 116 138 403.5t171 442.5q1 2 3.5 8t3.5 9t3 8t3.5 7.5t4 6.5t4.5 6t4.5 4t5 3t5.5 1zM1270 1057q13 0 16 -13q5 -22 -18 -79
q-20 -53 -37.5 -99.5t-25 -68.5t-14 -39t-9.5 -23t-6 -10q-6 -6 -15.5 -7t-15.5 5q-9 9 -4 39q20 108 69 213q-38 -22 -41 -23q-7 -3 -12 1t-5 9t5 9q46 26 72 49q7 13 15 22t12 11.5t4 1.5q4 2 10 2zM1391 559q43 0 61 -41q20 -40 1 -113t-50 -124q74 -33 98 -39q4 -1 8 -3
t9 -5.5t8 -4.5q6 -2 5 -7t-7 -7q-24 -10 -56 2q-20 7 -82 41q-38 -56 -83.5 -85.5t-85.5 -0.5q-36 24 -23.5 69t61.5 63q46 16 105 -5q38 68 47 145q6 45 -6 58q-8 8 -15 4q-14 -7 -14 -14q2 -3 4 -11v2q6 0 2 -10q-4 -8 -14 -12q-18 -7 -33.5 14t0.5 49q24 35 60 35z
M1296 287q-45 1 -69.5 -30t-3.5 -54q14 -13 32.5 -10.5t34.5 14.5q34 27 56 69l-12 5q-12 4 -17 4q-8 2 -21 2z" />
    <glyph glyph-name="threequarters" unicode="&#xbe;" horiz-adv-x="1490" 
d="M1391 1094q11 0 19 -9t5 -22q-3 -15 -4 -21q0 -2 -3 -10q-11 -27 -27 -67t-81 -213t-159 -430q-39 -106 -50.5 -133t-23.5 -42q-3 -4 -7.5 -2t-4.5 7q0 25 23.5 92.5t100 282t158.5 462.5q7 22 13 39t9.5 27t6.5 16t4 8.5t2 1.5q6 13 19 13zM1210 1057h9q36 -7 44.5 -45
t-30.5 -84l-10 -13q23 -15 24.5 -42.5t-20.5 -49t-60 -20.5q-20 0 -42 8t-29 20q-7 17 8 21q7 3 45.5 -4t50.5 8q13 10 6 23q-1 3 -12 8.5t-16 15.5q-8 18 17.5 44.5t27.5 41.5q0 17 -9 23q-13 4 -40 -17q-13 -7 -24.5 1t-12 20t11.5 20q31 21 61 21zM1329 541q8 0 14 -6
t5 -13v-6l-22 -38q-83 -141 -79 -148q2 -5 16 -6t43.5 -1t41.5 -1q11 90 22 114q5 13 19.5 13.5t17.5 -13.5q26 -106 -12 -133q-22 -156 -39 -209q-5 -12 -17 -10t-14 14q0 4 -0.5 14t0.5 29q1 26 8.5 87.5t7.5 62.5h-32q-4 0 -20 -0.5t-24.5 0t-20.5 2.5t-20 8t-12 16
q-4 4 -2.5 15t2.5 15.5t5.5 15.5t5.5 14q24 58 57 110q27 43 39 52q2 0 5 1t5 1z" />
    <glyph glyph-name="questiondown" unicode="&#xbf;" horiz-adv-x="1542" 
d="M1384 993q13 -1 18 -9t3 -18t-8 -16t-16.5 -6t-16.5 6q-11 12 -2 28.5t22 14.5zM1372 889q7 0 13 -4.5t8.5 -13.5t1 -21t-11 -28.5t-25.5 -33.5q-31 -33 -101.5 -82.5t-89.5 -66.5q-78 -67 -123 -152t-22 -165q15 -59 52.5 -79.5t80 -5.5t86 55.5t72.5 96.5q15 32 33 55
q8 12 21 9t13 -17q2 -63 -63 -143.5t-143 -99.5q-47 -11 -86 3t-62 48t-31.5 79t4.5 100.5t48 108.5q32 51 78.5 96.5t83.5 72.5t72.5 63.5t51.5 75.5q1 2 3 8.5t3.5 10t4.5 9.5t6 9.5t7.5 7t10.5 4.5h4z" />
    <glyph glyph-name="Agrave" unicode="&#xc0;" horiz-adv-x="831" 
d="M862 1092q10 0 18 -8.5t5 -18.5q-10 -31 -92 -208t-121 -298q133 5 209 -10q4 -2 3.5 -6t-5.5 -6q-20 -1 -81 3t-130 1q-87 -279 -45 -521q1 -5 -3 -8t-8.5 -2t-5.5 6q-50 231 25 525q-22 -1 -107 -11q-273 -403 -420 -434q-43 -9 -72.5 16.5t-35.5 69.5q-8 51 24 178
q31 101 83 185.5t90 113.5q9 8 18.5 1t3.5 -19q-19 -29 -25 -39q-2 -2 -6 -2q-133 -165 -161 -360q-10 -64 10.5 -95t56.5 -28q132 8 412 409q-88 -11 -150 -26q13 0 19 -2q4 -1 2 -4q-23 -5 -84 -9q-8 0 -8.5 8t6.5 11q127 34 229 45q61 89 115 172.5t91 145t61.5 103.5
t43 76t19.5 35q3 11 16 11zM735 848q-2 -1 -19 -28t-67 -103.5t-110 -165.5q34 4 98 8q20 75 45.5 148.5t39.5 107t13 33.5zM829 1249q12 0 15 -12q14 -33 27 -55.5t18.5 -32.5t7.5 -19q0 -6 -7 -11t-13 -3q-20 7 -40.5 45t-25.5 66q-1 10 4.5 16t13.5 6z" />
    <glyph glyph-name="Aacute" unicode="&#xc1;" horiz-adv-x="831" 
d="M862 1092q10 0 18 -8.5t5 -18.5q-10 -31 -92 -208t-121 -298q133 5 209 -10q4 -2 3.5 -6t-5.5 -6q-20 -1 -81 3t-130 1q-87 -279 -45 -521q1 -5 -3 -8t-8.5 -2t-5.5 6q-50 231 25 525q-22 -1 -107 -11q-273 -403 -420 -434q-43 -9 -72.5 16.5t-35.5 69.5q-8 51 24 178
q31 101 83 185.5t90 113.5q9 8 18.5 1t3.5 -19q-19 -29 -25 -39q-2 -2 -6 -2q-133 -165 -161 -360q-10 -64 10.5 -95t56.5 -28q132 8 412 409q-88 -11 -150 -26q13 0 19 -2q4 -1 2 -4q-23 -5 -84 -9q-8 0 -8.5 8t6.5 11q127 34 229 45q61 89 115 172.5t91 145t61.5 103.5
t43 76t19.5 35q3 11 16 11zM735 848q-2 -1 -19 -28t-67 -103.5t-110 -165.5q34 4 98 8q20 75 45.5 148.5t39.5 107t13 33.5zM905 1266q6 0 11.5 -5t5.5 -12q-3 -32 -15 -69q-21 -60 -43 -62q-6 0 -12 6q-5 12 6 39q20 44 31 90q3 13 16 13z" />
    <glyph glyph-name="Acircumflex" unicode="&#xc2;" horiz-adv-x="831" 
d="M862 1092q10 0 18 -8.5t5 -18.5q-10 -31 -92 -208t-121 -298q133 5 209 -10q4 -2 3.5 -6t-5.5 -6q-20 -1 -81 3t-130 1q-87 -279 -45 -521q1 -5 -3 -8t-8.5 -2t-5.5 6q-50 231 25 525q-22 -1 -107 -11q-273 -403 -420 -434q-43 -9 -72.5 16.5t-35.5 69.5q-8 51 24 178
q31 101 83 185.5t90 113.5q9 8 18.5 1t3.5 -19q-19 -29 -25 -39q-2 -2 -6 -2q-133 -165 -161 -360q-10 -64 10.5 -95t56.5 -28q132 8 412 409q-88 -11 -150 -26q13 0 19 -2q4 -1 2 -4q-23 -5 -84 -9q-8 0 -8.5 8t6.5 11q127 34 229 45q61 89 115 172.5t91 145t61.5 103.5
t43 76t19.5 35q3 11 16 11zM735 848q-2 -1 -19 -28t-67 -103.5t-110 -165.5q34 4 98 8q20 75 45.5 148.5t39.5 107t13 33.5zM877 1219q13 2 45 -25q4 -3 10.5 -7.5t10 -7t9 -6t8 -6t6 -5.5t5.5 -5.5t3.5 -5.5t2 -6t0.5 -6q0 -14 -10 -17q-13 -4 -29.5 5.5t-69.5 54.5
q-4 -1 -36.5 -21t-49.5 -26q-8 -3 -12 5.5t2 14.5q8 7 26.5 20t20.5 15q6 3 22.5 14.5t26.5 14.5h9z" />
    <glyph glyph-name="Atilde" unicode="&#xc3;" horiz-adv-x="831" 
d="M862 1092q10 0 18 -8.5t5 -18.5q-10 -31 -92 -208t-121 -298q133 5 209 -10q4 -2 3.5 -6t-5.5 -6q-20 -1 -81 3t-130 1q-87 -279 -45 -521q1 -5 -3 -8t-8.5 -2t-5.5 6q-50 231 25 525q-22 -1 -107 -11q-273 -403 -420 -434q-43 -9 -72.5 16.5t-35.5 69.5q-8 51 24 178
q31 101 83 185.5t90 113.5q9 8 18.5 1t3.5 -19q-19 -29 -25 -39q-2 -2 -6 -2q-133 -165 -161 -360q-10 -64 10.5 -95t56.5 -28q132 8 412 409q-88 -11 -150 -26q13 0 19 -2q4 -1 2 -4q-23 -5 -84 -9q-8 0 -8.5 8t6.5 11q127 34 229 45q61 89 115 172.5t91 145t61.5 103.5
t43 76t19.5 35q3 11 16 11zM735 848q-2 -1 -19 -28t-67 -103.5t-110 -165.5q34 4 98 8q20 75 45.5 148.5t39.5 107t13 33.5zM776 1239q38 -1 104.5 -38.5t94.5 -41.5q27 -5 55.5 5t36.5 10q11 0 10 -12q-3 -23 -51 -34q-45 -11 -89 5t-86 40t-71 27q-21 3 -39.5 -7
t-21.5 -30q-2 -10 -11 -9t-12 9q-10 21 4 40t37 28q16 8 39 8z" />
    <glyph glyph-name="Adieresis" unicode="&#xc4;" horiz-adv-x="831" 
d="M862 1092q10 0 18 -8.5t5 -18.5q-10 -31 -92 -208t-121 -298q133 5 209 -10q4 -2 3.5 -6t-5.5 -6q-20 -1 -81 3t-130 1q-87 -279 -45 -521q1 -5 -3 -8t-8.5 -2t-5.5 6q-50 231 25 525q-22 -1 -107 -11q-273 -403 -420 -434q-43 -9 -72.5 16.5t-35.5 69.5q-8 51 24 178
q31 101 83 185.5t90 113.5q9 8 18.5 1t3.5 -19q-19 -29 -25 -39q-2 -2 -6 -2q-133 -165 -161 -360q-10 -64 10.5 -95t56.5 -28q132 8 412 409q-88 -11 -150 -26q13 0 19 -2q4 -1 2 -4q-23 -5 -84 -9q-8 0 -8.5 8t6.5 11q127 34 229 45q61 89 115 172.5t91 145t61.5 103.5
t43 76t19.5 35q3 11 16 11zM735 848q-2 -1 -19 -28t-67 -103.5t-110 -165.5q34 4 98 8q20 75 45.5 148.5t39.5 107t13 33.5zM918 1206q14 0 24 -10q15 -20 5.5 -40t-29 -23.5t-35.5 8.5q-9 13 -9 20q-4 14 7 25q2 3 14 12q11 8 23 8zM817 1192q23 0 29 -16q12 -24 -4 -48
q-17 -17 -40 -6.5t-20 35.5q5 19 9 23q9 12 26 12z" />
    <glyph glyph-name="Aring" unicode="&#xc5;" horiz-adv-x="831" 
d="M862 1092q10 0 18 -8.5t5 -18.5q-10 -31 -92 -208t-121 -298q133 5 209 -10q4 -2 3.5 -6t-5.5 -6q-20 -1 -81 3t-130 1q-87 -279 -45 -521q1 -5 -3 -8t-8.5 -2t-5.5 6q-50 231 25 525q-22 -1 -107 -11q-273 -403 -420 -434q-43 -9 -72.5 16.5t-35.5 69.5q-8 51 24 178
q31 101 83 185.5t90 113.5q9 8 18.5 1t3.5 -19q-19 -29 -25 -39q-2 -2 -6 -2q-133 -165 -161 -360q-10 -64 10.5 -95t56.5 -28q132 8 412 409q-88 -11 -150 -26q13 0 19 -2q4 -1 2 -4q-23 -5 -84 -9q-8 0 -8.5 8t6.5 11q127 34 229 45q61 89 115 172.5t91 145t61.5 103.5
t43 76t19.5 35q3 11 16 11zM735 848q-2 -1 -19 -28t-67 -103.5t-110 -165.5q34 4 98 8q20 75 45.5 148.5t39.5 107t13 33.5zM846 1280q19 0 37 -16.5t24 -38.5q11 -42 -6 -76.5t-49 -24.5q-30 12 -36.5 56t13.5 71q-9 5 -8.5 11.5t8.5 11.5q9 6 17 6zM866 1229
q-2 -2 -3.5 -2t-2 -0.5t-2 -4.5t-2.5 -14v-20l10 -25v0v0q7 7 7.5 28.5t-7.5 37.5zM866 1163z" />
    <glyph glyph-name="AE" unicode="&#xc6;" horiz-adv-x="1431" 
d="M1034 1096q10 0 19 -6q119 0 188 -15q6 -1 5 -7.5t-7 -6.5q-22 1 -53 3t-59 3t-62 0q1 -12 -28 -63t-68 -116t-84.5 -161.5t-69.5 -183.5q24 0 64 -8q4 -1 3.5 -6t-5.5 -5h-68q-46 -173 -23 -310q21 -129 96 -137q50 -5 117 46q54 42 108.5 110.5t92.5 127.5t95.5 122
t119.5 99q4 2 7 0t3 -5.5t-4 -5.5q-54 -32 -106 -88.5t-93.5 -116t-82.5 -118t-91 -107t-102 -71.5q-51 -18 -87 -8.5t-59 47.5t-33.5 87t-12.5 109q-3 95 22 221q-35 2 -110 2q-87 -281 -45 -520q2 -9 -8 -11q-8 -2 -9 5q-50 232 25 524q-39 -2 -107 -10
q-279 -405 -420 -434q-43 -9 -72.5 16.5t-35.5 69.5q-9 65 29 189.5t110 222.5q34 49 57 65q9 8 19 1t4 -17t-25 -39q-3 -5 -6 -2q-133 -164 -162 -363q-15 -87 30 -114q56 -34 162 55q40 33 83 82q95 105 205 266q-88 -14 -150 -27q6 -2 19 -2q5 -3 2 -6q-32 -4 -84 -8
q-8 0 -8.5 8.5t6.5 9.5q131 35 229 46q191 279 309 493q9 17 27.5 9.5t13.5 -25.5q-10 -32 -82.5 -189t-111.5 -276q26 0 61 -1t49 -1q65 294 213 518q-72 -5 -169 -24t-130 -48q-13 -12 -15 -21t2 -11t-1 -5q-11 -4 -17 6.5t-4 22.5q8 36 85 62t143.5 34t126.5 11q9 6 20 6
zM733 834q-2 0 -18.5 -26.5t-66.5 -103.5t-111 -167q34 4 98 8q20 75 46 148.5t40 107t12 33.5z" />
    <glyph glyph-name="Ccedilla" unicode="&#xc7;" horiz-adv-x="722" 
d="M426 1073q71 -1 106 -51.5t7 -91.5q-11 -18 -32.5 -12.5t-21.5 26.5v6q-1 2 -2 11.5t-5.5 17.5t-14.5 14q-47 31 -147 -25t-183 -171q-71 -98 -111.5 -205t-46.5 -192.5t7.5 -151.5t44.5 -98q63 -68 182 -11q63 31 124 79.5t117.5 112t97 116t93.5 126.5q5 7 12 6t9 -7
t-3 -13q-142 -181 -216 -260q-199 -209 -334 -209q0 -1 -1 -3q0 -4 2 -5q4 -1 9 -4q31 -28 8 -54q-19 -22 -48 -14q-20 6 -30 27q-13 25 2 33q13 6 21 -9l2 -6q4 -18 18.5 -21t18.5 9q3 5 -2 11.5t-9 6.5q-5 -2 -10.5 2.5t-5.5 10.5q0 3 1 8.5t1 7.5q-114 16 -137 184
q-21 134 1 259t72 216.5t116.5 163t134.5 111t126 47.5q10 2 27 2zM72 61z" />
    <glyph glyph-name="Egrave" unicode="&#xc8;" 
d="M399 1110q9 0 17 -4q3 -1 32 -1.5t75 -3.5t83 -11q7 -2 6.5 -9.5t-8.5 -7.5q-20 1 -75 4.5t-97 3.5q2 -12 -35.5 -75.5t-95.5 -168.5t-92 -194q12 1 33.5 3t33.5 3q86 5 95 -4q7 -3 0 -10q-4 -4 -9 -5t-16.5 -1.5t-26.5 -1t-47 -3t-71 -6.5q-61 -174 -53 -336
q8 -156 79 -186q55 -24 140 41q53 41 105.5 107t88 122t91.5 117t118 97q4 2 7 0t3 -5.5t-4 -5.5q-53 -30 -100.5 -79t-77.5 -94.5t-73.5 -107t-80.5 -102.5q-69 -75 -131 -103t-110.5 3.5t-69.5 126.5q-35 157 27 401q-36 -5 -142 -27q-20 -4 -20 3v2q2 16 78 31
q68 13 90 16q64 245 194 438q-245 -23 -299 -71q-13 -12 -15 -21t2 -11t-1 -5q-12 -4 -17 5.5t-3 20.5q6 28 50 50t105.5 33.5t110 17.5t88.5 8q9 6 18 6zM360 1292q12 0 15 -12q14 -33 27 -55.5t18.5 -32t7.5 -18.5q0 -6 -7 -11t-13 -4q-20 7 -40.5 45t-25.5 66
q-1 10 4.5 16t13.5 6z" />
    <glyph glyph-name="Eacute" unicode="&#xc9;" 
d="M399 1110q9 0 17 -4q3 -1 32 -1.5t75 -3.5t83 -11q7 -2 6.5 -9.5t-8.5 -7.5q-20 1 -75 4.5t-97 3.5q2 -12 -35.5 -75.5t-95.5 -168.5t-92 -194q12 1 33.5 3t33.5 3q86 5 95 -4q7 -3 0 -10q-4 -4 -9 -5t-16.5 -1.5t-26.5 -1t-47 -3t-71 -6.5q-61 -174 -53 -336
q8 -156 79 -186q55 -24 140 41q53 41 105.5 107t88 122t91.5 117t118 97q4 2 7 0t3 -5.5t-4 -5.5q-53 -30 -100.5 -79t-77.5 -94.5t-73.5 -107t-80.5 -102.5q-69 -75 -131 -103t-110.5 3.5t-69.5 126.5q-35 157 27 401q-36 -5 -142 -27q-20 -4 -20 3v2q2 16 78 31
q68 13 90 16q64 245 194 438q-245 -23 -299 -71q-13 -12 -15 -21t2 -11t-1 -5q-12 -4 -17 5.5t-3 20.5q6 28 50 50t105.5 33.5t110 17.5t88.5 8q9 6 18 6zM436 1309q6 0 11.5 -5t5.5 -12q-3 -32 -15 -69q-21 -60 -43 -62q-6 0 -12 6q-5 12 6 39q20 44 31 90q3 13 16 13z" />
    <glyph glyph-name="Ecircumflex" unicode="&#xca;" 
d="M399 1110q9 0 17 -4q3 -1 32 -1.5t75 -3.5t83 -11q7 -2 6.5 -9.5t-8.5 -7.5q-20 1 -75 4.5t-97 3.5q2 -12 -35.5 -75.5t-95.5 -168.5t-92 -194q12 1 33.5 3t33.5 3q86 5 95 -4q7 -3 0 -10q-4 -4 -9 -5t-16.5 -1.5t-26.5 -1t-47 -3t-71 -6.5q-61 -174 -53 -336
q8 -156 79 -186q55 -24 140 41q53 41 105.5 107t88 122t91.5 117t118 97q4 2 7 0t3 -5.5t-4 -5.5q-53 -30 -100.5 -79t-77.5 -94.5t-73.5 -107t-80.5 -102.5q-69 -75 -131 -103t-110.5 3.5t-69.5 126.5q-35 157 27 401q-36 -5 -142 -27q-20 -4 -20 3v2q2 16 78 31
q68 13 90 16q64 245 194 438q-245 -23 -299 -71q-13 -12 -15 -21t2 -11t-1 -5q-12 -4 -17 5.5t-3 20.5q6 28 50 50t105.5 33.5t110 17.5t88.5 8q9 6 18 6zM408 1262q13 2 45 -25q4 -3 10.5 -7.5t10 -7t9 -6t8 -6t6 -5.5t5.5 -5.5t3.5 -5.5t2 -6t0.5 -6q0 -14 -10 -17
q-13 -4 -29.5 5.5t-69.5 54.5q-4 -1 -36.5 -21t-49.5 -26q-7 -3 -11.5 5.5t1.5 14.5q8 7 26.5 20t20.5 15q6 3 22.5 14.5t26.5 14.5h9z" />
    <glyph glyph-name="Edieresis" unicode="&#xcb;" 
d="M399 1110q9 0 17 -4q3 -1 32 -1.5t75 -3.5t83 -11q7 -2 6.5 -9.5t-8.5 -7.5q-20 1 -75 4.5t-97 3.5q2 -12 -35.5 -75.5t-95.5 -168.5t-92 -194q12 1 33.5 3t33.5 3q86 5 95 -4q7 -3 0 -10q-4 -4 -9 -5t-16.5 -1.5t-26.5 -1t-47 -3t-71 -6.5q-61 -174 -53 -336
q8 -156 79 -186q55 -24 140 41q53 41 105.5 107t88 122t91.5 117t118 97q4 2 7 0t3 -5.5t-4 -5.5q-53 -30 -100.5 -79t-77.5 -94.5t-73.5 -107t-80.5 -102.5q-69 -75 -131 -103t-110.5 3.5t-69.5 126.5q-35 157 27 401q-36 -5 -142 -27q-20 -4 -20 3v2q2 16 78 31
q68 13 90 16q64 245 194 438q-245 -23 -299 -71q-13 -12 -15 -21t2 -11t-1 -5q-12 -4 -17 5.5t-3 20.5q6 28 50 50t105.5 33.5t110 17.5t88.5 8q9 6 18 6zM449 1249q14 0 24 -10q15 -20 5.5 -40t-29 -23.5t-35.5 8.5q-8 12 -8 20q-4 15 6 25q2 3 14 12q11 8 23 8zM348 1235
q23 0 29 -16q12 -24 -4 -48q-17 -17 -40 -6.5t-20 35.5q5 19 9 23q9 12 26 12z" />
    <glyph glyph-name="Igrave" unicode="&#xcc;" 
d="M322 1110q69 -1 276 -33q19 10 35 -6q111 -18 195.5 -21.5t118.5 1.5t76 16.5t52 13.5q7 1 9.5 -4t-3.5 -10q-20 -16 -67 -27q-56 -14 -126.5 -14.5t-118.5 4.5t-128 17q-1 -11 -63 -205q-68 -217 -113.5 -386t-61.5 -236t-26 -89q-5 -7 -13 -4.5t-8 10.5q0 53 88.5 415
t137.5 505q-75 12 -130.5 17.5t-130 6.5t-138 -15.5t-111.5 -49.5q-58 -41 -42 -83q10 -25 34 -27q13 1 22 9q4 3 9 0.5t3 -6.5q-10 -28 -41 -32.5t-51 16.5q-27 29 -22.5 64.5t30.5 62.5q34 34 106.5 57.5t137.5 28.5q40 4 64 4zM575 1284q12 0 15 -12q14 -33 27 -55.5
t18.5 -32.5t7.5 -19q0 -6 -7 -11t-13 -3q-20 7 -40.5 45t-25.5 66q-1 10 4.5 16t13.5 6z" />
    <glyph glyph-name="Iacute" unicode="&#xcd;" 
d="M322 1110q69 -1 276 -33q19 10 35 -6q111 -18 195.5 -21.5t118.5 1.5t76 16.5t52 13.5q7 1 9.5 -4t-3.5 -10q-20 -16 -67 -27q-56 -14 -126.5 -14.5t-118.5 4.5t-128 17q-1 -11 -63 -205q-68 -217 -113.5 -386t-61.5 -236t-26 -89q-5 -7 -13 -4.5t-8 10.5q0 53 88.5 415
t137.5 505q-75 12 -130.5 17.5t-130 6.5t-138 -15.5t-111.5 -49.5q-58 -41 -42 -83q10 -25 34 -27q13 1 22 9q4 3 9 0.5t3 -6.5q-10 -28 -41 -32.5t-51 16.5q-27 29 -22.5 64.5t30.5 62.5q34 34 106.5 57.5t137.5 28.5q40 4 64 4zM651 1300q6 0 11.5 -4.5t5.5 -11.5
q-3 -33 -15 -70q-20 -59 -43 -61q-6 0 -12 6q-5 12 6 39q20 44 31 90q3 12 16 12z" />
    <glyph glyph-name="Icircumflex" unicode="&#xce;" 
d="M322 1110q69 -1 276 -33q19 10 35 -6q111 -18 195.5 -21.5t118.5 1.5t76 16.5t52 13.5q7 1 9.5 -4t-3.5 -10q-20 -16 -67 -27q-56 -14 -126.5 -14.5t-118.5 4.5t-128 17q-1 -11 -63 -205q-68 -217 -113.5 -386t-61.5 -236t-26 -89q-5 -7 -13 -4.5t-8 10.5q0 53 88.5 415
t137.5 505q-75 12 -130.5 17.5t-130 6.5t-138 -15.5t-111.5 -49.5q-58 -41 -42 -83q10 -25 34 -27q13 1 22 9q4 3 9 0.5t3 -6.5q-10 -28 -41 -32.5t-51 16.5q-27 29 -22.5 64.5t30.5 62.5q34 34 106.5 57.5t137.5 28.5q40 4 64 4zM623 1253q14 2 45 -24q4 -3 10.5 -7.5
t10 -7t9 -6t8 -6t6 -5.5t5.5 -5.5t3.5 -5.5t2 -6t0.5 -6q0 -14 -10 -17q-13 -4 -29.5 5.5t-69.5 54.5q-4 -1 -36.5 -21.5t-49.5 -26.5q-7 -3 -11.5 6t1.5 15q8 7 26.5 20t20.5 15q5 3 22 14t27 14h9z" />
    <glyph glyph-name="Idieresis" unicode="&#xcf;" 
d="M322 1110q69 -1 276 -33q19 10 35 -6q111 -18 195.5 -21.5t118.5 1.5t76 16.5t52 13.5q7 1 9.5 -4t-3.5 -10q-20 -16 -67 -27q-56 -14 -126.5 -14.5t-118.5 4.5t-128 17q-1 -11 -63 -205q-68 -217 -113.5 -386t-61.5 -236t-26 -89q-5 -7 -13 -4.5t-8 10.5q0 53 88.5 415
t137.5 505q-75 12 -130.5 17.5t-130 6.5t-138 -15.5t-111.5 -49.5q-58 -41 -42 -83q10 -25 34 -27q13 1 22 9q4 3 9 0.5t3 -6.5q-10 -28 -41 -32.5t-51 16.5q-27 29 -22.5 64.5t30.5 62.5q34 34 106.5 57.5t137.5 28.5q40 4 64 4zM664 1241q14 0 24 -10q15 -20 5.5 -40
t-29 -23.5t-35.5 8.5q-8 12 -8 20q-4 15 6 25q2 3 14 12q11 8 23 8zM563 1227q22 0 29 -17q7 -22 5.5 -28.5t-9.5 -18.5q-17 -17 -40 -6.5t-20 35.5q4 17 9 22q10 13 26 13z" />
    <glyph glyph-name="Eth" unicode="&#xd0;" horiz-adv-x="909" 
d="M217 1102q15 0 23 -15l8 -16q7 -12 1 -23.5t-20 -13.5q-54 -163 -90 -370q10 2 45 2q65 163 166 280q138 161 209 133q34 -13 50 -66t18 -108q0 -64 -17 -159.5t-49 -186.5q99 4 162 21q5 1 7.5 -2t1.5 -6.5t-5 -4.5q-65 -18 -170 -22q-29 -79 -69.5 -154t-94.5 -145
t-123.5 -120t-144.5 -67q-124 -27 -217 39q-78 56 -85 142q-10 105 96 186q60 46 149 76q4 82 8 121q-78 -11 -166 -37q-14 -4 -22.5 5.5t-6 21.5t16.5 16q87 21 182 30q13 139 51 273q17 67 29 97.5t39 64.5q5 8 18 8zM524 1059q-26 -1 -62 -27t-61 -53
q-125 -128 -200 -311q154 0 194 -11q9 -5 8 -13.5t-10 -10.5q-5 -1 -32.5 1t-66.5 3.5t-106 -2.5q-22 -55 -36 -109q142 33 337 33q57 156 70 330q9 146 -16 164q-9 6 -19 6zM170 635q-21 -2 -35 -4q-9 -61 -14 -113q3 1 7 1q6 1 8 8q1 2 3 8q11 44 31 100zM463 545
q-164 0 -316 -35q-33 -134 -38 -281q1 -5 -2 -8.5t-7 -4.5t-8.5 -1t-7.5 2.5t-4 7.5q-16 89 -12 260q-53 -19 -100 -45.5t-85 -70t-41 -90.5q-5 -71 49 -125.5t146 -51.5q105 4 204 87.5t167 195.5q42 69 75 160h-20zM129 506q-2 -1 -5 -2t-5 -2q-1 -14 -3 -33l-2 -21
q1 2 3 12q7 26 12 46z" />
    <glyph glyph-name="Ntilde" unicode="&#xd1;" horiz-adv-x="778" 
d="M555 1126q10 0 14 -2q41 -10 54 -75q10 -52 0.5 -150t-24 -192t-16.5 -211.5t23 -208.5q16 -62 43 -94q36 -39 86 -51t96 18q5 3 10.5 0.5t7 -7t-2.5 -8.5q-60 -40 -122 -29t-106 60q-41 44 -65 103.5t-32.5 115t-6 132t8.5 129.5t17 133.5t15 119.5q8 88 12 115
q1 14 -1 26t-5.5 18t-7.5 12l-4 5q-13 12 -44 -10t-52 -45q-83 -86 -159 -235.5t-122 -294.5q-40 -125 -70.5 -268.5t-35.5 -208.5q0 -12 -11.5 -11.5t-13.5 11.5q-8 75 0.5 180t20.5 201t16.5 198t-15.5 206t-71 191q-12 22 9 36t36 -9q136 -193 78 -580q-15 -104 -28 -179
q-1 -9 -1 -8.5t1 6.5q34 154 85 296q50 145 130.5 292t168.5 226q47 47 84 47zM131 1309q38 -1 104.5 -38.5t94.5 -41.5q27 -5 55.5 4.5t36.5 9.5q11 0 9 -12q-3 -22 -50 -33q-45 -11 -89 5t-86 40t-71 27q-21 3 -39.5 -7t-21.5 -30q-2 -10 -11 -9t-12 9q-10 21 4 39.5
t37 27.5q18 9 39 9z" />
    <glyph glyph-name="Ograve" unicode="&#xd2;" horiz-adv-x="665" 
d="M451 1128q51 0 90 -26q29 -20 45 -51t18 -73.5t0.5 -69t-6.5 -72.5q-20 -181 -88 -343.5t-150 -259.5q-24 -28 -53.5 -50.5t-64 -38t-72 -15t-70.5 20.5q-12 9 -43 40q-21 26 -34 60t-15.5 62.5t-3.5 56t1 40t-1 15.5q-14 4 -14 18q-7 114 21.5 233.5t99 229t170.5 170.5
q90 56 170 53zM457 1106q-113 0 -218 -107.5t-151 -244.5q-25 -74 -37 -146q30 83 79 154.5t95 111.5q16 14 36.5 19.5t39.5 -4.5v2q9 -2 18 -18q6 -13 3 -27q-3 -10 -14.5 -14t-18.5 2q-7 -2 -17 -9l-10 -10t-22 -23t-28.5 -33t-34 -47.5t-34.5 -60.5q-62 -124 -70 -270
t52 -199q24 -20 57.5 -17t65.5 18t59 38q50 41 96 111t79.5 149t58 165.5t35.5 162.5t8.5 139t-19.5 96q-32 62 -102 62h-6zM408 1335q11 0 14 -12q14 -33 27 -55.5t18.5 -32t7.5 -18.5q0 -6 -7 -11.5t-13 -3.5q-20 7 -40.5 45t-25.5 66q-1 10 5 16t14 6z" />
    <glyph glyph-name="Oacute" unicode="&#xd3;" horiz-adv-x="665" 
d="M451 1128q51 0 90 -26q29 -20 45 -51t18 -73.5t0.5 -69t-6.5 -72.5q-20 -181 -88 -343.5t-150 -259.5q-24 -28 -53.5 -50.5t-64 -38t-72 -15t-70.5 20.5q-12 9 -43 40q-21 26 -34 60t-15.5 62.5t-3.5 56t1 40t-1 15.5q-14 4 -14 18q-7 114 21.5 233.5t99 229t170.5 170.5
q90 56 170 53zM457 1106q-113 0 -218 -107.5t-151 -244.5q-25 -74 -37 -146q30 83 79 154.5t95 111.5q16 14 36.5 19.5t39.5 -4.5v2q9 -2 18 -18q6 -13 3 -27q-3 -10 -14.5 -14t-18.5 2q-7 -2 -17 -9l-10 -10t-22 -23t-28.5 -33t-34 -47.5t-34.5 -60.5q-62 -124 -70 -270
t52 -199q24 -20 57.5 -17t65.5 18t59 38q50 41 96 111t79.5 149t58 165.5t35.5 162.5t8.5 139t-19.5 96q-32 62 -102 62h-6zM483 1352q6 0 11.5 -5t5.5 -12q-3 -32 -15 -69q-21 -60 -43 -62q-6 0 -12 6q-5 12 6 39q20 44 31 90q3 13 16 13z" />
    <glyph glyph-name="Ocircumflex" unicode="&#xd4;" horiz-adv-x="665" 
d="M451 1128q51 0 90 -26q29 -20 45 -51t18 -73.5t0.5 -69t-6.5 -72.5q-20 -181 -88 -343.5t-150 -259.5q-24 -28 -53.5 -50.5t-64 -38t-72 -15t-70.5 20.5q-12 9 -43 40q-21 26 -34 60t-15.5 62.5t-3.5 56t1 40t-1 15.5q-14 4 -14 18q-7 114 21.5 233.5t99 229t170.5 170.5
q90 56 170 53zM457 1106q-113 0 -218 -107.5t-151 -244.5q-25 -74 -37 -146q30 83 79 154.5t95 111.5q16 14 36.5 19.5t39.5 -4.5v2q9 -2 18 -18q6 -13 3 -27q-3 -10 -14.5 -14t-18.5 2q-7 -2 -17 -9l-10 -10t-22 -23t-28.5 -33t-34 -47.5t-34.5 -60.5q-62 -124 -70 -270
t52 -199q24 -20 57.5 -17t65.5 18t59 38q50 41 96 111t79.5 149t58 165.5t35.5 162.5t8.5 139t-19.5 96q-32 62 -102 62h-6zM455 1305q13 2 45 -25q4 -3 10.5 -7.5t10 -7t9 -6t8 -6t6 -5.5t5.5 -5.5t3.5 -5.5t2 -6t0.5 -6q0 -14 -10 -17q-13 -4 -29.5 5.5t-69.5 54.5
q-4 -1 -36.5 -21t-49.5 -26q-8 -3 -12 5.5t2 14.5q8 7 26.5 20t20.5 15q6 3 22.5 14.5t26.5 14.5h9z" />
    <glyph glyph-name="Otilde" unicode="&#xd5;" horiz-adv-x="665" 
d="M451 1128q51 0 90 -26q29 -20 45 -51t18 -73.5t0.5 -69t-6.5 -72.5q-20 -181 -88 -343.5t-150 -259.5q-24 -28 -53.5 -50.5t-64 -38t-72 -15t-70.5 20.5q-12 9 -43 40q-21 26 -34 60t-15.5 62.5t-3.5 56t1 40t-1 15.5q-14 4 -14 18q-7 114 21.5 233.5t99 229t170.5 170.5
q90 56 170 53zM457 1106q-113 0 -218 -107.5t-151 -244.5q-25 -74 -37 -146q30 83 79 154.5t95 111.5q16 14 36.5 19.5t39.5 -4.5v2q9 -2 18 -18q6 -13 3 -27q-3 -10 -14.5 -14t-18.5 2q-7 -2 -17 -9l-10 -10t-22 -23t-28.5 -33t-34 -47.5t-34.5 -60.5q-62 -124 -70 -270
t52 -199q24 -20 57.5 -17t65.5 18t59 38q50 41 96 111t79.5 149t58 165.5t35.5 162.5t8.5 139t-19.5 96q-32 62 -102 62h-6zM354 1325q38 -1 104.5 -38.5t94.5 -41.5q27 -5 55.5 5t36.5 10q11 0 10 -12q-3 -23 -51 -34q-45 -11 -89 5t-86 40t-71 27q-21 3 -39.5 -7
t-21.5 -30q-2 -10 -11 -9t-12 9q-10 21 4 40t37 28q16 8 39 8z" />
    <glyph glyph-name="Odieresis" unicode="&#xd6;" horiz-adv-x="665" 
d="M451 1128q51 0 90 -26q29 -20 45 -51t18 -73.5t0.5 -69t-6.5 -72.5q-20 -181 -88 -343.5t-150 -259.5q-24 -28 -53.5 -50.5t-64 -38t-72 -15t-70.5 20.5q-12 9 -43 40q-21 26 -34 60t-15.5 62.5t-3.5 56t1 40t-1 15.5q-14 4 -14 18q-7 114 21.5 233.5t99 229t170.5 170.5
q90 56 170 53zM457 1106q-113 0 -218 -107.5t-151 -244.5q-25 -74 -37 -146q30 83 79 154.5t95 111.5q16 14 36.5 19.5t39.5 -4.5v2q9 -2 18 -18q6 -13 3 -27q-3 -10 -14.5 -14t-18.5 2q-7 -2 -17 -9l-10 -10t-22 -23t-28.5 -33t-34 -47.5t-34.5 -60.5q-62 -124 -70 -270
t52 -199q24 -20 57.5 -17t65.5 18t59 38q50 41 96 111t79.5 149t58 165.5t35.5 162.5t8.5 139t-19.5 96q-32 62 -102 62h-6zM496 1292q14 0 24 -10q15 -20 5.5 -40t-29 -23.5t-35.5 8.5q-8 12 -8 20q-4 15 6 25q2 3 14 12q11 8 23 8zM395 1278q23 0 29 -16q12 -24 -4 -48
q-17 -17 -40 -6.5t-20 35.5q5 19 9 23q9 12 26 12z" />
    <glyph glyph-name="multiply" unicode="&#xd7;" horiz-adv-x="221" 
d="M49 713q25 0 53 -76q1 -4 2 -6q52 53 74 68.5t33 -1.5q2 -4 -0.5 -9.5t-7.5 -6.5q-2 -3 -8.5 -9.5t-27 -28t-48.5 -50.5q18 -44 39 -90q8 -18 -1.5 -31t-25 -12.5t-22.5 14.5q-5 13 -16.5 38.5t-16.5 37.5q-5 -6 -56 -51q-18 -13 -28 3q-7 13 4 21q8 7 67 66
q-8 28 -13.5 58.5t-6.5 33.5q0 1 -3 9.5t-3 13.5q0 8 8 8h4z" />
    <glyph glyph-name="Oslash" unicode="&#xd8;" horiz-adv-x="616" 
d="M524 1163q15 0 15 -12q-1 -13 -17 -49q48 -22 69.5 -69t19.5 -100t-7 -112q-22 -182 -89 -344t-148 -256q-39 -46 -91 -76.5t-102 -27.5q-5 -18 -15.5 -56.5t-15.5 -56.5q-2 -10 -11 -12t-16.5 4.5t-4.5 17.5q4 18 13 54t13 55q-37 11 -74 55q-21 25 -34 58.5t-15.5 62
t-3.5 56t1 40t-1 15.5q-12 3 -16 18q0 57 2 84q9 128 48.5 236t94.5 177.5t119 116.5t123.5 63.5t107.5 6.5q10 29 27 49q2 2 8 2zM457 1094q-111 -3 -214.5 -112t-148.5 -241q-26 -80 -37 -147q31 82 79.5 154.5t94.5 111.5q15 15 36.5 20t37.5 -6q-1 2 0 2q8 0 17 -15
q9 -14 4 -30q-1 -10 -12.5 -13.5t-18.5 1.5q-12 -4 -16 -8l-10 -10t-22 -23t-28.5 -33t-34 -47.5t-34.5 -60.5q-42 -82 -61.5 -185t-5.5 -188t64 -106q68 253 158 501.5t174 432.5q-4 0 -11.5 1t-10.5 1zM514 1083q-110 -260 -186 -468t-146 -463q96 0 190 118.5t153 292
t67 338.5q4 148 -78 182z" />
    <glyph glyph-name="Ugrave" unicode="&#xd9;" horiz-adv-x="782" 
d="M618 1133h9q19 -1 24 -20t-4 -32q-1 -2 -5.5 -6.5t-10.5 -13.5q-18 -36 -65.5 -183t-93 -337.5t-42.5 -286.5q3 -67 25 -121q20 -58 69 -12q23 22 59 85.5t56 108.5q4 8 33 72.5t52.5 106.5t55.5 84q3 4 7.5 2.5t6 -5.5t-0.5 -8q-42 -52 -85 -139t-70.5 -157t-64.5 -127
t-75 -66q-61 -14 -84 83q-33 142 14 435q23 144 55 250q-44 -77 -102 -181.5t-84 -150.5t-62.5 -104.5t-72.5 -108.5q-27 -39 -43.5 -59.5t-41.5 -40.5t-48 -23q-20 -3 -38.5 7t-27.5 28q-19 32 -20 94t12.5 137.5t33.5 157t46 161t48 140.5t40 105q3 7 8 18t8 18t8 17
t8 15.5t8.5 13.5t9 11t9 7.5t10 3t11.5 -1.5q26 -9 23 -34q-3 -21 -53 -140q-60 -144 -110 -287q-6 -18 -16.5 -47.5t-16 -46t-15 -46t-14 -46t-11 -46t-7.5 -47.5t-4 -48.5t1 -49.5q4 -51 30.5 -61t61.5 22q58 49 167 222t190 324t93 184q40 116 57 143q7 10 15 18
q9 9 24 9zM332 1352q11 0 14 -13q14 -33 27 -55.5t18.5 -32t7.5 -18.5q0 -6 -7 -11t-13 -3q-20 7 -40.5 44.5t-25.5 65.5q-1 10 5 16.5t14 6.5z" />
    <glyph glyph-name="Uacute" unicode="&#xda;" horiz-adv-x="782" 
d="M618 1133h9q19 -1 24 -20t-4 -32q-1 -2 -5.5 -6.5t-10.5 -13.5q-18 -36 -65.5 -183t-93 -337.5t-42.5 -286.5q3 -67 25 -121q20 -58 69 -12q23 22 59 85.5t56 108.5q4 8 33 72.5t52.5 106.5t55.5 84q3 4 7.5 2.5t6 -5.5t-0.5 -8q-42 -52 -85 -139t-70.5 -157t-64.5 -127
t-75 -66q-61 -14 -84 83q-33 142 14 435q23 144 55 250q-44 -77 -102 -181.5t-84 -150.5t-62.5 -104.5t-72.5 -108.5q-27 -39 -43.5 -59.5t-41.5 -40.5t-48 -23q-20 -3 -38.5 7t-27.5 28q-19 32 -20 94t12.5 137.5t33.5 157t46 161t48 140.5t40 105q3 7 8 18t8 18t8 17
t8 15.5t8.5 13.5t9 11t9 7.5t10 3t11.5 -1.5q26 -9 23 -34q-3 -21 -53 -140q-60 -144 -110 -287q-6 -18 -16.5 -47.5t-16 -46t-15 -46t-14 -46t-11 -46t-7.5 -47.5t-4 -48.5t1 -49.5q4 -51 30.5 -61t61.5 22q58 49 167 222t190 324t93 184q40 116 57 143q7 10 15 18
q9 9 24 9zM408 1368q16 0 16 -16q-2 -33 -14 -70q-20 -59 -43 -61q-7 0 -13 6q-5 12 6 39q20 44 31 90q3 12 17 12z" />
    <glyph glyph-name="Ucircumflex" unicode="&#xdb;" horiz-adv-x="782" 
d="M618 1133h9q19 -1 24 -20t-4 -32q-1 -2 -5.5 -6.5t-10.5 -13.5q-18 -36 -65.5 -183t-93 -337.5t-42.5 -286.5q3 -67 25 -121q20 -58 69 -12q23 22 59 85.5t56 108.5q4 8 33 72.5t52.5 106.5t55.5 84q3 4 7.5 2.5t6 -5.5t-0.5 -8q-42 -52 -85 -139t-70.5 -157t-64.5 -127
t-75 -66q-61 -14 -84 83q-33 142 14 435q23 144 55 250q-44 -77 -102 -181.5t-84 -150.5t-62.5 -104.5t-72.5 -108.5q-27 -39 -43.5 -59.5t-41.5 -40.5t-48 -23q-20 -3 -38.5 7t-27.5 28q-19 32 -20 94t12.5 137.5t33.5 157t46 161t48 140.5t40 105q3 7 8 18t8 18t8 17
t8 15.5t8.5 13.5t9 11t9 7.5t10 3t11.5 -1.5q26 -9 23 -34q-3 -21 -53 -140q-60 -144 -110 -287q-6 -18 -16.5 -47.5t-16 -46t-15 -46t-14 -46t-11 -46t-7.5 -47.5t-4 -48.5t1 -49.5q4 -51 30.5 -61t61.5 22q58 49 167 222t190 324t93 184q40 116 57 143q7 10 15 18
q9 9 24 9zM379 1321q13 2 45 -25q4 -3 10.5 -7.5t10 -7t9 -6t8 -6t6 -5.5t5.5 -5.5t3.5 -5.5t2 -6t0.5 -6q0 -13 -10 -16q-14 -5 -30 5t-68 54q-4 -1 -36.5 -21t-49.5 -26q-8 -3 -12.5 5.5t1.5 14.5q8 7 25.5 19t22.5 16q6 3 22.5 14.5t26.5 14.5h8z" />
    <glyph glyph-name="Udieresis" unicode="&#xdc;" horiz-adv-x="782" 
d="M618 1133h9q19 -1 24 -20t-4 -32q-1 -2 -5.5 -6.5t-10.5 -13.5q-18 -36 -65.5 -183t-93 -337.5t-42.5 -286.5q3 -67 25 -121q20 -58 69 -12q23 22 59 85.5t56 108.5q4 8 33 72.5t52.5 106.5t55.5 84q3 4 7.5 2.5t6 -5.5t-0.5 -8q-42 -52 -85 -139t-70.5 -157t-64.5 -127
t-75 -66q-61 -14 -84 83q-33 142 14 435q23 144 55 250q-44 -77 -102 -181.5t-84 -150.5t-62.5 -104.5t-72.5 -108.5q-27 -39 -43.5 -59.5t-41.5 -40.5t-48 -23q-20 -3 -38.5 7t-27.5 28q-19 32 -20 94t12.5 137.5t33.5 157t46 161t48 140.5t40 105q3 7 8 18t8 18t8 17
t8 15.5t8.5 13.5t9 11t9 7.5t10 3t11.5 -1.5q26 -9 23 -34q-3 -21 -53 -140q-60 -144 -110 -287q-6 -18 -16.5 -47.5t-16 -46t-15 -46t-14 -46t-11 -46t-7.5 -47.5t-4 -48.5t1 -49.5q4 -51 30.5 -61t61.5 22q58 49 167 222t190 324t93 184q40 116 57 143q7 10 15 18
q9 9 24 9zM420 1309q13 0 24 -11q15 -20 5.5 -40t-29 -23.5t-35.5 8.5q-8 12 -8 21q-4 14 6 24q2 3 14 12t23 9zM319 1294q23 0 29 -16q7 -22 5.5 -28.5t-9.5 -18.5q-17 -17 -39.5 -6.5t-19.5 35.5q5 19 8 22q9 12 26 12z" />
    <glyph glyph-name="Yacute" unicode="&#xdd;" horiz-adv-x="788" 
d="M215 1114q11 0 17.5 -6t4.5 -20t-16 -31q-90 -117 -127 -199q-57 -127 -67 -253q-14 -157 72 -168q18 -2 40 3q35 8 81.5 39t98 79.5t100 98.5t100.5 112.5t85 102.5t69 86t38 48q7 50 16 79q4 13 15.5 16.5t22 -3t11.5 -19.5q3 -72 -34.5 -247.5t-71.5 -276.5
q129 27 157 31q4 1 4 -3q1 -6 -4 -8q-22 -5 -42 -9.5t-54 -11t-67 -13.5q-2 -6 -6.5 -17.5t-6.5 -17.5q-35 -94 -79 -174t-89 -135.5t-93 -97.5t-91.5 -60t-85 -22.5t-72.5 14.5q-46 22 -57.5 65t20.5 115q41 84 128.5 152.5t178.5 107.5t197 68q8 28 15.5 54t13.5 46t12 45
t9.5 39t8.5 41t7.5 37.5t8 41.5t7 40t7.5 47t8 49q-280 -365 -465 -516q-48 -38 -91 -52t-74.5 -5.5t-54.5 35t-34 67.5q-30 117 12 277t141 270q40 46 66 57q2 0 5.5 1t4.5 1zM606 526q-320 -82 -452 -262q-23 -29 -39 -61t-16.5 -71t26.5 -64q26 -24 62.5 -26t67.5 9
t62 31q110 68 175.5 179.5t113.5 264.5zM492 1337q16 0 16 -16q-2 -33 -14 -70q-20 -59 -43 -61q-7 0 -13 6q-5 12 6 39q20 44 31 90q3 12 17 12z" />
    <glyph glyph-name="Thorn" unicode="&#xde;" horiz-adv-x="380" 
d="M178 1051q11 0 20.5 -8t8.5 -19q-1 -35 -25 -221q56 -3 102.5 -34.5t59.5 -82.5q14 -57 -11.5 -118t-84 -103.5t-131.5 -44.5q-7 -41 -13 -79.5t-9 -60t-6 -41t-4.5 -28.5t-3.5 -17t-4 -12.5t-5 -9.5q-4 -6 -12 -5.5t-9 7.5q-4 15 0 45q28 203 27 203q-65 7 -101 43
q-6 6 -1.5 12.5t10.5 3.5q75 -23 96 -24q12 96 33 305q-34 -12 -64.5 -38.5t-44.5 -53.5q-2 -5 -6.5 -20t-9.5 -23q-5 -11 -15 1q-18 22 3 64q12 22 34 43q45 45 103 60h2q2 0 4 17l6 46q21 151 25 172q3 21 26 21zM176 772q-13 -91 -53 -315q64 6 112.5 44.5t69.5 94.5
q29 80 -14 128t-115 48z" />
    <glyph glyph-name="germandbls" unicode="&#xdf;" horiz-adv-x="464" 
d="M332 1040q36 -1 66.5 -25t46 -63.5t-0.5 -100.5t-69 -126q-25 -32 -62 -61q69 -35 100 -105.5t20 -148.5t-58 -138q-40 -51 -95.5 -71t-115.5 6q-45 24 -56.5 77t13.5 95q24 44 77.5 64.5t108.5 0.5q11 -4 13.5 -13.5t-4 -16.5t-17.5 -4q-48 13 -97 -3.5t-67 -60.5
q-15 -42 6.5 -81.5t67.5 -43.5q54 -5 104 38.5t73 116.5t1 142q-11 36 -35.5 64.5t-56.5 38.5q-11 4 -45 4q-24 0 -31 22q-4 15 5 24.5t38 35t57 59.5l3 4q4 4 10.5 13.5t14 21t15.5 27t14 31t9 33.5t2 34q0 19 -14 41q-18 31 -49.5 33t-61.5 -21q-56 -37 -101.5 -124.5
t-71 -187.5t-42.5 -193t-25 -158.5t-10 -67.5h-4h4q1 -2 2 -2q5 -3 4.5 -9.5t-6.5 -9.5q-14 -5 -22 11q-11 21 8 131.5t35 175.5q69 288 157 399q58 70 107 86q18 6 35 6zM12 252l2 -2z" />
    <glyph glyph-name="agrave" unicode="&#xe0;" horiz-adv-x="434" 
d="M168 676q31 0 57 -23q8 -9 8.5 -21t-6 -21.5t-18.5 -12.5q10 -27 37 -42t59 -17q26 -1 52.5 6.5t56.5 20.5t37 16q4 2 7 -1t3 -8t-4 -8q-43 -26 -91 -37.5t-95 -1t-72 48.5q-25 -42 -72.5 -100t-73.5 -72q-30 -14 -56.5 0t-32.5 50.5t22 93.5q30 56 82.5 92.5t99.5 36.5z
M172 606q-41 0 -80 -36.5t-57 -86.5q-4 -9 -8 -23t-2 -16q2 -4 4 -6t6 -2q5 1 35 19q67 57 120 145q-16 6 -18 6zM113 842q11 0 14 -13q14 -33 27 -55.5t18.5 -32t7.5 -18.5q0 -6 -7 -11t-13 -3q-20 7 -40.5 44.5t-25.5 65.5q-1 10 5 16.5t14 6.5z" />
    <glyph glyph-name="aacute" unicode="&#xe1;" horiz-adv-x="434" 
d="M168 676q31 0 57 -23q8 -9 8.5 -21t-6 -21.5t-18.5 -12.5q10 -27 37 -42t59 -17q26 -1 52.5 6.5t56.5 20.5t37 16q4 2 7 -1t3 -8t-4 -8q-43 -26 -91 -37.5t-95 -1t-72 48.5q-25 -42 -72.5 -100t-73.5 -72q-30 -14 -56.5 0t-32.5 50.5t22 93.5q30 56 82.5 92.5t99.5 36.5z
M172 606q-41 0 -80 -36.5t-57 -86.5q-4 -9 -8 -23t-2 -16q2 -4 4 -6t6 -2q5 1 35 19q67 57 120 145q-16 6 -18 6zM188 858q6 0 11.5 -4.5t5.5 -11.5q-3 -33 -15 -70q-20 -59 -43 -61q-6 0 -12 6q-5 12 6 39q20 44 31 90q3 12 16 12z" />
    <glyph glyph-name="acircumflex" unicode="&#xe2;" horiz-adv-x="434" 
d="M168 676q31 0 57 -23q8 -9 8.5 -21t-6 -21.5t-18.5 -12.5q10 -27 37 -42t59 -17q26 -1 52.5 6.5t56.5 20.5t37 16q4 2 7 -1t3 -8t-4 -8q-43 -26 -91 -37.5t-95 -1t-72 48.5q-25 -42 -72.5 -100t-73.5 -72q-30 -14 -56.5 0t-32.5 50.5t22 93.5q30 56 82.5 92.5t99.5 36.5z
M172 606q-41 0 -80 -36.5t-57 -86.5q-4 -9 -8 -23t-2 -16q2 -4 4 -6t6 -2q5 1 35 19q67 57 120 145q-16 6 -18 6zM160 811q13 2 45 -25q4 -3 10.5 -7.5t10 -7t9 -6t8 -6t6 -5.5t5.5 -5.5t3.5 -5.5t2 -6t0.5 -6q0 -13 -10 -16q-14 -5 -30 5t-68 54q-4 -1 -36.5 -21t-49.5 -26
q-8 -3 -12.5 6t1.5 15q8 7 25 18.5t22 15.5q5 3 22.5 14.5t27.5 14.5h8z" />
    <glyph glyph-name="atilde" unicode="&#xe3;" horiz-adv-x="434" 
d="M168 676q31 0 57 -23q8 -9 8.5 -21t-6 -21.5t-18.5 -12.5q10 -27 37 -42t59 -17q26 -1 52.5 6.5t56.5 20.5t37 16q4 2 7 -1t3 -8t-4 -8q-43 -26 -91 -37.5t-95 -1t-72 48.5q-25 -42 -72.5 -100t-73.5 -72q-30 -14 -56.5 0t-32.5 50.5t22 93.5q30 56 82.5 92.5t99.5 36.5z
M172 606q-41 0 -80 -36.5t-57 -86.5q-4 -9 -8 -23t-2 -16q2 -4 4 -6t6 -2q5 1 35 19q67 57 120 145q-16 6 -18 6zM59 831q38 -1 104.5 -38t94.5 -41q27 -5 55.5 4.5t36.5 9.5q11 0 9 -12q-3 -22 -50 -33q-45 -11 -89 5t-86 40t-71 27q-21 3 -39.5 -7t-21.5 -30
q-2 -10 -10.5 -9t-11.5 9q-10 21 3.5 39.5t36.5 27.5q16 8 39 8z" />
    <glyph glyph-name="adieresis" unicode="&#xe4;" horiz-adv-x="434" 
d="M168 676q31 0 57 -23q8 -9 8.5 -21t-6 -21.5t-18.5 -12.5q10 -27 37 -42t59 -17q26 -1 52.5 6.5t56.5 20.5t37 16q4 2 7 -1t3 -8t-4 -8q-43 -26 -91 -37.5t-95 -1t-72 48.5q-25 -42 -72.5 -100t-73.5 -72q-30 -14 -56.5 0t-32.5 50.5t22 93.5q30 56 82.5 92.5t99.5 36.5z
M172 606q-41 0 -80 -36.5t-57 -86.5q-4 -9 -8 -23t-2 -16q2 -4 4 -6t6 -2q5 1 35 19q67 57 120 145q-16 6 -18 6zM201 799q13 0 24 -11q15 -20 5.5 -40t-29 -23.5t-35.5 8.5q-8 12 -8 21q-4 14 6 24q3 5 14 13t23 8zM100 784q23 0 29 -16q7 -22 5.5 -28.5t-9.5 -18.5
q-17 -17 -39.5 -6.5t-19.5 35.5q5 19 8 22q9 12 26 12z" />
    <glyph glyph-name="aring" unicode="&#xe5;" horiz-adv-x="434" 
d="M168 676q31 0 57 -23q8 -9 8.5 -21t-6 -21.5t-18.5 -12.5q10 -27 37 -42t59 -17q26 -1 52.5 6.5t56.5 20.5t37 16q4 2 7 -1t3 -8t-4 -8q-43 -26 -91 -37.5t-95 -1t-72 48.5q-25 -42 -72.5 -100t-73.5 -72q-30 -14 -56.5 0t-32.5 50.5t22 93.5q30 56 82.5 92.5t99.5 36.5z
M172 606q-41 0 -80 -36.5t-57 -86.5q-4 -9 -8 -23t-2 -16q2 -4 4 -6t6 -2q5 1 35 19q67 57 120 145q-16 6 -18 6zM129 872q19 0 37 -16.5t24 -38.5q11 -42 -6 -76t-49 -24q-30 12 -36 56t14 71q-9 5 -8.5 11t8.5 11q9 6 16 6zM150 821q-2 -2 -3.5 -2h-2.5t-2.5 -4t-2.5 -14
v-21q3 -11 5.5 -17t3.5 -7h2v0v0q7 7 7.5 28t-7.5 37zM150 756z" />
    <glyph glyph-name="ae" unicode="&#xe6;" horiz-adv-x="460" 
d="M156 688q32 0 45 -24q35 27 77 20t54 -37t-13 -69q-20 -23 -52.5 -32.5t-61.5 -0.5q-2 -18 -3.5 -27.5t3 -21.5t6.5 -16.5t7.5 -12.5t6.5 -10q15 -15 31 -17q34 -5 68 21q50 31 112 121q2 3 5.5 2.5t5 -3.5t-0.5 -6q-20 -32 -33 -50.5t-35.5 -48t-41.5 -44t-43 -28
t-50 -12t-53 15.5q-31 17 -45.5 50t-11.5 72q-44 -56 -70 -73q-31 -23 -57 0q-24 24 -20 63.5t28 71.5q25 36 66.5 65.5t75.5 30.5zM293 643q-6 0 -12.5 -3t-10 -6t-11 -10t-9.5 -8q-30 -26 -41 -57q25 -3 47 0q31 7 47.5 24.5t15.5 34t-16 23.5q-2 0 -5.5 1t-4.5 1z
M158 629q-34 0 -83 -57t-38 -97l2 -2q5 -3 10 2q19 5 44.5 30t41.5 48q3 16 8 30t9.5 20.5t8.5 13t4.5 8t-1.5 4.5h-6z" />
    <glyph glyph-name="ccedilla" unicode="&#xe7;" horiz-adv-x="292" 
d="M143 682q29 0 41 -18t4 -35q-3 -8 -24 -8h-7h-6t-5.5 -0.5t-6.5 -1.5t-7.5 -3.5t-10.5 -5.5q-33 -20 -50 -52.5t-16 -61.5t17 -45q15 -13 41 -9q24 1 53 22t50 44t65 74q3 3 6 1.5t4 -4.5t-2 -6l-37.5 -45t-40.5 -47t-36 -34.5t-44 -28t-43 -6.5q-1 -6 -1 -8.5t-1 -8.5
q32 -10 43 -33t-2 -40q-17 -28 -56.5 -28.5t-54.5 25.5q-8 10 1.5 22.5t25.5 6.5q35 -17 53 -6q6 4 6 10q-3 18 -26 21q-13 4 -15 12t2 33q-32 11 -49.5 43.5t-15.5 68.5q3 63 52 108.5t93 43.5zM43 348h2h-3h1z" />
    <glyph glyph-name="egrave" unicode="&#xe8;" horiz-adv-x="270" 
d="M106 682q15 0 23 -4q37 -14 17 -65.5t-68 -73.5q-28 -14 -49 -11q-31 -96 14 -133q20 -15 50 2.5t58.5 50t69.5 72.5t74 58q7 5 10 -4q3 -7 -2 -11q-31 -17 -59 -43.5t-61.5 -66t-47.5 -54.5q-52 -48 -93.5 -36t-64.5 69q-19 61 -2 116.5t55.5 94t75.5 39.5zM121 645
q-15 -4 -25 -14q-38 -23 -63 -90q26 0 54.5 20.5t37.5 48.5q4 7 5 17t-3 16q-2 2 -6 2zM53 852q12 0 15 -12q14 -33 27 -55.5t18.5 -32.5t7.5 -19q0 -6 -7.5 -11t-13.5 -3q-20 7 -40 44.5t-25 65.5q-1 10 4.5 16.5t13.5 6.5z" />
    <glyph glyph-name="eacute" unicode="&#xe9;" horiz-adv-x="270" 
d="M106 682q15 0 23 -4q37 -14 17 -65.5t-68 -73.5q-28 -14 -49 -11q-31 -96 14 -133q20 -15 50 2.5t58.5 50t69.5 72.5t74 58q7 5 10 -4q3 -7 -2 -11q-31 -17 -59 -43.5t-61.5 -66t-47.5 -54.5q-52 -48 -93.5 -36t-64.5 69q-19 61 -2 116.5t55.5 94t75.5 39.5zM121 645
q-15 -4 -25 -14q-38 -23 -63 -90q26 0 54.5 20.5t37.5 48.5q4 7 5 17t-3 16q-2 2 -6 2zM129 868q16 0 16 -16q-2 -33 -14 -70q-20 -59 -43 -61q-6 0 -12 6q-5 12 6 39q20 44 31 90q3 12 16 12z" />
    <glyph glyph-name="ecircumflex" unicode="&#xea;" horiz-adv-x="270" 
d="M106 682q15 0 23 -4q37 -14 17 -65.5t-68 -73.5q-28 -14 -49 -11q-31 -96 14 -133q20 -15 50 2.5t58.5 50t69.5 72.5t74 58q7 5 10 -4q3 -7 -2 -11q-31 -17 -59 -43.5t-61.5 -66t-47.5 -54.5q-52 -48 -93.5 -36t-64.5 69q-19 61 -2 116.5t55.5 94t75.5 39.5zM121 645
q-15 -4 -25 -14q-38 -23 -63 -90q26 0 54.5 20.5t37.5 48.5q4 7 5 17t-3 16q-2 2 -6 2zM100 821q14 2 45 -24q46 -32 53 -43q4 -7 3 -13q0 -12 -11 -16q-14 -5 -30 5t-68 54q-4 -1 -36.5 -21t-49.5 -26q-7 -3 -11.5 6t1.5 15q8 7 26.5 20t20.5 15q5 3 22 14t27 14h8z" />
    <glyph glyph-name="edieresis" unicode="&#xeb;" horiz-adv-x="270" 
d="M106 682q15 0 23 -4q37 -14 17 -65.5t-68 -73.5q-28 -14 -49 -11q-31 -96 14 -133q20 -15 50 2.5t58.5 50t69.5 72.5t74 58q7 5 10 -4q3 -7 -2 -11q-31 -17 -59 -43.5t-61.5 -66t-47.5 -54.5q-52 -48 -93.5 -36t-64.5 69q-19 61 -2 116.5t55.5 94t75.5 39.5zM121 645
q-15 -4 -25 -14q-38 -23 -63 -90q26 0 54.5 20.5t37.5 48.5q4 7 5 17t-3 16q-2 2 -6 2zM141 809q15 0 25 -10q15 -20 5.5 -40t-29.5 -24t-36 8q-8 12 -8 21q-4 14 6 24q2 4 15 13q11 8 22 8zM41 795q22 0 29 -17q7 -22 5.5 -28.5t-9.5 -18.5q-17 -17 -40 -6.5t-20 35.5
q5 19 8 22q10 13 27 13z" />
    <glyph glyph-name="igrave" unicode="&#xec;" horiz-adv-x="219" 
d="M39 649q9 0 15 -8t5 -18q0 -7 -17 -68.5t-17 -116.5q0 -41 8 -43q13 -4 40 18t44 42q7 7 22 24t22 25t19.5 21t20.5 20t18.5 15.5t20 13.5t18.5 8q3 1 5 -1.5t2 -5.5t-3 -4q-5 -3 -17.5 -10t-18.5 -10.5t-17 -11.5t-22 -18.5t-23 -24.5q-13 -15 -33 -38.5t-28.5 -32.5
t-20.5 -22t-20.5 -18.5t-16.5 -9.5q-44 -20 -60 51q-17 72 4 154q14 55 38 67q4 2 12 2zM2 795q11 0 14 -13q14 -33 27 -55.5t19 -32t8 -18.5q0 -6 -7.5 -11t-13.5 -3q-20 7 -40 44.5t-25 65.5q-1 10 4.5 16.5t13.5 6.5z" />
    <glyph glyph-name="iacute" unicode="&#xed;" horiz-adv-x="219" 
d="M39 649q9 0 15 -8t5 -18q0 -7 -17 -68.5t-17 -116.5q0 -41 8 -43q13 -4 40 18t44 42q7 7 22 24t22 25t19.5 21t20.5 20t18.5 15.5t20 13.5t18.5 8q3 1 5 -1.5t2 -5.5t-3 -4q-5 -3 -17.5 -10t-18.5 -10.5t-17 -11.5t-22 -18.5t-23 -24.5q-13 -15 -33 -38.5t-28.5 -32.5
t-20.5 -22t-20.5 -18.5t-16.5 -9.5q-44 -20 -60 51q-17 72 4 154q14 55 38 67q4 2 12 2zM78 811q16 0 16 -16q-2 -33 -14 -70q-20 -59 -43 -61q-6 0 -12 6q-5 12 6 39q18 40 30 90q3 12 17 12z" />
    <glyph glyph-name="icircumflex" unicode="&#xee;" horiz-adv-x="219" 
d="M23 649q9 0 15 -8t5 -18q0 -7 -17.5 -68.5t-17.5 -116.5q0 -41 8 -43q13 -4 40 18t44 42q4 5 21.5 24.5t22.5 25t19 20.5t21.5 20.5t18.5 15t20.5 14t18.5 7.5q3 1 5 -1.5t2 -5.5t-3 -4q-5 -3 -17.5 -9.5t-19 -11t-17.5 -12t-22 -18t-23 -24.5q-14 -16 -33 -38.5
t-28 -32.5t-20.5 -22t-20 -18t-16.5 -10q-44 -20 -60 51q-17 72 3 154q14 55 38 67q4 2 13 2zM33 764q13 2 45 -25q4 -3 10.5 -7.5t10 -7t9 -6t8 -6t6 -5.5t5.5 -5.5t3.5 -5.5t2 -6t0.5 -6q0 -13 -10 -16q-14 -5 -30 5t-68 54q-4 -1 -36.5 -21t-49.5 -26q-8 -3 -12.5 5.5
t1.5 14.5q8 7 26.5 20t20.5 15q5 3 22.5 14.5t27.5 14.5h8z" />
    <glyph glyph-name="idieresis" unicode="&#xef;" horiz-adv-x="219" 
d="M37 649q9 0 15 -8t5 -18q0 -7 -17 -68.5t-17 -116.5q0 -41 8 -43q13 -4 40 18t44 42q7 7 22 24t22 25t19.5 21t20.5 20t18.5 15.5t20 13.5t18.5 8q3 1 5 -1.5t2 -5.5t-3 -4q-5 -3 -17.5 -10t-18.5 -10.5t-17 -11.5t-22 -18.5t-23 -24.5q-13 -15 -33 -38.5t-28.5 -32.5
t-20.5 -22t-20.5 -18.5t-16.5 -9.5q-44 -20 -60 51q-17 72 4 154q14 55 38 67q4 2 12 2zM88 752q14 0 25 -11q15 -20 5.5 -40t-29.5 -23.5t-36 8.5q-8 12 -8 21q-4 14 6 24q1 1 15 12q12 9 22 9zM-12 737q22 0 28 -16q7 -22 5.5 -28.5t-9.5 -18.5q-17 -17 -39.5 -7t-19.5 35
q5 20 8 23q9 12 27 12z" />
    <glyph glyph-name="eth" unicode="&#xf0;" horiz-adv-x="10106" 
d="M16239 993q14 0 21.5 -9t14.5 -28q34 -83 52 -153q33 11 57 29.5t37.5 35t19.5 19.5q3 2 6 0.5t3 -4.5q-2 -18 -25 -41q-39 -42 -92 -62q35 -165 33 -237q60 -22 69 -70q2 -6 -4.5 -9t-9.5 3q-19 36 -55 55q-11 -116 -88 -186q-65 -51 -130.5 -43.5t-87.5 55.5
q-12 29 -6.5 59t29 58.5t56 49.5t75 33.5t84.5 10.5q-2 72 -35 207q-64 -4 -94 -10q-47 -12 -45 -36q3 -16 20 -20q8 0 1 -8q-14 -15 -35 -2q-25 13 -17 45q3 13 10 22.5t20 15.5t22.5 10t29 6t27.5 2.5t30 1t25 0.5q-12 42 -24 79t-16 47.5t-8 28.5t1 23q3 17 22 20
q2 2 7 2zM16282 539q-61 0 -114 -30.5t-77 -74.5q-30 -58 9 -91q35 -30 88 -12q68 23 96 108q14 45 14 100h-16z" />
    <glyph glyph-name="ntilde" unicode="&#xf1;" horiz-adv-x="401" 
d="M70 725q14 2 21.5 -10t-1.5 -25q-18 -48 -35 -108q-1 -3 -2 -8v-6q0 1 3 6q19 31 42 63q44 57 65 70q17 11 32 12q23 3 36 -31q9 -25 0.5 -85.5t-14.5 -103t14 -77.5q10 -12 22 -14t26.5 6t28.5 20t31.5 32t31 37t31.5 40t30 37q4 4 9.5 0t2.5 -9q-26 -38 -96 -129
q-21 -30 -42 -47t-50 -20q-61 -5 -84 69q-15 53 -10.5 100.5t12 89.5t4.5 46q-18 -2 -62 -49.5t-75 -116.5q-8 -52 -10 -55q-8 -8 -17 -2q-9 0 -6 8q0 1 -1.5 7t-4 20.5t-4.5 35.5q-4 30 -2 71.5t20 78.5q21 47 54 47zM39 877q38 -1 104.5 -38.5t94.5 -41.5q27 -5 55.5 4.5
t36.5 9.5q11 0 9 -12q-3 -22 -50 -33q-45 -11 -89 5t-86 40t-71 27q-21 3 -39.5 -7t-21.5 -30q-2 -10 -11 -9t-12 9q-10 21 4 39.5t37 27.5q18 9 39 9z" />
    <glyph glyph-name="ograve" unicode="&#xf2;" horiz-adv-x="264" 
d="M131 733q26 -1 41.5 -21t12.5 -65.5t-33 -109.5q15 0 28.5 2.5t28.5 8t23.5 9t25 12.5t21.5 11q8 5 12 -4q2 -7 -6 -11q-2 -1 -17.5 -8t-21 -9t-19.5 -7.5t-22 -8t-20 -5.5t-22 -3.5t-20 0.5q-26 -50 -65 -91.5t-76 -37.5q-41 6 -44.5 65t24.5 124t67 88q30 61 82 61z
M127 717q-31 0 -57 -37q15 2 27 -8t12 -25q0 -10 -7.5 -17.5t-17.5 -6.5q-2 0 -3.5 0.5t-2 0.5t-3.5 -2.5t-7 -7t-13 -14.5q14 -50 80 -61q13 26 22 54t12.5 56t-5.5 47t-31 21h-6zM43 588q-47 -52 -55 -116q-7 -52 23 -54q15 -1 38 14q46 28 78 94q-62 11 -84 62zM82 887
q11 0 14 -13q14 -33 27 -55.5t19 -32t8 -18.5q0 -6 -7.5 -11t-13.5 -3q-20 7 -40.5 44.5t-25.5 65.5q-1 10 5 16.5t14 6.5z" />
    <glyph glyph-name="oacute" unicode="&#xf3;" horiz-adv-x="264" 
d="M131 733q26 -1 41.5 -21t12.5 -65.5t-33 -109.5q15 0 28.5 2.5t28.5 8t23.5 9t25 12.5t21.5 11q8 5 12 -4q2 -7 -6 -11q-2 -1 -17.5 -8t-21 -9t-19.5 -7.5t-22 -8t-20 -5.5t-22 -3.5t-20 0.5q-26 -50 -65 -91.5t-76 -37.5q-41 6 -44.5 65t24.5 124t67 88q30 61 82 61z
M127 717q-31 0 -57 -37q15 2 27 -8t12 -25q0 -10 -7.5 -17.5t-17.5 -6.5q-2 0 -3.5 0.5t-2 0.5t-3.5 -2.5t-7 -7t-13 -14.5q14 -50 80 -61q13 26 22 54t12.5 56t-5.5 47t-31 21h-6zM43 588q-47 -52 -55 -116q-7 -52 23 -54q15 -1 38 14q46 28 78 94q-62 11 -84 62zM158 903
q16 0 16 -16q-2 -33 -14 -70q-20 -59 -43 -61q-7 0 -13 6q-4 10 7 39q18 40 30 90q3 12 17 12z" />
    <glyph glyph-name="ocircumflex" unicode="&#xf4;" horiz-adv-x="264" 
d="M131 733q26 -1 41.5 -21t12.5 -65.5t-33 -109.5q15 0 28.5 2.5t28.5 8t23.5 9t25 12.5t21.5 11q8 5 12 -4q2 -7 -6 -11q-2 -1 -17.5 -8t-21 -9t-19.5 -7.5t-22 -8t-20 -5.5t-22 -3.5t-20 0.5q-26 -50 -65 -91.5t-76 -37.5q-41 6 -44.5 65t24.5 124t67 88q30 61 82 61z
M127 717q-31 0 -57 -37q15 2 27 -8t12 -25q0 -10 -7.5 -17.5t-17.5 -6.5q-2 0 -3.5 0.5t-2 0.5t-3.5 -2.5t-7 -7t-13 -14.5q14 -50 80 -61q13 26 22 54t12.5 56t-5.5 47t-31 21h-6zM43 588q-47 -52 -55 -116q-7 -52 23 -54q15 -1 38 14q46 28 78 94q-62 11 -84 62zM129 856
q13 2 45 -25q4 -3 10.5 -7.5t10 -7t9 -6t8 -6t6 -5.5t5.5 -5.5t3.5 -5.5t2 -6t0.5 -6q0 -13 -10 -16q-14 -5 -30 5t-68 54q-4 -1 -36.5 -21t-49.5 -26q-7 -3 -11.5 6t1.5 15q8 7 25 18.5t22 15.5q6 3 22.5 14.5t26.5 14.5h8z" />
    <glyph glyph-name="otilde" unicode="&#xf5;" horiz-adv-x="264" 
d="M133 733q26 -1 41.5 -21t12.5 -65.5t-33 -109.5q15 0 28.5 2.5t28.5 8t23.5 9t25 12.5t21.5 11q8 5 12 -4q2 -7 -6 -11q-2 -1 -17.5 -8t-21 -9t-19.5 -7.5t-22 -8t-20 -5.5t-22 -3.5t-20 0.5q-26 -50 -65 -91.5t-76 -37.5q-41 6 -44.5 65t24.5 124t67 88q30 61 82 61z
M129 717q-31 0 -57 -37q15 2 27 -8t12 -25q0 -10 -7.5 -17.5t-17.5 -6.5q-2 0 -3.5 0.5t-2 0.5t-3.5 -2.5t-7 -7t-13 -14.5q14 -50 80 -61q13 26 22 54t12.5 56t-5.5 47t-31 21h-6zM45 588q-47 -52 -55 -116q-7 -52 23 -54q15 -1 38 14q46 28 78 94q-62 11 -84 62zM31 877
q38 -1 104 -38.5t94 -41.5q27 -5 56 4.5t37 9.5q11 0 9 -12q-3 -22 -50 -33q-45 -11 -89 5t-86 40t-71 27q-21 3 -40 -7t-22 -30q-2 -10 -10.5 -9t-11.5 9q-10 21 4 39.5t37 27.5q18 9 39 9z" />
    <glyph glyph-name="odieresis" unicode="&#xf6;" horiz-adv-x="264" 
d="M131 733q26 -1 41.5 -21t12.5 -65.5t-33 -109.5q15 0 28.5 2.5t28.5 8t23.5 9t25 12.5t21.5 11q8 5 12 -4q2 -7 -6 -11q-2 -1 -17.5 -8t-21 -9t-19.5 -7.5t-22 -8t-20 -5.5t-22 -3.5t-20 0.5q-26 -50 -65 -91.5t-76 -37.5q-41 6 -44.5 65t24.5 124t67 88q30 61 82 61z
M127 717q-31 0 -57 -37q15 2 27 -8t12 -25q0 -10 -7.5 -17.5t-17.5 -6.5q-2 0 -3.5 0.5t-2 0.5t-3.5 -2.5t-7 -7t-13 -14.5q14 -50 80 -61q13 26 22 54t12.5 56t-5.5 47t-31 21h-6zM43 588q-47 -52 -55 -116q-7 -52 23 -54q15 -1 38 14q46 28 78 94q-62 11 -84 62zM170 844
q15 0 25 -10q15 -20 5.5 -40t-29.5 -24t-36 8q-8 12 -8 21q-4 14 6 24q3 5 14 13t23 8zM70 829q22 0 28 -16q7 -22 5.5 -28.5t-9.5 -18.5q-17 -17 -39.5 -6.5t-19.5 35.5q5 19 8 22q9 12 27 12z" />
    <glyph glyph-name="divide" unicode="&#xf7;" horiz-adv-x="260" 
d="M152 752q16 -2 23 -17.5t-7 -29.5q-15 -15 -29 -11q-12 2 -17.5 13.5t1.5 25.5q11 19 29 19zM45 649q14 0 61 -2t87 -2q51 -2 59 -4q5 -2 5.5 -7.5t-5.5 -8.5q-4 -1 -7 -1.5t-11 -0.5t-18.5 0.5t-33.5 0.5t-51 -1q-74 0 -111 2q-2 -5 -6.5 -6.5t-9.5 2.5q-1 1 -2 4t-2 4
q-6 6 -3.5 12.5t11.5 7.5h37zM127 565q17 0 20 -16q5 -15 -10 -27.5t-28 -5.5q-8 3 -9.5 15t6.5 24q7 10 21 10z" />
    <glyph glyph-name="oslash" unicode="&#xf8;" horiz-adv-x="202" 
d="M166 756q7 0 11.5 -7t0.5 -14q-5 -10 -39 -71q23 -21 23.5 -60.5t-14.5 -77.5t-42.5 -68.5t-56.5 -35.5q-36 -118 -41 -127q-3 -4 -7 -4.5t-8 3.5t-3 9q2 9 11 36t24 81q1 3 -1 3l-4 1q-31 12 -39 51.5t0.5 81t24.5 76.5q20 49 47 49q6 0 8 -2q26 6 52 0q18 38 45 72
q2 4 8 4zM88 662q-3 0 -9 -1.5t-9 -1.5q0 -11 -13 -14q-4 -1 -6 1q0 1 -2 -2q0 -1 -1 -3l-5 -10q-11 -25 -20 -63t-8 -74t20 -41q38 141 69 206q-3 0 -8.5 1.5t-7.5 1.5zM131 643q-41 -81 -72 -188q27 13 51.5 50t31.5 74.5t-11 63.5z" />
    <glyph glyph-name="ugrave" unicode="&#xf9;" horiz-adv-x="471" 
d="M322 684q13 -2 19.5 -14t0.5 -33q-4 -16 -14.5 -50.5t-17 -57.5t-14.5 -59t-7.5 -56t4.5 -49q6 -20 16 -21.5t23 10.5q34 24 67 72.5t67.5 91.5t76.5 62q7 3 10 -4.5t-4 -10.5q-41 -16 -73 -55t-63.5 -89.5t-58.5 -76.5q-62 -59 -91 12q-24 62 -11 172q3 23 9 45
q1 5 0.5 4.5t-2.5 -4.5q-10 -16 -21 -32q-57 -80 -76 -103q-14 -14 -29 -21.5t-33 -6.5t-32 16q-27 27 -27 107t33 135q10 18 29.5 9t13.5 -28q1 1 -3 -10.5t-9 -27t-7 -21.5q-37 -126 -3 -155q19 -17 46 9q22 19 63.5 78t71.5 109q6 16 10 24t12 16.5t17 10.5q1 0 3.5 1
t3.5 1zM150 866q11 0 14 -12q14 -33 27 -55.5t18.5 -32t7.5 -18.5q0 -6 -7 -11t-13 -4q-20 7 -40.5 45t-25.5 66q-1 10 5 16t14 6z" />
    <glyph glyph-name="uacute" unicode="&#xfa;" horiz-adv-x="471" 
d="M322 684q13 -2 19.5 -14t0.5 -33q-4 -16 -14.5 -50.5t-17 -57.5t-14.5 -59t-7.5 -56t4.5 -49q6 -20 16 -21.5t23 10.5q34 24 67 72.5t67.5 91.5t76.5 62q7 3 10 -4.5t-4 -10.5q-41 -16 -73 -55t-63.5 -89.5t-58.5 -76.5q-62 -59 -91 12q-24 62 -11 172q3 23 9 45
q1 5 0.5 4.5t-2.5 -4.5q-10 -16 -21 -32q-57 -80 -76 -103q-14 -14 -29 -21.5t-33 -6.5t-32 16q-27 27 -27 107t33 135q10 18 29.5 9t13.5 -28q1 1 -3 -10.5t-9 -27t-7 -21.5q-37 -126 -3 -155q19 -17 46 9q22 19 63.5 78t71.5 109q6 16 10 24t12 16.5t17 10.5q1 0 3.5 1
t3.5 1zM225 883q6 0 11.5 -5t5.5 -12q-3 -32 -15 -69q-21 -60 -43 -62q-6 0 -12 6q-5 12 6 39q20 44 31 90q3 13 16 13z" />
    <glyph glyph-name="ucircumflex" unicode="&#xfb;" horiz-adv-x="471" 
d="M322 684q13 -2 19.5 -14t0.5 -33q-4 -16 -14.5 -50.5t-17 -57.5t-14.5 -59t-7.5 -56t4.5 -49q6 -20 16 -21.5t23 10.5q34 24 67 72.5t67.5 91.5t76.5 62q7 3 10 -4.5t-4 -10.5q-41 -16 -73 -55t-63.5 -89.5t-58.5 -76.5q-62 -59 -91 12q-24 62 -11 172q3 23 9 45
q1 5 0.5 4.5t-2.5 -4.5q-10 -16 -21 -32q-57 -80 -76 -103q-14 -14 -29 -21.5t-33 -6.5t-32 16q-27 27 -27 107t33 135q10 18 29.5 9t13.5 -28q1 1 -3 -10.5t-9 -27t-7 -21.5q-37 -126 -3 -155q19 -17 46 9q22 19 63.5 78t71.5 109q6 16 10 24t12 16.5t17 10.5q1 0 3.5 1
t3.5 1zM197 836q13 2 45 -25q4 -3 10.5 -7.5t10 -7t9 -6t8 -6t6 -5.5t5.5 -5.5t3.5 -5.5t2 -6t0.5 -6q0 -14 -10 -17q-13 -4 -29.5 5.5t-69.5 54.5q-4 -1 -36.5 -21t-49.5 -26q-8 -3 -12 5.5t2 14.5q8 7 26.5 20t20.5 15q6 3 22.5 14.5t26.5 14.5h9z" />
    <glyph glyph-name="udieresis" unicode="&#xfc;" horiz-adv-x="471" 
d="M322 684q13 -2 19.5 -14t0.5 -33q-4 -16 -14.5 -50.5t-17 -57.5t-14.5 -59t-7.5 -56t4.5 -49q6 -20 16 -21.5t23 10.5q34 24 67 72.5t67.5 91.5t76.5 62q7 3 10 -4.5t-4 -10.5q-41 -16 -73 -55t-63.5 -89.5t-58.5 -76.5q-62 -59 -91 12q-24 62 -11 172q3 23 9 45
q1 5 0.5 4.5t-2.5 -4.5q-10 -16 -21 -32q-57 -80 -76 -103q-14 -14 -29 -21.5t-33 -6.5t-32 16q-27 27 -27 107t33 135q10 18 29.5 9t13.5 -28q1 1 -3 -10.5t-9 -27t-7 -21.5q-37 -126 -3 -155q19 -17 46 9q22 19 63.5 78t71.5 109q6 16 10 24t12 16.5t17 10.5q1 0 3.5 1
t3.5 1zM238 823q14 0 24 -10q15 -20 5.5 -40t-29 -23.5t-35.5 8.5q-8 12 -8 20q-4 15 6 25q2 3 14 12q11 8 23 8zM137 809q23 0 29 -16q12 -24 -4 -48q-17 -17 -40 -6.5t-20 35.5q5 19 9 23q9 12 26 12z" />
    <glyph glyph-name="yacute" unicode="&#xfd;" horiz-adv-x="372" 
d="M92 655q11 0 19 -8q22 -25 28 -123q12 5 54.5 26.5t62.5 29.5q3 1 5 -2t2 -6.5t-3 -4.5q-46 -17 -119 -55q11 -274 -145 -387q-77 -55 -139 -30q-52 21 -54 83q-3 92 108 197q69 65 175 123q-4 102 -4 106l2 25q-6 -3 -14 -15.5t-35 -44t-70 -71.5t-76.5 -22t-27.5 79
q6 53 41 88q13 15 29.5 1.5t7.5 -30.5q-29 -47 -29 -82q-2 -23 5.5 -27.5t35.5 11.5q35 21 64 52.5t45.5 55.5t17.5 25q6 6 14 6zM86 483q-102 -55 -170 -123q-86 -86 -98 -147q-12 -64 33 -88t103 13q87 56 118 202q14 65 14 143zM31 821q16 0 16 -16q-2 -33 -14 -70
q-20 -59 -43 -61q-7 0 -13 6q-4 10 7 39q18 40 30 90q3 12 17 12z" />
    <glyph glyph-name="thorn" unicode="&#xfe;" horiz-adv-x="372" 
d="M147 928q9 0 16 -6.5t7 -16.5q0 -25 -20 -117q44 26 95.5 25t80.5 -35q25 -29 33 -67t0 -75.5t-27.5 -75t-49 -66t-64 -49t-73.5 -22.5t-77 13q-23 -97 -54 -203q-2 -11 -13 -6q-8 4 -7 13q7 38 21 106t22 109q-28 21 -39.5 49.5t-10 47t6.5 21.5q-3 29 24 80
q23 51 74 95q29 163 33 163q3 17 22 17zM248 770q-58 -3 -113 -47q-5 -23 -11 -50l-3 -19l3 5q14 28 26 43q3 3 7 0.5t3 -6.5q-3 -7 -24.5 -51t-39.5 -92q-3 -16 -22 -92q60 -26 127.5 9t103.5 105q23 42 21 97t-33 82q-16 16 -45 16zM76 662q-19 -25 -47 -87q10 -10 -1 -20
q-12 -12 -26 2q6 -46 41 -76q2 12 15 83.5t18 97.5z" />
    <glyph glyph-name="ydieresis" unicode="&#xff;" horiz-adv-x="372" 
d="M92 655q11 0 19 -8q22 -25 28 -123q12 5 54.5 26.5t62.5 29.5q3 1 5 -2t2 -6.5t-3 -4.5q-46 -17 -119 -55q11 -274 -145 -387q-77 -55 -139 -30q-52 21 -54 83q-3 92 108 197q69 65 175 123q-4 102 -4 106l2 25q-6 -3 -14 -15.5t-35 -44t-70 -71.5t-76.5 -22t-27.5 79
q6 53 41 88q13 15 29.5 1.5t7.5 -30.5q-29 -47 -29 -82q-2 -23 5.5 -27.5t35.5 11.5q35 21 64 52.5t45.5 55.5t17.5 25q6 6 14 6zM86 483q-102 -55 -170 -123q-86 -86 -98 -147q-12 -64 33 -88t103 13q87 56 118 202q14 65 14 143zM43 762q15 0 25 -10q15 -20 5.5 -40
t-29.5 -24t-36 8q-8 12 -8 21q-4 14 6 24q3 5 14 13t23 8zM-57 748q21 0 28 -17q7 -22 5.5 -28.5t-9.5 -18.5q-17 -17 -39.5 -6.5t-19.5 35.5q5 19 8 22q10 13 27 13z" />
    <glyph glyph-name="euro" unicode="&#x20ac;" horiz-adv-x="1556" 
d="M1380 999q21 0 29 -4q25 -8 40.5 -31.5t21 -43t10.5 -52.5q9 -105 -23 -153q-6 -8 -16.5 -7t-11.5 11q0 3 -1.5 9t-1.5 9q8 178 -34 203q-31 7 -63.5 -24t-58 -83t-43.5 -99.5t-28 -86.5q74 0 86 -6q10 -7 0 -12q-9 -3 -18.5 -3t-25 0.5t-48.5 -1.5q-1 -7 -4 -21.5
t-4 -21.5q76 0 86 -7q8 -4 0 -8q-7 -4 -15 -5t-29 -1t-46 -2q-12 -57 -9.5 -155.5t27.5 -149.5q6 -11 8.5 -15.5t9 -11.5t11.5 -5t16 3q24 9 60 45.5t59 83.5q3 5 8 2.5t4 -8.5q-24 -70 -84 -121q-38 -32 -65 -29t-51 46q-49 95 -35 295v14q0 3 -1 3l-1 -1q-35 -4 -37 -4
q0 -5 -4.5 -8t-10.5 0q-9 8 -3 16t16 10q20 6 43 9q1 7 3 21.5t3 21.5q-70 -7 -70 -11q2 -3 -1 -5t-7 -1q-11 3 -15.5 8.5t-2.5 11t8 7.5q43 9 92 12q14 88 48 175.5t85 137.5q47 43 94 43z" />
    <glyph glyph-name="glyph194" unicode="&#xe003;" horiz-adv-x="743" 
d="M51 727q19 0 27 -16.5t-2 -30.5q-6 -34 -76 -301q20 42 29.5 62t36.5 72.5t48 82.5t48 65t53 48.5t49 7.5q18 -4 30 -20t15 -35q4 -33 -8 -97q48 17 88 53q22 78 31 88q5 6 16 11q9 3 19.5 -2t15.5 -13q7 -10 5 -23.5t-16 -66.5q-3 -11 -5 -17.5t-5 -18.5t-6 -23
q-9 -32 -19 -69l-5 -19q1 1 5 10q24 47 48 84q16 26 49 69t49 52q15 11 34.5 10t31.5 -16q30 -35 20 -131q57 21 95 51q5 5 8 -2q1 -3 -2 -6q-43 -37 -103 -60q-8 -43 -30 -88q-50 -94 -109 -88q-37 4 -54 44q-14 38 5 71q29 47 125 63q18 65 10 111q-5 16 -11 18.5
t-24 -8.5q-37 -27 -97.5 -126.5t-90.5 -209.5q-6 -21 -12.5 -45t-11.5 -41.5t-10.5 -37.5t-9.5 -34l-8 -28t-7 -23t-5 -16.5t-3.5 -10.5t-2.5 -3q-3 -9 -13.5 -8.5t-10.5 12.5q3 100 67 389q13 64 30 118q4 14 3.5 15t-7.5 -5q-37 -29 -81 -44q-17 -59 -59.5 -110t-90.5 -50
q-33 0 -51 28t-5.5 64t56.5 54q27 10 82 14q35 91 17 127h2l-4 2q-6 6 -15 4q-14 -2 -32 -16q-44 -30 -93 -121q-93 -169 -120 -243.5t-58 -221.5q-3 -11 -13 -13t-18 5t-6 18q4 23 20.5 118t27.5 154.5t30 147.5t37 154q1 2 4 13t4.5 14.5t5.5 12t8 12t10.5 6.5t14.5 3z
M246 678zM225 539q-34 -3 -57 -11q-44 -14 -56.5 -44t11.5 -48q15 -11 41 15l2 2q39 42 59 86zM586 510q-81 -17 -101 -59q-13 -28 6 -50q17 -19 35 0q39 45 60 109z" />
    <glyph glyph-name="ett" unicode="&#xe012;" horiz-adv-x="700" 
d="M672 1106q20 0 28.5 -20t-8.5 -37q-2 -4 -2 -7q-6 -14 -35 -94q201 7 252 2q6 0 6 -7t-6 -7q-8 0 -88.5 1.5t-167.5 -3.5q-2 -6 -22.5 -61t-27.5 -75.5t-26 -77t-29 -98t-24 -103.5t-24.5 -128t-18.5 -139q-6 -50 -9.5 -92.5t-4 -59t-3 -29t-7.5 -20.5q-1 -1 -4 -1t-5 1
q-7 12 -7.5 33.5t3.5 81.5q21 277 81 536l6 29q-1 -1 -16 -36q-16 -38 -28 -66q-129 -287 -178 -324q-31 -20 -51 0q-13 17 -19 64.5t-4 79.5q2 61 31 202q-62 -134 -114 -180q-51 -48 -97 -27t-45 93q2 48 30.5 95t65.5 56q37 7 54 -20q17 -26 -13 -73t-79 -54
q-20 -40 -7 -66q9 -18 37 -14q81 11 178 239q36 136 60 207q-258 -41 -326 -67q-51 -23 -59 -2q-3 10 4.5 17t15.5 5q12 1 73.5 11.5t149 24.5t148.5 22q26 74 61 131q10 14 26 15t26 -13.5t2 -34.5q-6 -15 -19.5 -44.5t-19.5 -43.5q126 12 166 14q3 13 10.5 35.5l9.5 28.5
q16 41 21 53.5t12.5 24.5t17.5 18q10 7 19 4zM690 1042zM578 930q-39 -1 -168 -15q-3 -8 -19 -44.5t-19.5 -44.5t-16 -38t-16.5 -41t-13.5 -36.5t-14.5 -42.5t-11.5 -40.5t-12.5 -47.5q-37 -141 -27 -218q0 -1 0.5 -6t1 -7.5t1.5 -8t2 -8t2.5 -6.5t4 -6l5 -4t6.5 -1.5t8 2.5
q19 9 47.5 50.5t55.5 94.5t51 104t39 86l16 36q26 62 35 84.5t10.5 31t9 40.5t23.5 86zM133 641q-12 -4 -31.5 -33t-25.5 -45q32 14 47 37q16 20 10 41z" />
    </font>
</defs>
</svg>
